STARTFONT 2.1
FONT -HP-Song-Medium-R-Normal--40-400-75-75-C-400-GB2312.1980-1
SIZE 40 75 75
FONTBOUNDINGBOX 40 40 0 -6

STARTPROPERTIES 23
FONTNAME_REGISTRY ""
FOUNDRY "HP"
FAMILY_NAME "Song"
WEIGHT_NAME "Medium"
SLANT "R"
SETWIDTH_NAME "Normal"
ADD_STYLE_NAME ""
PIXEL_SIZE 40
POINT_SIZE 400
RESOLUTION_X 75
RESOLUTION_Y 75
SPACING "C"
AVERAGE_WIDTH 400
CHARSET_REGISTRY "GB2312.1980"
CHARSET_ENCODING "1"
COPYRIGHT "Copyright (c) 1988, 1989, 1990, 1994 Hewlett-Packard Company."
_HP_ASXVERSION "@(#) ASX 3.00 $Revision: 13.9 $ song40h"
WEIGHT 10
X_HEIGHT 34
QUAD_WIDTH 40
DEFAULT_CHAR 41633
FONT_DESCENT 6
FONT_ASCENT 34
ENDPROPERTIES

CHARS 7546

STARTCHAR chs_A1A1
ENCODING 41377
SWIDTH 960 0
DWIDTH 40 0
BBX 40 40 0 -6
BITMAP
0000000000
0000000000
0000000000
0000000000
0000000000
0000000000
0000000000
0000000000
0000000000
0000000000
0000000000
0000000000
0000000000
0000000000
0000000000
0000000000
0000000000
0000000000
0000000000
0000000000
0000000000
0000000000
0000000000
0000000000
0000000000
0000000000
0000000000
0000000000
0000000000
0000000000
0000000000
0000000000
0000000000
0000000000
0000000000
0000000000
0000000000
0000000000
0000000000
0000000000
ENDCHAR

STARTCHAR chs_A1A2
ENCODING 41378
SWIDTH 960 0
DWIDTH 40 0
BBX 40 40 0 -6
BITMAP
0000000000
0000000000
0000000000
0000000000
0000000000
0000000000
0000000000
0000000000
0000000000
0000000000
0000000000
0000000000
0000000000
0000000000
0000000000
0000000000
0000000000
0000000000
0000000000
0000000000
0000000000
0000000000
0000000000
0400000000
0700000000
03C0000000
01E0000000
00F8000000
0078000000
003C000000
001E000000
001E000000
001E000000
000E000000
000C000000
0000000000
0000000000
0000000000
0000000000
0000000000
ENDCHAR

STARTCHAR chs_A1A3
ENCODING 41379
SWIDTH 960 0
DWIDTH 40 0
BBX 40 40 0 -6
BITMAP
0000000000
0000000000
0000000000
0000000000
0000000000
0000000000
0000000000
0000000000
0000000000
0000000000
0000000000
0000000000
0000000000
0000000000
0000000000
0000000000
0000000000
0000000000
0000000000
0000000000
0000000000
0000000000
0000000000
0078000000
01FC000000
0386000000
0303000000
0601800000
0601800000
0601800000
0601800000
0203000000
0307000000
01FE000000
0078000000
0000000000
0000000000
0000000000
0000000000
0000000000
ENDCHAR

STARTCHAR chs_A1A4
ENCODING 41380
SWIDTH 960 0
DWIDTH 40 0
BBX 40 40 0 -6
BITMAP
0000000000
0000000000
0000000000
0000000000
0000000000
0000000000
0000000000
0000000000
0000000000
0000000000
0000000000
0000000000
0000000000
0000000000
0000000000
0000000000
00007E0000
0000FF0000
0000FF0000
0000FF0000
0000FF0000
0000FF0000
0000FF0000
00007E0000
0000000000
0000000000
0000000000
0000000000
0000000000
0000000000
0000000000
0000000000
0000000000
0000000000
0000000000
0000000000
0000000000
0000000000
0000000000
0000000000
ENDCHAR

STARTCHAR chs_A1A5
ENCODING 41381
SWIDTH 960 0
DWIDTH 40 0
BBX 40 40 0 -6
BITMAP
0000000000
0000000000
0000000000
0000000000
0000000000
0000000000
0000000000
0000000000
0007FFE000
0007FFE000
0000000000
0000000000
0000000000
0000000000
0000000000
0000000000
0000000000
0000000000
0000000000
0000000000
0000000000
0000000000
0000000000
0000000000
0000000000
0000000000
0000000000
0000000000
0000000000
0000000000
0000000000
0000000000
0000000000
0000000000
0000000000
0000000000
0000000000
0000000000
0000000000
0000000000
ENDCHAR

STARTCHAR chs_A1A6
ENCODING 41382
SWIDTH 960 0
DWIDTH 40 0
BBX 40 40 0 -6
BITMAP
0000000000
0000000000
0000000000
0008002000
001C003000
000E006000
000600C000
000701C000
0003838000
0001830000
0000C70000
0000E60000
00006E0000
0000380000
0000380000
0000100000
0000000000
0000000000
0000000000
0000000000
0000000000
0000000000
0000000000
0000000000
0000000000
0000000000
0000000000
0000000000
0000000000
0000000000
0000000000
0000000000
0000000000
0000000000
0000000000
0000000000
0000000000
0000000000
0000000000
0000000000
ENDCHAR

STARTCHAR chs_A1A7
ENCODING 41383
SWIDTH 960 0
DWIDTH 40 0
BBX 40 40 0 -6
BITMAP
0000000000
0000000000
0000000000
0000000000
0000000000
001E00F000
003F01F800
003F83F800
003F83F800
003F83F800
001F01F800
000E00F000
0000000000
0000000000
0000000000
0000000000
0000000000
0000000000
0000000000
0000000000
0000000000
0000000000
0000000000
0000000000
0000000000
0000000000
0000000000
0000000000
0000000000
0000000000
0000000000
0000000000
0000000000
0000000000
0000000000
0000000000
0000000000
0000000000
0000000000
0000000000
ENDCHAR

STARTCHAR chs_A1A8
ENCODING 41384
SWIDTH 960 0
DWIDTH 40 0
BBX 40 40 0 -6
BITMAP
0000000000
0000000000
0000000000
0000000000
0000000000
0000000000
0000000000
0000000000
0000000000
0000000000
0000000000
0000000000
0000000000
0000C03000
0001E07800
0003E0F800
0003C0F000
0007C1F000
000F03C000
000F03C000
001E078000
001C070000
001C070000
00380E0000
00380E0000
00701C0000
0060180000
00C0300000
0180600000
0000000000
0000000000
0000000000
0000000000
0000000000
0000000000
0000000000
0000000000
0000000000
0000000000
0000000000
ENDCHAR

STARTCHAR chs_A1A9
ENCODING 41385
SWIDTH 960 0
DWIDTH 40 0
BBX 40 40 0 -6
BITMAP
0000000000
0000000000
0000000000
0000800000
0000C00000
0001E00000
0001C00000
0003C00000
0003800000
0003000000
0007000000
0007000C00
000E07FE00
000FFFFE00
001FF83C00
001C003800
0018007000
003800F000
002000C000
004001C000
0000038000
0000030000
0002070000
0003860000
0001CC0000
0000F80000
0000780000
00003C0000
00001E0000
00000F0000
0000078000
0000078000
0000038000
0000038000
0000018000
0000000000
0000000000
0000000000
0000000000
0000000000
ENDCHAR

STARTCHAR chs_A1AA
ENCODING 41386
SWIDTH 960 0
DWIDTH 40 0
BBX 40 40 0 -6
BITMAP
0000000000
0000000000
0000000000
0000000000
0000000000
0000000000
0000000000
0000000000
0000000000
0000000000
0000000000
0000000000
0000000000
0000000000
0000000000
0000000000
0000000000
0000000000
0000000000
3FFFFFFFFC
3FFFFFFFFC
0000000000
0000000000
0000000000
0000000000
0000000000
0000000000
0000000000
0000000000
0000000000
0000000000
0000000000
0000000000
0000000000
0000000000
0000000000
0000000000
0000000000
0000000000
0000000000
ENDCHAR

STARTCHAR chs_A1AB
ENCODING 41387
SWIDTH 960 0
DWIDTH 40 0
BBX 40 40 0 -6
BITMAP
0000000000
0000000000
0000000000
0000000000
0000000000
0000000000
0000000000
0000000000
0000000000
0000000000
0000000000
0000000000
0000000000
0000000000
0000000000
0000000000
003C000010
00FF000030
01FFC00060
0381E000E0
07007803C0
0E001FFF80
0C0007FE00
180000F800
1000000000
0000000000
0000000000
0000000000
0000000000
0000000000
0000000000
0000000000
0000000000
0000000000
0000000000
0000000000
0000000000
0000000000
0000000000
0000000000
ENDCHAR

STARTCHAR chs_A1AC
ENCODING 41388
SWIDTH 960 0
DWIDTH 40 0
BBX 40 40 0 -6
BITMAP
0000000000
0000000000
0000000000
0000000000
0001818000
0001818000
0001818000
0001818000
0001818000
0001818000
0001818000
0001818000
0001818000
0001818000
0001818000
0001818000
0001818000
0001818000
0001818000
0001818000
0001818000
0001818000
0001818000
0001818000
0001818000
0001818000
0001818000
0001818000
0001818000
0001818000
0001818000
0001818000
0001818000
0001818000
0001818000
0001818000
0000000000
0000000000
0000000000
0000000000
ENDCHAR

STARTCHAR chs_A1AD
ENCODING 41389
SWIDTH 960 0
DWIDTH 40 0
BBX 40 40 0 -6
BITMAP
0000000000
0000000000
0000000000
0000000000
0000000000
0000000000
0000000000
0000000000
0000000000
0000000000
0000000000
0000000000
0000000000
0000000000
0000000000
0000000000
07003801C0
0F807C03E0
1FC0FE07F0
1FC0FE07F0
1FC0FE07F0
1FC0FE07F0
0F807C03E0
07003801C0
0000000000
0000000000
0000000000
0000000000
0000000000
0000000000
0000000000
0000000000
0000000000
0000000000
0000000000
0000000000
0000000000
0000000000
0000000000
0000000000
ENDCHAR

STARTCHAR chs_A1AE
ENCODING 41390
SWIDTH 960 0
DWIDTH 40 0
BBX 40 40 0 -6
BITMAP
0000000000
0000000000
0000000040
00000000C0
0000000180
0000000300
0000000600
0000001C00
0000001800
0000003800
0000003800
0000007E00
0000007F00
0000007F00
0000007F00
0000007F00
0000003E00
0000001C00
0000000000
0000000000
0000000000
0000000000
0000000000
0000000000
0000000000
0000000000
0000000000
0000000000
0000000000
0000000000
0000000000
0000000000
0000000000
0000000000
0000000000
0000000000
0000000000
0000000000
0000000000
0000000000
ENDCHAR

STARTCHAR chs_A1AF
ENCODING 41391
SWIDTH 960 0
DWIDTH 40 0
BBX 40 40 0 -6
BITMAP
0000000000
0000000000
0038000000
007C000000
00FE000000
00FE000000
00FE000000
00FE000000
007E000000
001C000000
001C000000
0018000000
0038000000
0060000000
00C0000000
0180000000
0300000000
0200000000
0000000000
0000000000
0000000000
0000000000
0000000000
0000000000
0000000000
0000000000
0000000000
0000000000
0000000000
0000000000
0000000000
0000000000
0000000000
0000000000
0000000000
0000000000
0000000000
0000000000
0000000000
0000000000
ENDCHAR

STARTCHAR chs_A1B0
ENCODING 41392
SWIDTH 960 0
DWIDTH 40 0
BBX 40 40 0 -6
BITMAP
0000000000
0000000000
0000001004
0000003018
0000006030
000000C060
00000180C0
0000030180
0000070380
0000060300
00000E0700
00001F87C0
00001FCFE0
00001FCFE0
00001FCFE0
00001FCFE0
00000F87C0
0000070380
0000000000
0000000000
0000000000
0000000000
0000000000
0000000000
0000000000
0000000000
0000000000
0000000000
0000000000
0000000000
0000000000
0000000000
0000000000
0000000000
0000000000
0000000000
0000000000
0000000000
0000000000
0000000000
ENDCHAR

STARTCHAR chs_A1B1
ENCODING 41393
SWIDTH 960 0
DWIDTH 40 0
BBX 40 40 0 -6
BITMAP
0000000000
0000000000
0381C00000
07C3E00000
0FE7F00000
0FE7F00000
0FE7F00000
0FE7F00000
07E3F00000
01C0F00000
01C0E00000
0180E00000
0380C00000
0301800000
0603000000
0C06000000
180C000000
2008000000
0000000000
0000000000
0000000000
0000000000
0000000000
0000000000
0000000000
0000000000
0000000000
0000000000
0000000000
0000000000
0000000000
0000000000
0000000000
0000000000
0000000000
0000000000
0000000000
0000000000
0000000000
0000000000
ENDCHAR

STARTCHAR chs_A1B2
ENCODING 41394
SWIDTH 960 0
DWIDTH 40 0
BBX 40 40 0 -6
BITMAP
0000000000
0000000000
0000000180
0000000380
0000000700
0000000E00
0000001C00
0000003800
0000003800
0000003800
0000003800
0000003800
0000003800
0000003800
0000003800
0000003800
0000003800
0000003800
0000003800
0000003800
0000003800
0000003800
0000003800
0000003800
0000003800
0000003800
0000003800
0000003800
0000003800
0000003800
0000003800
0000003800
0000003800
0000001C00
0000000E00
0000000700
0000000380
0000000180
0000000000
0000000000
ENDCHAR

STARTCHAR chs_A1B3
ENCODING 41395
SWIDTH 960 0
DWIDTH 40 0
BBX 40 40 0 -6
BITMAP
0000000000
0000000000
0180000000
01C0000000
00E0000000
0070000000
0038000000
001C000000
001C000000
001C000000
001C000000
001C000000
001C000000
001C000000
001C000000
001C000000
001C000000
001C000000
001C000000
001C000000
001C000000
001C000000
001C000000
001C000000
001C000000
001C000000
001C000000
001C000000
001C000000
001C000000
001C000000
001C000000
001C000000
0038000000
0070000000
00E0000000
01C0000000
0180000000
0000000000
0000000000
ENDCHAR

STARTCHAR chs_A1B4
ENCODING 41396
SWIDTH 960 0
DWIDTH 40 0
BBX 40 40 0 -6
BITMAP
0000000000
0000000180
0000000180
0000000180
0000000300
0000000300
0000000600
0000000E00
0000000C00
0000001C00
0000001800
0000003800
0000003000
0000003000
0000006000
0000006000
000000C000
000001C000
0000018000
0000038000
0000018000
000001C000
000000C000
000000E000
0000006000
0000003000
0000003000
0000003800
0000001800
0000001800
0000000C00
0000000E00
0000000600
0000000700
0000000300
0000000180
0000000180
0000000180
0000000000
0000000000
ENDCHAR

STARTCHAR chs_A1B5
ENCODING 41397
SWIDTH 960 0
DWIDTH 40 0
BBX 40 40 0 -6
BITMAP
0000000000
0180000000
0180000000
0180000000
00C0000000
00C0000000
0060000000
0070000000
0030000000
0038000000
0018000000
001C000000
000C000000
000C000000
0006000000
0006000000
0003000000
0003800000
0001800000
0001C00000
0001800000
0003800000
0003000000
0007000000
0006000000
000C000000
000C000000
001C000000
0018000000
0018000000
0030000000
0070000000
0060000000
00E0000000
00C0000000
0180000000
0180000000
0180000000
0000000000
0000000000
ENDCHAR

STARTCHAR chs_A1B6
ENCODING 41398
SWIDTH 960 0
DWIDTH 40 0
BBX 40 40 0 -6
BITMAP
0000000000
000000020C
000000070C
000000060C
0000000C18
0000000C18
0000001830
0000001870
0000003860
00000030E0
00000070C0
00000061C0
000000E180
000000C180
0000018300
0000018300
0000030600
0000030E00
0000070C00
0000061C00
0000070C00
0000030E00
0000030600
0000018700
0000018300
000000C180
000000C180
00000061C0
00000070C0
00000030C0
0000003860
0000001870
0000001830
0000000C38
0000000C18
000000060C
000000060C
000000030C
0000000200
0000000000
ENDCHAR

STARTCHAR chs_A1B7
ENCODING 41399
SWIDTH 960 0
DWIDTH 40 0
BBX 40 40 0 -6
BITMAP
0000000000
3040000000
30E0000000
3060000000
1830000000
1830000000
0C18000000
0E18000000
061C000000
070C000000
030E000000
0386000000
0187000000
0183000000
00C1800000
00C1800000
0060C00000
0070C00000
0030E00000
0038600000
0030E00000
0070C00000
0060C00000
00E1800000
00C1800000
0183000000
0183000000
0386000000
038E000000
030C000000
061C000000
0E18000000
0C18000000
1C30000000
1830000000
3060000000
3060000000
30C0000000
0040000000
0000000000
ENDCHAR

STARTCHAR chs_A1B8
ENCODING 41400
SWIDTH 960 0
DWIDTH 40 0
BBX 40 40 0 -6
BITMAP
0000000000
0000007FF0
0000007FF8
0000007FF0
0000006000
0000006000
0000006000
0000006000
0000006000
0000006000
0000006000
0000006000
0000006000
0000006000
0000006000
0000006000
0000006000
0000006000
0000006000
0000006000
0000006000
0000006000
0000006000
0000006000
0000006000
0000006000
0000006000
0000006000
0000006000
0000006000
0000006000
0000006000
0000006000
0000006000
0000000000
0000000000
0000000000
0000000000
0000000000
0000000000
ENDCHAR

STARTCHAR chs_A1B9
ENCODING 41401
SWIDTH 960 0
DWIDTH 40 0
BBX 40 40 0 -6
BITMAP
0000000000
0000000000
0000000000
0000000000
0000000000
0000000000
0006000000
0006000000
0006000000
0006000000
0006000000
0006000000
0006000000
0006000000
0006000000
0006000000
0006000000
0006000000
0006000000
0006000000
0006000000
0006000000
0006000000
0006000000
0006000000
0006000000
0006000000
0006000000
0006000000
0006000000
0006000000
0006000000
0006000000
0006000000
0006000000
0006000000
0FFE000000
1FFE000000
0FFE000000
0000000000
ENDCHAR

STARTCHAR chs_A1BA
ENCODING 41402
SWIDTH 960 0
DWIDTH 40 0
BBX 40 40 0 -6
BITMAP
0000000000
000000FFF0
000001FFF8
000001FFF8
0000018018
0000018018
0000019FF8
0000019FF8
0000019800
0000019800
0000019800
0000019800
0000019800
0000019800
0000019800
0000019800
0000019800
0000019800
0000019800
0000019800
0000019800
0000019800
0000019800
0000019800
0000019800
0000019800
0000019800
0000019800
0000019800
0000019800
0000019800
000001F800
000001F800
000000F800
0000000000
0000000000
0000000000
0000000000
0000000000
0000000000
ENDCHAR

STARTCHAR chs_A1BB
ENCODING 41403
SWIDTH 960 0
DWIDTH 40 0
BBX 40 40 0 -6
BITMAP
0000000000
0000000000
0000000000
0000000000
0000000000
0000000000
001F000000
001F800000
001F800000
0019800000
0019800000
0019800000
0019800000
0019800000
0019800000
0019800000
0019800000
0019800000
0019800000
0019800000
0019800000
0019800000
0019800000
0019800000
0019800000
0019800000
0019800000
0019800000
0019800000
0019800000
0019800000
0019800000
1FF9800000
1FF9800000
1801800000
1801800000
1FFF800000
1FFF800000
0FFF000000
0000000000
ENDCHAR

STARTCHAR chs_A1BC
ENCODING 41404
SWIDTH 960 0
DWIDTH 40 0
BBX 40 40 0 -6
BITMAP
0000000000
0000000000
000001FFF8
000001FFF8
00000180E0
00000181C0
0000018380
0000018300
0000018600
0000018600
0000018C00
0000018C00
0000019C00
0000019800
0000019800
0000019800
0000019800
0000019800
0000019800
0000019800
0000019800
0000019800
0000019800
0000019800
0000019800
0000019800
0000019800
0000019C00
0000018C00
0000018C00
0000018600
0000018600
0000018300
0000018380
00000181C0
00000180E0
000001FFF8
000001FFF8
0000000000
0000000000
ENDCHAR

STARTCHAR chs_A1BD
ENCODING 41405
SWIDTH 960 0
DWIDTH 40 0
BBX 40 40 0 -6
BITMAP
0000000000
0000000000
1FFF800000
1FFF800000
0701800000
0381800000
01C1800000
00C1800000
0061800000
0061800000
0031800000
0031800000
0039800000
0019800000
0019800000
0019800000
0019800000
0019800000
0019800000
0019800000
0019800000
0019800000
0019800000
0019800000
0019800000
0019800000
0019800000
0039800000
0031800000
0031800000
0061800000
0061800000
00C1800000
01C1800000
0381800000
0701800000
1FFF800000
1FFF800000
0000000000
0000000000
ENDCHAR

STARTCHAR chs_A1BE
ENCODING 41406
SWIDTH 960 0
DWIDTH 40 0
BBX 40 40 0 -6
BITMAP
0000000000
0000000000
000001FFF8
000001FFF0
000001FFC0
000001FF80
000001FF00
000001FE00
000001FC00
000001FC00
000001F800
000001F800
000001F800
000001F800
000001F800
000001F000
000001F000
000001F000
000001F000
000001F000
000001F000
000001F000
000001F000
000001F000
000001F000
000001F800
000001F800
000001F800
000001F800
000001F800
000001FC00
000001FC00
000001FE00
000001FF00
000001FF80
000001FFC0
000001FFF0
000001FFF8
0000000000
0000000000
ENDCHAR

STARTCHAR chs_A1BF
ENCODING 41407
SWIDTH 960 0
DWIDTH 40 0
BBX 40 40 0 -6
BITMAP
0000000000
0000000000
1FFF800000
0FFF800000
03FF800000
01FF800000
00FF800000
007F800000
003F800000
003F800000
001F800000
001F800000
001F800000
001F800000
001F800000
000F800000
000F800000
000F800000
000F800000
000F800000
000F800000
000F800000
000F800000
000F800000
000F800000
001F800000
001F800000
001F800000
001F800000
001F800000
003F800000
003F800000
007F800000
00FF800000
01FF800000
03FF800000
0FFF800000
1FFF800000
0000000000
0000000000
ENDCHAR

STARTCHAR chs_A1C0
ENCODING 41408
SWIDTH 960 0
DWIDTH 40 0
BBX 40 40 0 -6
BITMAP
0000000000
0000000000
0000000000
0000000000
0000000000
0000180000
0000180000
0000180000
0000180000
0000180000
0000180000
0000180000
0000180000
0000180000
0000180000
0000180000
01FFFFFFC0
01FFFFFF80
0000180000
0000180000
0000180000
0000180000
0000180000
0000180000
0000180000
0000180000
0000180000
0000180000
0000180000
0000000000
0000000000
00FFFFFF80
01FFFFFFC0
00FFFFFF80
0000000000
0000000000
0000000000
0000000000
0000000000
0000000000
ENDCHAR

STARTCHAR chs_A1C1
ENCODING 41409
SWIDTH 960 0
DWIDTH 40 0
BBX 40 40 0 -6
BITMAP
0000000000
0000000000
0000000000
0000000000
0000000000
03000000C0
03800001C0
01C0000380
00E0000700
0070000E00
0038001C00
001C003800
000E007000
000700E000
000381C000
0001C38000
0000E70000
00007E0000
00003C0000
00003C0000
00007E0000
0000E70000
0001C38000
000381C000
000700E000
000E007000
001C003800
0038001C00
0070000E00
00E0000700
01C0000380
03800001C0
07000000E0
0600000060
0000000000
0000000000
0000000000
0000000000
0000000000
0000000000
ENDCHAR

STARTCHAR chs_A1C2
ENCODING 41410
SWIDTH 960 0
DWIDTH 40 0
BBX 40 40 0 -6
BITMAP
0000000000
0000000000
0000000000
0000000000
0000000000
0000000000
0000180000
00007E0000
00007E0000
0000FF0000
0000FF0000
00007E0000
00007E0000
0000180000
0000000000
0000000000
0000000000
0000000000
0000000000
03FFFFFFC0
03FFFFFFC0
0000000000
0000000000
0000000000
0000000000
0000000000
0000180000
00007E0000
00007E0000
0000FF0000
0000FF0000
00007E0000
00007E0000
0000180000
0000000000
0000000000
0000000000
0000000000
0000000000
0000000000
ENDCHAR

STARTCHAR chs_A1C3
ENCODING 41411
SWIDTH 960 0
DWIDTH 40 0
BBX 40 40 0 -6
BITMAP
0000000000
0000000000
0000000000
0000000000
0000000000
0000000000
0000180000
00007E0000
00007E0000
0000FF0000
0000FF0000
00007E0000
00007E0000
0000180000
0000000000
0000000000
0000000000
0000000000
0000000000
0000000000
0000000000
0000000000
0000000000
0000000000
0000000000
0000000000
0000180000
00007E0000
00007E0000
0000FF0000
0000FF0000
00007E0000
00007E0000
0000180000
0000000000
0000000000
0000000000
0000000000
0000000000
0000000000
ENDCHAR

STARTCHAR chs_A1C4
ENCODING 41412
SWIDTH 960 0
DWIDTH 40 0
BBX 40 40 0 -6
BITMAP
0000000000
0000000000
0000000000
0000100000
0000100000
0000380000
0000380000
00006C0000
00006E0000
0000E60000
0000C70000
0001C30000
0001830000
0003018000
0003018000
000600C000
000600C000
000C006000
000C007000
001C003000
0018003800
0038001800
0030001800
0060000C00
0060000C00
00C0000600
00C0000600
0180000300
0180000380
0380000180
03000001C0
07000000C0
06000000C0
0C00000060
0400000060
0000000000
0000000000
0000000000
0000000000
0000000000
ENDCHAR

STARTCHAR chs_A1C5
ENCODING 41413
SWIDTH 960 0
DWIDTH 40 0
BBX 40 40 0 -6
BITMAP
0000000000
0000000000
0000000000
0400000040
0C00000060
06000000C0
06000000C0
03000001C0
0300000180
0380000180
0180000300
01C0000700
00C0000600
0060000E00
0060000C00
0030001800
0030001800
0018003800
0018003000
001C003000
000C006000
000E00E000
000600C000
000301C000
0003018000
0001830000
0001830000
0000C70000
0000C60000
0000E60000
00006C0000
00007C0000
0000380000
0000180000
0000100000
0000000000
0000000000
0000000000
0000000000
0000000000
ENDCHAR

STARTCHAR chs_A1C6
ENCODING 41414
SWIDTH 960 0
DWIDTH 40 0
BBX 40 40 0 -6
BITMAP
0000000000
0000000000
0000000000
01FFFFFF80
03FFFFFF80
01C0000380
00E0000180
0078000180
0038000180
001C000180
000E000000
0007000000
0003C00000
0001C00000
0000E00000
0000700000
0000380000
00001E0000
00000E0000
00000C0000
0000180000
0000300000
0000600000
0000C00000
0001800000
0003000000
00060000C0
000C0000C0
00180000C0
00300001C0
00600001C0
00C00001C0
01FFFFFFC0
03FFFFFFC0
03FFFFFFC0
0000000000
0000000000
0000000000
0000000000
0000000000
ENDCHAR

STARTCHAR chs_A1C7
ENCODING 41415
SWIDTH 960 0
DWIDTH 40 0
BBX 40 40 0 -6
BITMAP
0000000000
0000000000
0000000000
03FFFFFF80
0060000C00
0060000C00
0060000C00
0060000C00
0060000C00
0060000C00
0060000C00
0060000C00
0060000C00
0060000C00
0060000C00
0060000C00
0060000C00
0060000C00
0060000C00
0060000C00
0060000C00
0060000C00
0060000C00
0060000C00
0060000C00
0060000C00
0060000C00
0060000C00
0060000C00
0060000C00
0060000C00
0060000C00
0060000C00
0060000C00
03FC007FC0
0000000000
0000000000
0000000000
0000000000
0000000000
ENDCHAR

STARTCHAR chs_A1C8
ENCODING 41416
SWIDTH 960 0
DWIDTH 40 0
BBX 40 40 0 -6
BITMAP
0000000000
0000000000
0000000000
00C0000600
00C0000600
00C0000600
00C0000600
00C0000600
00C0000600
00C0000600
00C0000600
00C0000600
00C0000600
00C0000600
00C0000600
00C0000600
00C0000600
00C0000600
00C0000600
00C0000600
00C0000600
00C0000600
00C0000600
00C0000600
00C0000600
00C0000600
00C0000600
00C0000600
00C0000600
00C0000600
0060000C00
0060000C00
0030001800
0038003800
001E00F000
0007FFC000
0003FF0000
0000000000
0000000000
0000000000
ENDCHAR

STARTCHAR chs_A1C9
ENCODING 41417
SWIDTH 960 0
DWIDTH 40 0
BBX 40 40 0 -6
BITMAP
0000000000
0000000000
0000000000
0001FF0000
0007FFC000
001E00F000
0038003800
0030001800
0060000C00
0060000C00
00C0000600
00C0000600
00C0000600
00C0000600
00C0000600
00C0000600
00C0000600
00C0000600
00C0000600
00C0000600
00C0000600
00C0000600
00C0000600
00C0000600
00C0000600
00C0000600
00C0000600
00C0000600
00C0000600
00C0000600
00C0000600
00C0000600
00C0000600
00C0000600
00C0000600
00C0000600
00C0000600
0000000000
0000000000
0000000000
ENDCHAR

STARTCHAR chs_A1CA
ENCODING 41418
SWIDTH 960 0
DWIDTH 40 0
BBX 40 40 0 -6
BITMAP
0000000000
0000000000
000000F800
000003F800
00000F8000
00003C0000
0000700000
0000C00000
0001800000
0003000000
0006000000
0006000000
000C000000
000C000000
001C000000
001C000000
0018000000
0018000000
0018000000
001FFFF800
001FFFF800
0018000000
0018000000
0018000000
001C000000
001C000000
000C000000
000C000000
0006000000
0006000000
0003000000
0001800000
0000C00000
0000700000
00003C0000
00000F8000
000003F800
000000F800
0000000000
0000000000
ENDCHAR

STARTCHAR chs_A1CB
ENCODING 41419
SWIDTH 960 0
DWIDTH 40 0
BBX 40 40 0 -6
BITMAP
0000000000
0000000000
0000000000
0000000000
0000000000
0000000000
0070001C00
00F8003E00
01FC007F00
01FC007F00
01FC007F00
01FC007F00
00F8003E00
0070001C00
0000000000
0000000000
0000000000
0000000000
0000000000
0000000000
0000000000
0000000000
0000000000
0000000000
0000000000
0000000000
0070001C00
00F8003E00
01FC007F00
01FC007F00
01FC007F00
01FC007F00
00F8003E00
0070001C00
0000000000
0000000000
0000000000
0000000000
0000000000
0000000000
ENDCHAR

STARTCHAR chs_A1CC
ENCODING 41420
SWIDTH 960 0
DWIDTH 40 0
BBX 40 40 0 -6
BITMAP
0000000000
0000000000
0000000000
0000000000
0000000000
0000000000
000000001C
0000000018
0000000030
0000000060
0000000040
00000000C0
0000000180
0000000180
0000000300
0000000200
0000000600
0000000C00
0000001800
0000003800
0000003000
0000007000
0600006000
0F0000C000
1F80018000
33C0010000
61E0030000
20F0060000
0078060000
003C0C0000
001E080000
000F180000
0007F00000
0003E00000
0001E00000
0000C00000
0000000000
0000000000
0000000000
0000000000
ENDCHAR

STARTCHAR chs_A1CD
ENCODING 41421
SWIDTH 960 0
DWIDTH 40 0
BBX 40 40 0 -6
BITMAP
0000000000
0000000000
0000000000
0000180000
0000180000
0000180000
0000180000
0000180000
0000180000
0000180000
0000180000
0000180000
0000180000
0000180000
0000180000
0000180000
0000180000
0000180000
0000180000
0000180000
0000180000
0000180000
0000180000
0000180000
0000180000
0000180000
0000180000
0000180000
0000180000
0000180000
0000180000
0000180000
0000180000
0000180000
03FFFFFFC0
03FFFFFFC0
0000000000
0000000000
0000000000
0000000000
ENDCHAR

STARTCHAR chs_A1CE
ENCODING 41422
SWIDTH 960 0
DWIDTH 40 0
BBX 40 40 0 -6
BITMAP
0000000000
0000000000
0000000000
0000600C00
0000600C00
0000600C00
0000600800
0000E01800
0000E01800
0000C01800
0000C03800
0000C03800
0000C03000
0001803000
0001803000
0001803000
0003006000
0003006000
0003006000
0002004000
000600C000
000600C000
000600C000
000C018000
000C018000
000C018000
000C010000
001C030000
001C030000
0018030000
0018070000
0018070000
0018060000
0030060000
0030060000
0000000000
0000000000
0000000000
0000000000
0000000000
ENDCHAR

STARTCHAR chs_A1CF
ENCODING 41423
SWIDTH 960 0
DWIDTH 40 0
BBX 40 40 0 -6
BITMAP
0000000000
0000000000
0000000000
0000000000
0000000000
0000000060
00000000E0
00000001C0
0000000380
0000000700
0000000E00
0000001C00
0000003800
0000007000
000000E000
000001C000
0000038000
0000070000
00000E0000
00001C0000
0000380000
0000700000
0000E00000
0001C00000
0003800000
0007000000
000E000000
001C000000
0038000000
0070000000
00E0000000
01C0000000
0380000000
07FFFFFFF0
0FFFFFFFF0
0000000000
0000000000
0000000000
0000000000
0000000000
ENDCHAR

STARTCHAR chs_A1D0
ENCODING 41424
SWIDTH 960 0
DWIDTH 40 0
BBX 40 40 0 -6
BITMAP
0000000000
0000000000
0000000000
0000000000
0000000000
0000000000
0000000000
0000000000
00007E0000
0003FFC000
000F81F000
003C003C00
0078001E00
00E0000700
01C0000380
03800001C0
03000000C0
07000000E0
0600000060
0C00000030
0C00000030
0C00000030
1800000018
1800000018
1800000018
1800000018
0000000000
0000000000
0000000000
0000000000
0000000000
0000000000
0000000000
0000000000
0000000000
0000000000
0000000000
0000000000
0000000000
0000000000
ENDCHAR

STARTCHAR chs_A1D1
ENCODING 41425
SWIDTH 960 0
DWIDTH 40 0
BBX 40 40 0 -6
BITMAP
0000000000
0000000000
0000000000
00007E0000
0003FFC000
000F81F000
003C003C00
0078001E00
00E0000700
01C0000380
03800001C0
03000000C0
07000000E0
0600000060
0C00000030
0C00000030
0C007E0030
1800FF0018
1800FF0018
1800FF0018
1800FF0018
1800FF0018
1800FF0018
0C007E0030
0C00000030
0C00000030
0600000060
07000000E0
03000000C0
03800001C0
01C0000380
00E0000700
0078001E00
003C003C00
000F00F000
0003FFC000
00007E0000
0000000000
0000000000
0000000000
ENDCHAR

STARTCHAR chs_A1D2
ENCODING 41426
SWIDTH 960 0
DWIDTH 40 0
BBX 40 40 0 -6
BITMAP
0000000000
0000000000
000003C000
00000FF000
00001C3800
0000183800
0000383800
0000383800
0000383800
0000380000
0000380000
0000380000
0000380000
0000380000
0000380000
0000380000
0000380000
0000380000
0000380000
0000380000
0000380000
0000380000
0000380000
0000380000
0000380000
0000380000
0000380000
0000380000
0000380000
0000380000
0000380000
0010380000
0038300000
003C700000
0038600000
0038E00000
001FC00000
000F000000
0000000000
0000000000
ENDCHAR

STARTCHAR chs_A1D3
ENCODING 41427
SWIDTH 960 0
DWIDTH 40 0
BBX 40 40 0 -6
BITMAP
0000000000
0000000000
000003C000
000007F000
00000C3800
0000183800
0000183800
0000383800
0000381000
0000380000
0000380000
0000380000
0000380000
0000FE0000
0003398000
000638C000
000C386000
000C387000
001C383000
001C383000
001C383000
001C383000
000C387000
000C386000
000638C000
0003398000
0000FE0000
0000380000
0000380000
0000380000
0000380000
0010380000
0038380000
003C380000
0038300000
001C600000
000FC00000
0007C00000
0000000000
0000000000
ENDCHAR

STARTCHAR chs_A1D4
ENCODING 41428
SWIDTH 960 0
DWIDTH 40 0
BBX 40 40 0 -6
BITMAP
0000000000
0000000000
0000000000
0000000000
0000000000
0000000000
0000000000
0000000000
0000000000
0000000000
0000000000
07FFFFFFE0
07FFFFFFE0
07FFFFFFE0
0000000000
0000000000
0000000000
0000000000
0000000000
07FFFFFFE0
07FFFFFFE0
0000000000
0000000000
0000000000
0000000000
0000000000
07FFFFFFE0
07FFFFFFE0
07FFFFFFE0
0000000000
0000000000
0000000000
0000000000
0000000000
0000000000
0000000000
0000000000
0000000000
0000000000
0000000000
ENDCHAR

STARTCHAR chs_A1D5
ENCODING 41429
SWIDTH 960 0
DWIDTH 40 0
BBX 40 40 0 -6
BITMAP
0000000000
0000000000
0000000000
0000000000
0000000000
0000000000
00E0003E00
03F000FF80
07E003FFC0
0C00078060
08000E0030
18001C0030
1800380030
1800700030
1800E00060
0C03C00060
0FFF000FC0
07FC001F80
01F0000E00
0000000000
0000000000
0000000000
0000000000
0000000000
1FFFFFFFF8
1FFFFFFFF8
0000000000
0000000000
0000000000
0000000000
0000000000
0000000000
1FFFFFFFF8
1FFFFFFFF8
0000000000
0000000000
0000000000
0000000000
0000000000
0000000000
ENDCHAR

STARTCHAR chs_A1D6
ENCODING 41430
SWIDTH 960 0
DWIDTH 40 0
BBX 40 40 0 -6
BITMAP
0000000000
0000000000
0000000000
0000000000
0000000000
0000000000
0000000000
0000000000
0000000000
0000000000
0000000000
01FF000000
07FFC00004
0F01F00008
18003C0018
10000F0070
200003FFE0
000001FF80
0000007E00
0000000000
0000000000
01FF000000
07FFC00004
0F01F00008
18003C0018
10000F0070
200003FFE0
000001FF80
0000007E00
0000000000
0000000000
0000000000
0000000000
0000000000
0000000000
0000000000
0000000000
0000000000
0000000000
0000000000
ENDCHAR

STARTCHAR chs_A1D7
ENCODING 41431
SWIDTH 960 0
DWIDTH 40 0
BBX 40 40 0 -6
BITMAP
0000000000
0000000000
0000000000
0000000000
0000000000
0000000000
0000000000
0000000000
0000000000
0000000000
0000000000
0000000000
0000000000
0000000000
00F8003F80
03F8007FE0
070001E0F0
0600038038
0C00060018
0C000C0018
0C00180018
0C00700038
0E01C00030
07078000F0
03FE000FE0
00F8000F80
0000000000
0000000000
0000000000
0000000000
0000000000
0000000000
0000000000
0000000000
0000000000
0000000000
0000000000
0000000000
0000000000
0000000000
ENDCHAR

STARTCHAR chs_A1D8
ENCODING 41432
SWIDTH 960 0
DWIDTH 40 0
BBX 40 40 0 -6
BITMAP
0000000000
0000000000
0000000000
0000000000
0000000000
0000000000
0000000000
0000000000
0000000000
0000000000
0000000000
0000000000
0000000000
01FC001FE0
03FF003FF8
0703C0F018
0C00E1C000
1C00730000
18001E0000
18001C0000
18001E0000
1C00330000
0C00E3C000
0F03C0F018
07FF007FF8
01FC001FE0
0000000000
0000000000
0000000000
0000000000
0000000000
0000000000
0000000000
0000000000
0000000000
0000000000
0000000000
0000000000
0000000000
0000000000
ENDCHAR

STARTCHAR chs_A1D9
ENCODING 41433
SWIDTH 960 0
DWIDTH 40 0
BBX 40 40 0 -6
BITMAP
0000000000
0000003800
0000003000
0000003000
0000006000
0000006000
000000C000
000001C000
0000018000
0000038000
0000030000
0FFFFFFFF0
1FFFFFFFF8
0FFFFFFFF0
00000C0000
00000C0000
0000180000
0000380000
0000300000
0000700000
0000600000
0000E00000
0000C00000
0000C00000
1FFFFFFFF8
1FFFFFFFF8
0003000000
0007000000
0006000000
000E000000
000C000000
001C000000
0018000000
0018000000
0030000000
0030000000
0060000000
00E0000000
0040000000
0000000000
ENDCHAR

STARTCHAR chs_A1DA
ENCODING 41434
SWIDTH 960 0
DWIDTH 40 0
BBX 40 40 0 -6
BITMAP
0000000000
0000180000
0000180000
0000180000
0000180000
0000180000
0000180000
0000180000
0000180030
00001801F0
00001807C0
000018FE00
00001BF000
00001FC000
0000780000
0001F80000
003F980000
01FC180000
07E0180000
1E00180000
0780180000
01F8180000
007F180000
000FD80000
0000F80000
00001F0000
00001BF000
000018FE00
0000181F80
00001801F0
0000180030
0000180000
0000180000
0000180000
0000180000
0000180000
0000180000
0000000000
0000000000
0000000000
ENDCHAR

STARTCHAR chs_A1DB
ENCODING 41435
SWIDTH 960 0
DWIDTH 40 0
BBX 40 40 0 -6
BITMAP
0000000000
0000180000
0000180000
0000180000
0000180000
0000180000
0000180000
0000180000
0C00180000
0F80180000
03E0180000
007F180000
000FD80000
0003F80000
00001F0000
00001FC000
000018FE00
0000181F80
00001807F0
000018007C
00001801F0
0000181F80
000018FE00
00001BF000
00001F0000
0000F80000
000FD80000
007F180000
01F8180000
0F80180000
0C00180000
0000180000
0000180000
0000180000
0000180000
0000180000
0000180000
0000000000
0000000000
0000000000
ENDCHAR

STARTCHAR chs_A1DC
ENCODING 41436
SWIDTH 960 0
DWIDTH 40 0
BBX 40 40 0 -6
BITMAP
0000000000
0000000000
0000000000
0000000000
0000000000
0000000010
00000003F0
0000001FC0
0000007E00
000003E000
00000F0000
0001FC0000
000FE00000
003F000000
01F0000000
0780000000
1F80000000
07F0000000
00FC000000
000F800000
0001F00000
00007F0000
10000FE000
1E0001F800
0780001F00
01F00003E0
003F0000F0
000FE00010
0001FC0000
00000F0000
000003E000
0000007E00
0000001FC0
00000003F0
0000000010
0000000000
0000000000
0000000000
0000000000
0000000000
ENDCHAR

STARTCHAR chs_A1DD
ENCODING 41437
SWIDTH 960 0
DWIDTH 40 0
BBX 40 40 0 -6
BITMAP
0000000000
0000000000
0000000000
0000000000
0000000000
0800000000
0FC0000000
03F8000000
007E000000
0007C00000
0000F00000
00003F8000
000007F000
000000FC00
0000000F80
00000001E0
00000001F8
0000000FE0
0000003F00
000001F000
00000F8000
0000FE0000
0007F00008
001F800078
00F80001E0
07C0000F80
0F0000FC00
080007F000
00003F8000
0000F00000
0007C00000
007E000000
03F8000000
0FC0000000
0800000000
0000000000
0000000000
0000000000
0000000000
0000000000
ENDCHAR

STARTCHAR chs_A1DE
ENCODING 41438
SWIDTH 960 0
DWIDTH 40 0
BBX 40 40 0 -6
BITMAP
0000000000
0000000000
0000000000
0000000000
0000000000
0000000000
0000000000
0000000000
0000000000
0000000000
0000000000
0000000000
0000000000
01F8001F80
07FE007FE0
0E0781E070
1C01C38018
380066001C
30003C000C
300018000C
30003C000C
380066001C
1C01C38018
0E0781E070
07FE007FE0
03FC003FC0
0000000000
0000000000
0000000000
0000000000
0000000000
0000000000
0000000000
0000000000
0000000000
0000000000
0000000000
0000000000
0000000000
0000000000
ENDCHAR

STARTCHAR chs_A1DF
ENCODING 41439
SWIDTH 960 0
DWIDTH 40 0
BBX 40 40 0 -6
BITMAP
0000000000
0000000000
0000000000
0000000000
0000000000
0000000000
0000000000
00F0000F00
01F8001F80
03FC003FC0
03FC003FC0
03FC003FC0
01F8001F80
00F0000F00
0000000000
0000000000
0000000000
0000000000
0000000000
0000000000
0000000000
0000000000
0000000000
0000000000
0000000000
0000000000
00003C0000
00007E0000
0000FF0000
0000FF0000
0000FF0000
00007E0000
00003C0000
0000000000
0000000000
0000000000
0000000000
0000000000
0000000000
0000000000
ENDCHAR

STARTCHAR chs_A1E0
ENCODING 41440
SWIDTH 960 0
DWIDTH 40 0
BBX 40 40 0 -6
BITMAP
0000000000
0000000000
0000000000
0000000000
0000000000
0000000000
0000180000
00007E0000
00007E0000
0000FF0000
0000FF0000
00007E0000
00007E0000
0000180000
0000000000
0000000000
0000000000
0000000000
0000000000
0000000000
0000000000
0000000000
0000000000
0000000000
0000000000
00F0000F00
01F8001F80
03FC003FC0
03FC003FC0
03FC003FC0
01F8001F80
00F0000F00
0000000000
0000000000
0000000000
0000000000
0000000000
0000000000
0000000000
0000000000
ENDCHAR

STARTCHAR chs_A1E1
ENCODING 41441
SWIDTH 960 0
DWIDTH 40 0
BBX 40 40 0 -6
BITMAP
0000000000
0000180000
00003C0000
00007E0000
0000FF0000
0001DB8000
000399C000
000718E000
000E187000
001C183800
0018181800
0000180000
0000180000
0000180000
0000180000
0000180000
0000180000
0000180000
0000180000
0000180000
0000180000
00003C0000
0000FF0000
0001FF8000
000300C000
0006006000
0006006000
000C003000
000C003000
000C003000
000C003000
000E007000
0006006000
000300C000
0001C38000
0000FF0000
00007E0000
0000000000
0000000000
0000000000
ENDCHAR

STARTCHAR chs_A1E2
ENCODING 41442
SWIDTH 960 0
DWIDTH 40 0
BBX 40 40 0 -6
BITMAP
0000000000
00003C0000
0000FF0000
0001FF8000
000300C000
0006006000
0006006000
000C003000
000C003000
000C003000
000C003000
000C003000
000C003000
0006006000
0006006000
000300C000
0001FF8000
0000FF0000
00003C0000
0000180000
0000180000
0000180000
01FFFFFF80
03FFFFFFC0
0000180000
0000180000
0000180000
0000180000
0000180000
0000180000
0000180000
0000180000
0000180000
0000180000
0000180000
0000180000
0000180000
0000000000
0000000000
0000000000
ENDCHAR

STARTCHAR chs_A1E3
ENCODING 41443
SWIDTH 960 0
DWIDTH 40 0
BBX 40 40 0 -6
BITMAP
0000000000
0000000000
0000000000
0078000000
01FC000000
0386000000
0303000000
0701800000
0601800000
0601800000
0601800000
0203000000
0307000000
01FE000000
0078000000
0000000000
0000000000
0000000000
0000000000
0000000000
0000000000
0000000000
0000000000
0000000000
0000000000
0000000000
0000000000
0000000000
0000000000
0000000000
0000000000
0000000000
0000000000
0000000000
0000000000
0000000000
0000000000
0000000000
0000000000
0000000000
ENDCHAR

STARTCHAR chs_A1E4
ENCODING 41444
SWIDTH 960 0
DWIDTH 40 0
BBX 40 40 0 -6
BITMAP
0000000000
0000000000
00C0000000
01E0000000
01E0000000
03C0000000
03C0000000
0380000000
0380000000
0700000000
0700000000
0E00000000
1C00000000
1800000000
3000000000
0000000000
0000000000
0000000000
0000000000
0000000000
0000000000
0000000000
0000000000
0000000000
0000000000
0000000000
0000000000
0000000000
0000000000
0000000000
0000000000
0000000000
0000000000
0000000000
0000000000
0000000000
0000000000
0000000000
0000000000
0000000000
ENDCHAR

STARTCHAR chs_A1E5
ENCODING 41445
SWIDTH 960 0
DWIDTH 40 0
BBX 40 40 0 -6
BITMAP
0000000000
0000000000
00C1800000
01E3C00000
01E3C00000
03C7800000
03C7800000
038F000000
038E000000
071E000000
071C000000
0E18000000
1C38000000
1820000000
3040000000
0000000000
0000000000
0000000000
0000000000
0000000000
0000000000
0000000000
0000000000
0000000000
0000000000
0000000000
0000000000
0000000000
0000000000
0000000000
0000000000
0000000000
0000000000
0000000000
0000000000
0000000000
0000000000
0000000000
0000000000
0000000000
ENDCHAR

STARTCHAR chs_A1E6
ENCODING 41446
SWIDTH 960 0
DWIDTH 40 0
BBX 40 40 0 -6
BITMAP
0000000000
0000000000
0000000000
0000000000
0380000000
044007F000
08201E1E40
1010780FC0
10107003C0
1010E001C0
0821C000C0
07C38000C0
0383800040
0007000040
0007000000
0006000000
000E000000
000E000000
000E000000
000E000000
000E000000
000E000000
000E000000
000E000000
000E000000
000E000000
0006000000
0007000020
0003000020
0003000060
0001800040
00018000C0
0000C00180
0000600300
0000380E00
00000E3800
000003F000
0000000000
0000000000
0000000000
ENDCHAR

STARTCHAR chs_A1E7
ENCODING 41447
SWIDTH 960 0
DWIDTH 40 0
BBX 40 40 0 -6
BITMAP
0000000000
0000180000
0000180000
0000180000
0000180000
0001FF3000
00039BF000
000F18F000
000E187000
001C183000
001C183000
001C181000
001C180000
001C180000
001C180000
001E180000
000F180000
0007D80000
0003FC0000
00007F0000
00001F8000
00001BE000
000018F000
0000187800
0000183800
0000183800
0010183800
0010183800
0018183800
0018183800
001C183800
001C183000
001F187000
001FD9C000
0010FF8000
0010180000
0000180000
0000180000
0000180000
0000000000
ENDCHAR

STARTCHAR chs_A1E8
ENCODING 41448
SWIDTH 960 0
DWIDTH 40 0
BBX 40 40 0 -6
BITMAP
0000000000
0000000000
0000000000
300000000C
1800000018
0C00FF0030
0607FFE060
031F81F8C0
01BC003D80
00E0000700
00C0000300
0180000180
0180000180
03800001C0
03000000C0
03000000C0
07000000E0
0600000060
0600000060
0600000060
0600000060
0600000060
0600000060
07000000E0
03000000C0
03000000C0
03800001C0
0180000180
0180000180
00C0000300
0060000600
00FC003F00
019F81F980
0307FFE0C0
0600FF0060
0C00000030
1800000018
300000000C
0000000000
0000000000
ENDCHAR

STARTCHAR chs_A1E9
ENCODING 41449
SWIDTH 960 0
DWIDTH 40 0
BBX 40 40 0 -6
BITMAP
0000000000
0000000200
0000000700
0000000600
0000000C00
00003F8800
0003E0F980
0007803D80
000E003F80
001C003380
001C006180
0038006180
003800C180
003000C180
0070018000
0060010000
0060030000
00E0030000
00E0060000
00E0060000
00E00C0000
00E00C0000
00E0180000
00E0180000
00E0300000
0060200000
00606000C0
00706000C0
0030C000C0
0038C00180
0019800180
001D800300
000F000700
0007000E00
0007803C00
0004F07000
000C3FC000
000C000000
0018000000
0018000000
ENDCHAR

STARTCHAR chs_A1EA
ENCODING 41450
SWIDTH 960 0
DWIDTH 40 0
BBX 40 40 0 -6
BITMAP
0000000000
0000000000
0000000000
00000F8000
000030E000
0000607000
0000E07800
0000E07000
0000E02000
0000E00000
0000E00000
0000E00000
0000E00000
0000E00000
0000E00000
0000E00000
001FFF0000
001FFF0000
001FFF0000
0000E00000
0000E00000
0000E00000
0000E00000
0000E00000
0000E00000
0000E00000
001FE00000
003FE00000
0030E00040
0060700040
00607800C0
00606E00C0
0070670180
0030E3C180
0038C1FF00
000F00FE00
0000003C00
0000000000
0000000000
0000000000
ENDCHAR

STARTCHAR chs_A1EB
ENCODING 41451
SWIDTH 960 0
DWIDTH 40 0
BBX 40 40 0 -6
BITMAP
0000000000
0000000000
0000006000
000000C000
07C0018000
0C60010000
1830030000
1830060000
1830060000
18300C0000
1830080000
1830180000
1830300000
1830600000
1830E00000
1830C00000
1831C00000
1831800000
1833000000
0C66000000
07C43F03E0
000C638630
0018E18C18
0018E18C18
0030E18C18
0020E18C18
0060E18C18
00C0E18C18
0180E18C18
0380E18C18
0300E18C18
0700E18C18
0600E18C18
0C00E18C18
1800E18C18
1000730630
30003E03E0
2000000000
0000000000
0000000000
ENDCHAR

STARTCHAR chs_A1EC
ENCODING 41452
SWIDTH 960 0
DWIDTH 40 0
BBX 40 40 0 -6
BITMAP
0000000000
00003E0000
0000FF8000
000181C000
0001006000
0003006000
0003007000
0003006000
0003800000
0001800000
0000C00000
0000780000
0000FE0000
00019F0000
0003038000
000200C000
0006006000
0006007000
0006003000
0006003000
0006007000
0003006000
000380E000
0001C1C000
0000F38000
00003E0000
00000FC000
000003E000
000000E000
0000007000
0003003000
0007003000
0007003000
0006003000
0003006000
0003006000
0001C1C000
0000FF8000
00003E0000
0000000000
ENDCHAR

STARTCHAR chs_A1ED
ENCODING 41453
SWIDTH 960 0
DWIDTH 40 0
BBX 40 40 0 -6
BITMAP
0000000000
0000000000
0000000000
07C001C000
01C003E000
01E003E000
01E0078000
01F0060000
01B0060000
01B8060000
01980603C0
0198060C70
019C061830
019C061838
018C063818
018C063818
018E063818
0186063818
0186063818
0183063818
0183063818
0183063818
0181863818
0181863818
0181C63818
0180C63818
0180E63818
0180E63818
0180661830
0180661830
0180760C60
0180360380
01803E0000
07801E0000
1F001E0000
1F000E7FFE
0E000E7FFC
0000000000
0000000000
0000000000
ENDCHAR

STARTCHAR chs_A1EE
ENCODING 41454
SWIDTH 960 0
DWIDTH 40 0
BBX 40 40 0 -6
BITMAP
0000000000
0000100000
0000100000
0000380000
0000380000
0000280000
00006C0000
00006C0000
0000660000
0000E60000
0000C60000
0000C70000
0000C30000
0001830000
0001830000
7FFF01FFFC
3FFF01FFF8
1E000000F0
07000001C0
0180000300
00E0000E00
0030001800
0018003000
000C006000
001C007000
001C003000
0018003800
0018101800
0030381800
00307C1800
0020E60C00
0063C38C00
006701CC00
00CE00F600
00D8003E00
00F0001E00
01E0000F00
0180000300
0000000000
0000000000
ENDCHAR

STARTCHAR chs_A1EF
ENCODING 41455
SWIDTH 960 0
DWIDTH 40 0
BBX 40 40 0 -6
BITMAP
0000000000
0000100000
0000100000
0000380000
0000380000
0000380000
00007C0000
00007C0000
00007E0000
0000FE0000
0000FE0000
0000FF0000
0000FF0000
0001FF0000
0001FF0000
7FFFFFFFFC
3FFFFFFFF8
1FFFFFFFF0
07FFFFFFC0
01FFFFFF00
00FFFFFE00
003FFFF800
001FFFF000
000FFFE000
001FFFF000
001FFFF000
001FFFF800
001FFFF800
003FFFF800
003FFFF800
003FE7FC00
007FC3FC00
007F01FC00
00FE00FE00
00F8003E00
00F0001E00
01E0000F00
0180000300
0000000000
0000000000
ENDCHAR

STARTCHAR chs_A1F0
ENCODING 41456
SWIDTH 960 0
DWIDTH 40 0
BBX 40 40 0 -6
BITMAP
0000000000
0000000000
0000000000
0000FE0000
0007FFC000
001F81F000
007C003C00
00F8001E00
01E0000700
03C0000380
03800001C0
07000001C0
07000000C0
0E000000E0
0C00000060
0C00000060
1C00000070
1800000030
1800000030
1800000030
1800000030
1800000030
1800000030
1C00000070
0C00000060
0C00000060
0E000000E0
07000000C0
07000001C0
03800001C0
03C0000380
01E0000700
00F0001E00
0078003C00
001F01F000
0007FFC000
0000FE0000
0000000000
0000000000
0000000000
ENDCHAR

STARTCHAR chs_A1F1
ENCODING 41457
SWIDTH 960 0
DWIDTH 40 0
BBX 40 40 0 -6
BITMAP
0000000000
0000000000
0000000000
0000FE0000
0007FFC000
001FFFF000
007FFFFC00
00FFFFFE00
01FFFFFF00
03FFFFFF80
03FFFFFFC0
07FFFFFFC0
07FFFFFFC0
0FFFFFFFE0
0FFFFFFFE0
0FFFFFFFE0
1FFFFFFFF0
1FFFFFFFF0
1FFFFFFFF0
1FFFFFFFF0
1FFFFFFFF0
1FFFFFFFF0
1FFFFFFFF0
1FFFFFFFF0
0FFFFFFFE0
0FFFFFFFE0
0FFFFFFFE0
07FFFFFFC0
07FFFFFFC0
03FFFFFFC0
03FFFFFF80
01FFFFFF00
00FFFFFE00
007FFFFC00
001FFFF000
0007FFC000
0000FE0000
0000000000
0000000000
0000000000
ENDCHAR

STARTCHAR chs_A1F2
ENCODING 41458
SWIDTH 960 0
DWIDTH 40 0
BBX 40 40 0 -6
BITMAP
0000000000
0000000000
0000000000
0000FE0000
0007FFC000
001F81F000
007C003C00
00F8001E00
01E0FE0700
03C3FF8380
038F01E1C0
071C0071C0
07380038C0
0E300018E0
0C70001C60
0C60000C60
1CE0000E70
18C0000630
18C0000630
18C0000630
18C0000630
18C0000630
18C0000630
1CE0000E70
0C60000C60
0C70001C60
0E300018E0
07180038C0
071C0071C0
038F01E1C0
03C3FF8380
01E0FE0700
00F0001E00
0078003C00
001F01F000
0007FFC000
0000FE0000
0000000000
0000000000
0000000000
ENDCHAR

STARTCHAR chs_A1F3
ENCODING 41459
SWIDTH 960 0
DWIDTH 40 0
BBX 40 40 0 -6
BITMAP
0000000000
0000180000
00007C0000
00007E0000
0000EF0000
0001C78000
000383C000
000F01E000
000E00F000
001C007800
0038003C00
0070001E00
01E0000F00
01C0000780
03800003C0
07000001E0
0E000000F0
3C00000078
380000003C
700000001E
780000001C
3C00000038
1E000000F0
0F000000E0
07800001C0
03C0000380
01E0000700
00F0001E00
0078001C00
003C003800
001E007000
000F00E000
000783C000
0003C38000
0001E70000
0000FE0000
00007C0000
0000380000
0000100000
0000000000
ENDCHAR

STARTCHAR chs_A1F4
ENCODING 41460
SWIDTH 960 0
DWIDTH 40 0
BBX 40 40 0 -6
BITMAP
0000000000
0000180000
00007C0000
00007E0000
0000FF0000
0001FF8000
0003FFC000
000FFFE000
000FFFF000
001FFFF800
003FFFFC00
007FFFFE00
01FFFFFF00
01FFFFFF80
03FFFFFFC0
07FFFFFFE0
0FFFFFFFF0
3FFFFFFFF8
3FFFFFFFFC
7FFFFFFFFE
7FFFFFFFFC
3FFFFFFFF8
1FFFFFFFF0
0FFFFFFFE0
07FFFFFFC0
03FFFFFF80
01FFFFFF00
00FFFFFE00
007FFFFC00
003FFFF800
001FFFF000
000FFFE000
0007FFC000
0003FF8000
0001FF0000
0000FE0000
00007C0000
0000380000
0000100000
0000000000
ENDCHAR

STARTCHAR chs_A1F5
ENCODING 41461
SWIDTH 960 0
DWIDTH 40 0
BBX 40 40 0 -6
BITMAP
0000000000
0000000000
0000000000
1FFFFFFFF8
1FFFFFFFF8
1800000018
1800000018
1800000018
1800000018
1800000018
1800000018
1800000018
1800000018
1800000018
1800000018
1800000018
1800000018
1800000018
1800000018
1800000018
1800000018
1800000018
1800000018
1800000018
1800000018
1800000018
1800000018
1800000018
1800000018
1800000018
1800000018
1800000018
1800000018
1800000018
1800000018
1FFFFFFFF8
1FFFFFFFF8
0000000000
0000000000
0000000000
ENDCHAR

STARTCHAR chs_A1F6
ENCODING 41462
SWIDTH 960 0
DWIDTH 40 0
BBX 40 40 0 -6
BITMAP
0000000000
0000000000
0000000000
1FFFFFFFF8
1FFFFFFFF8
1FFFFFFFF8
1FFFFFFFF8
1FFFFFFFF8
1FFFFFFFF8
1FFFFFFFF8
1FFFFFFFF8
1FFFFFFFF8
1FFFFFFFF8
1FFFFFFFF8
1FFFFFFFF8
1FFFFFFFF8
1FFFFFFFF8
1FFFFFFFF8
1FFFFFFFF8
1FFFFFFFF8
1FFFFFFFF8
1FFFFFFFF8
1FFFFFFFF8
1FFFFFFFF8
1FFFFFFFF8
1FFFFFFFF8
1FFFFFFFF8
1FFFFFFFF8
1FFFFFFFF8
1FFFFFFFF8
1FFFFFFFF8
1FFFFFFFF8
1FFFFFFFF8
1FFFFFFFF8
1FFFFFFFF8
1FFFFFFFF8
1FFFFFFFF8
0000000000
0000000000
0000000000
ENDCHAR

STARTCHAR chs_A1F7
ENCODING 41463
SWIDTH 960 0
DWIDTH 40 0
BBX 40 40 0 -6
BITMAP
0000000000
0000000000
0000100000
0000100000
0000380000
0000380000
00006C0000
00006E0000
0000E60000
0000C70000
0001C70000
0001830000
0003838000
0003018000
000600C000
000600C000
000C006000
000C007000
001C003000
0018003800
0038003800
0030001800
0070001C00
0060000C00
00C0000600
00C0000600
0180000300
0180000380
0380000180
03000001C0
07000001C0
06000000C0
0E000000E0
0FFFFFFFE0
1FFFFFFFF0
0000000000
0000000000
0000000000
0000000000
0000000000
ENDCHAR

STARTCHAR chs_A1F8
ENCODING 41464
SWIDTH 960 0
DWIDTH 40 0
BBX 40 40 0 -6
BITMAP
0000000000
0000000000
0000100000
0000100000
0000380000
0000380000
00007C0000
00007E0000
0000FE0000
0000FF0000
0001FF0000
0001FF0000
0003FF8000
0003FF8000
0007FFC000
0007FFC000
000FFFE000
000FFFF000
001FFFF000
001FFFF800
003FFFF800
003FFFF800
007FFFFC00
007FFFFC00
00FFFFFE00
00FFFFFE00
01FFFFFF00
01FFFFFF80
03FFFFFF80
03FFFFFFC0
07FFFFFFC0
07FFFFFFC0
0FFFFFFFE0
0FFFFFFFE0
1FFFFFFFF0
0000000000
0000000000
0000000000
0000000000
0000000000
ENDCHAR

STARTCHAR chs_A1F9
ENCODING 41465
SWIDTH 960 0
DWIDTH 40 0
BBX 40 40 0 -6
BITMAP
0000000000
0000000000
0000000000
0000000000
18003C0030
0C007E0060
0600FF00C0
0300FF0180
0180FF0300
00C07E0600
00603C0C00
0030001800
0018003000
000C006000
000600C000
0003018000
0381830380
07C0C607C0
0FE06C0FE0
0FE0380FE0
0FE0380FE0
0FE06C0FE0
07C0C607C0
0381830380
0003018000
000600C000
000C006000
0018003000
0030001800
00603C0C00
00C07E0600
0180FF0300
0300FF0180
0600FF00C0
0C007E0060
18003C0030
0000000000
0000000000
0000000000
0000000000
ENDCHAR

STARTCHAR chs_A1FA
ENCODING 41466
SWIDTH 960 0
DWIDTH 40 0
BBX 40 40 0 -6
BITMAP
0000000000
0000000000
0000000000
0000000000
0000000000
0000000000
0000000000
0000000000
0000000000
0000000000
0000000000
0000000000
0000010000
000000C000
0000007000
0000003C00
0000001F00
0000001FC0
00000007F0
3FFFFFFFFC
3FFFFFFFFC
00000007F0
0000001FC0
0000001F00
0000003C00
0000007000
000000C000
0000010000
0000000000
0000000000
0000000000
0000000000
0000000000
0000000000
0000000000
0000000000
0000000000
0000000000
0000000000
0000000000
ENDCHAR

STARTCHAR chs_A1FB
ENCODING 41467
SWIDTH 960 0
DWIDTH 40 0
BBX 40 40 0 -6
BITMAP
0000000000
0000000000
0000000000
0000000000
0000000000
0000000000
0000000000
0000000000
0000000000
0000000000
0000000000
0000000000
0000800000
0003000000
000E000000
003C000000
00F8000000
03F8000000
0FE0000000
3FFFFFFFFC
3FFFFFFFFC
0FE0000000
03F8000000
00F8000000
003C000000
000E000000
0003000000
0000800000
0000000000
0000000000
0000000000
0000000000
0000000000
0000000000
0000000000
0000000000
0000000000
0000000000
0000000000
0000000000
ENDCHAR

STARTCHAR chs_A1FC
ENCODING 41468
SWIDTH 960 0
DWIDTH 40 0
BBX 40 40 0 -6
BITMAP
0000000000
0000000000
0000180000
0000180000
00003C0000
00003C0000
00007E0000
00007E0000
0000FF0000
0000FF0000
0001FF8000
0001DB8000
0003DBC000
000318C000
0006186000
0004182000
0008181000
0000180000
0000180000
0000180000
0000180000
0000180000
0000180000
0000180000
0000180000
0000180000
0000180000
0000180000
0000180000
0000180000
0000180000
0000180000
0000180000
0000180000
0000180000
0000180000
0000180000
0000180000
0000000000
0000000000
ENDCHAR

STARTCHAR chs_A1FD
ENCODING 41469
SWIDTH 960 0
DWIDTH 40 0
BBX 40 40 0 -6
BITMAP
0000000000
0000000000
0000180000
0000180000
0000180000
0000180000
0000180000
0000180000
0000180000
0000180000
0000180000
0000180000
0000180000
0000180000
0000180000
0000180000
0000180000
0000180000
0000180000
0000180000
0000180000
0000180000
0000180000
0008181000
0004182000
0006186000
000318C000
0003DBC000
0001DB8000
0001FF8000
0000FF0000
0000FF0000
00007E0000
00007E0000
00003C0000
00003C0000
0000180000
0000180000
0000000000
0000000000
ENDCHAR

STARTCHAR chs_A1FE
ENCODING 41470
SWIDTH 960 0
DWIDTH 40 0
BBX 40 40 0 -6
BITMAP
0000000000
0000000000
0000000000
1FFFFFFFF8
1FFFFFFFF8
1FFFFFFFF8
1FFFFFFFF8
1FFFFFFFF8
1FFFFFFFF8
1FFFFFFFF8
1FFFFFFFF8
1FFFFFFFF8
1FFFFFFFF8
0FFFFFFFF0
0000000000
0000000000
0000000000
0000000000
0000000000
0000000000
0000000000
0000000000
0000000000
0000000000
0000000000
0000000000
0FFFFFFFF0
1FFFFFFFF8
1FFFFFFFF8
1FFFFFFFF8
1FFFFFFFF8
1FFFFFFFF8
1FFFFFFFF8
1FFFFFFFF8
1FFFFFFFF8
1FFFFFFFF8
1FFFFFFFF8
0000000000
0000000000
0000000000
ENDCHAR

STARTCHAR chs_A2A1
ENCODING 41633
SWIDTH 960 0
DWIDTH 40 0
BBX 40 40 0 -6
BITMAP
0000000000
0000000000
300000000C
0000000000
0000000000
0000000000
0000000000
0000000000
0000000000
0000000000
0000000000
0000000000
0000000000
0000000000
0000000000
0000000000
0000000000
0000000000
0000000000
0000000000
0000000000
0000000000
0000000000
0000000000
0000000000
0000000000
0000000000
0000000000
0000000000
0000000000
0000000000
0000000000
0000000000
0000000000
0000000000
0000000000
0000000000
300000000C
0000000000
0000000000
ENDCHAR

STARTCHAR chs_A2B1
ENCODING 41649
SWIDTH 960 0
DWIDTH 40 0
BBX 40 40 0 -6
BITMAP
0000000000
0000000000
0000000000
0000200000
0000600000
0000E00000
0003E00000
0003E00000
0000600000
0000600000
0000600000
0000600000
0000600000
0000600000
0000600000
0000600000
0000600000
0000600000
0000600000
0000600000
0000600000
0000600000
0000600000
0000600000
0000600000
0000600000
0000600000
0000600000
0000600000
0000600380
00006007C0
00007007C0
0003FE0780
0003FC0300
0000000000
0000000000
0000000000
0000000000
0000000000
0000000000
ENDCHAR

STARTCHAR chs_A2B2
ENCODING 41650
SWIDTH 960 0
DWIDTH 40 0
BBX 40 40 0 -6
BITMAP
0000000000
0000000000
0000000000
0003F80000
000FFE0000
001C070000
0018038000
0010038000
0000018000
0000018000
0000018000
0000018000
0000030000
0000030000
0000060000
00000E0000
00001C0000
0000180000
0000380000
0000700000
0000600000
0000C00000
0001C00000
0001800000
0003000000
0006000000
000C000000
000C000000
0018000000
0038000380
00300007C0
007FFF87C0
007FFF8780
007FFF8300
0000000000
0000000000
0000000000
0000000000
0000000000
0000000000
ENDCHAR

STARTCHAR chs_A2B3
ENCODING 41651
SWIDTH 960 0
DWIDTH 40 0
BBX 40 40 0 -6
BITMAP
0000000000
0000000000
0000000000
007FFE0000
007FFF0000
00000E0000
00001C0000
0000180000
0000380000
0000700000
0000E00000
0000C00000
0001C00000
0003F00000
00003C0000
00000E0000
0000070000
0000070000
0000030000
0000030000
0000030000
0000030000
0000030000
0000030000
0000030000
0000030000
0000030000
0000030000
0000030000
0000070380
00000E07C0
00781C07C0
001FF80780
0007E00300
0000000000
0000000000
0000000000
0000000000
0000000000
0000000000
ENDCHAR

STARTCHAR chs_A2B4
ENCODING 41652
SWIDTH 960 0
DWIDTH 40 0
BBX 40 40 0 -6
BITMAP
0000000000
0000000000
0000000000
0000180000
0000380000
0000380000
0000780000
0000D80000
0000980000
0001980000
0001180000
0002180000
0006180000
000C180000
001C180000
0018180000
0030180000
0030180000
0060180000
00C0180000
0080180000
0180180000
0300180000
0300180000
07FFFFC000
07FFFFC000
0000180000
0000180000
0000180000
0000180380
00001807C0
00001807C0
00007E0780
00007E0300
0000000000
0000000000
0000000000
0000000000
0000000000
0000000000
ENDCHAR

STARTCHAR chs_A2B5
ENCODING 41653
SWIDTH 960 0
DWIDTH 40 0
BBX 40 40 0 -6
BITMAP
0000000000
0000000000
0000000000
003FFF0000
003FFF0000
0030000000
0030000000
0030000000
0030000000
0030000000
0030000000
0030000000
0030000000
0030000000
0033F00000
003FFC0000
00380E0000
0030070000
0020070000
0000030000
0000030000
0000030000
0000030000
0000030000
0000030000
0000030000
0000030000
0000030000
0000030000
0000070380
00000E07C0
00381C07C0
001FF80780
0007E00300
0000000000
0000000000
0000000000
0000000000
0000000000
0000000000
ENDCHAR

STARTCHAR chs_A2B6
ENCODING 41654
SWIDTH 960 0
DWIDTH 40 0
BBX 40 40 0 -6
BITMAP
0000000000
0000000000
0000000000
0000FE0000
0003800000
000E000000
0018000000
0038000000
0060000000
0060000000
00C0000000
00C0000000
00C0000000
00C0000000
00C0000000
00C0000000
00C7F80000
00CC1E0000
00D0060000
00E0070000
00C0030000
00C0030000
00C0030000
00C0030000
00C0030000
00C0030000
00C0030000
00C0030000
0060030000
0060070380
00300E07C0
001C1C07C0
000FF80780
0003E00300
0000000000
0000000000
0000000000
0000000000
0000000000
0000000000
ENDCHAR

STARTCHAR chs_A2B7
ENCODING 41655
SWIDTH 960 0
DWIDTH 40 0
BBX 40 40 0 -6
BITMAP
0000000000
0000000000
0000000000
007FFFC000
007FFFC000
0000018000
0000010000
0000030000
0000030000
0000060000
0000060000
00000C0000
00000C0000
0000180000
0000100000
0000300000
0000300000
0000600000
0000600000
0000600000
0000E00000
0000C00000
0000C00000
0000C00000
0000C00000
0001800000
0001800000
0001800000
0003000000
0003000380
00030007C0
00030007C0
0007000780
0003000300
0000000000
0000000000
0000000000
0000000000
0000000000
0000000000
ENDCHAR

STARTCHAR chs_A2B8
ENCODING 41656
SWIDTH 960 0
DWIDTH 40 0
BBX 40 40 0 -6
BITMAP
0000000000
0000000000
0000000000
000FF00000
001FFC0000
00380E0000
0060070000
00E0030000
00C0030000
00C0030000
00C0030000
00C0030000
00E0030000
0060070000
0030060000
00180C0000
000F380000
0007F00000
000FF00000
001C1C0000
0030060000
0060030000
00C0030000
01C0018000
0180018000
0180018000
0180018000
0180018000
00C0038000
00C0030380
00600707C0
003FFE07C0
001FFC0780
0007F00300
0000000000
0000000000
0000000000
0000000000
0000000000
0000000000
ENDCHAR

STARTCHAR chs_A2B9
ENCODING 41657
SWIDTH 960 0
DWIDTH 40 0
BBX 40 40 0 -6
BITMAP
0000000000
0000000000
0000000000
0003F00000
000FFC0000
001C0E0000
0038030000
0030030000
0060018000
0060018000
0060018000
0060018000
0060018000
0060018000
0060018000
0060018000
0060018000
0030038000
0038058000
001C198000
0007E18000
0000018000
0000018000
0000018000
0000018000
0000018000
0000018000
0000030000
0000030000
0000060380
00000C07C0
00007807C0
001FE00780
001F800300
0000000000
0000000000
0000000000
0000000000
0000000000
0000000000
ENDCHAR

STARTCHAR chs_A2BA
ENCODING 41658
SWIDTH 960 0
DWIDTH 40 0
BBX 40 40 0 -6
BITMAP
0000000000
0000000000
0000000000
004007C000
00C01C7000
01C0303800
03C0601800
00C0601C00
00C0E00C00
00C0E00C00
00C0E00C00
00C0E00C00
00C0E00C00
00C0E00C00
00C0E00C00
00C0E00C00
00C0E00C00
00C0E00C00
00C0E00C00
00C0E00C00
00C0E00C00
00C0E00C00
00C0E00C00
00C0E00C00
00C0E00C00
00C0E00C00
00C0E00C00
00C0E00C00
00C0E00C00
00C0601C70
00C07018F8
00E03870F8
07F81FF0F8
07F807C030
0000000000
0000000000
0000000000
0000000000
0000000000
0000000000
ENDCHAR

STARTCHAR chs_A2BB
ENCODING 41659
SWIDTH 960 0
DWIDTH 40 0
BBX 40 40 0 -6
BITMAP
0000000000
0000000000
0000000000
0010004000
003000C000
007001C000
01F003C000
003000C000
003000C000
003000C000
003000C000
003000C000
003000C000
003000C000
003000C000
003000C000
003000C000
003000C000
003000C000
003000C000
003000C000
003000C000
003000C000
003000C000
003000C000
003000C000
003000C000
003000C000
003000C000
003000C070
003000C0F8
007000C0F8
01FE07F8F8
01FE07F830
0000000000
0000000000
0000000000
0000000000
0000000000
0000000000
ENDCHAR

STARTCHAR chs_A2BC
ENCODING 41660
SWIDTH 960 0
DWIDTH 40 0
BBX 40 40 0 -6
BITMAP
0000000000
0000000000
0000000000
004007E000
00C01FF800
01C0383800
03C0601C00
00C0401C00
00C0000C00
00C0000C00
00C0000C00
00C0000C00
00C0001C00
00C0001800
00C0003800
00C0003800
00C0007000
00C0006000
00C000C000
00C0018000
00C0018000
00C0030000
00C0070000
00C0060000
00C00C0000
00C00C0000
00C0180000
00C0300000
00C0700000
00C0600070
00C0E000F8
00E0FFFCF8
07F8FFFCF8
07F87FFC30
0000000000
0000000000
0000000000
0000000000
0000000000
0000000000
ENDCHAR

STARTCHAR chs_A2BD
ENCODING 41661
SWIDTH 960 0
DWIDTH 40 0
BBX 40 40 0 -6
BITMAP
0000000000
0000000000
0000000000
0040FFF800
00C0FFF800
01C0003800
03C0007000
00C000E000
00C000C000
00C0018000
00C0030000
00C0030000
00C0060000
00C00FC000
00C0007000
00C0003800
00C0001800
00C0001C00
00C0000C00
00C0000C00
00C0000C00
00C0000C00
00C0000C00
00C0000C00
00C0000C00
00C0000C00
00C0000C00
00C0000C00
00C0000C00
00C0001C70
00C00018F8
00E07070F8
07F87FF0F8
07F81FC030
0000000000
0000000000
0000000000
0000000000
0000000000
0000000000
ENDCHAR

STARTCHAR chs_A2BE
ENCODING 41662
SWIDTH 960 0
DWIDTH 40 0
BBX 40 40 0 -6
BITMAP
0000000000
0000000000
0000000000
0040003000
00C0007000
01C0007000
03C000B000
00C001B000
00C0013000
00C0033000
00C0033000
00C0063000
00C0063000
00C0043000
00C0083000
00C0083000
00C0103000
00C0303000
00C0203000
00C0603000
00C0603000
00C0C03000
00C0C03000
00C0803000
00C1FFFF00
00C1FFFF00
00C0003000
00C0003000
00C0003000
00C0003070
00C00030F8
00E00070F8
07F803FEF8
07F801FE30
0000000000
0000000000
0000000000
0000000000
0000000000
0000000000
ENDCHAR

STARTCHAR chs_A2BF
ENCODING 41663
SWIDTH 960 0
DWIDTH 40 0
BBX 40 40 0 -6
BITMAP
0000000000
0000000000
0000000000
00407FFC00
00C07FFC00
01C0600000
07C0600000
07C0600000
00C0600000
00C0600000
00C0600000
00C0600000
00C0600000
00C0600000
00C067C000
00C07E7000
00C0781800
00C0701800
00C0600C00
00C0000C00
00C0000C00
00C0000C00
00C0000C00
00C0000C00
00C0000C00
00C0000C00
00C0000C00
00C0000C00
00C0000C00
00C0001C70
00C00018F8
00E07870F8
07F83FF0F8
07F80FC030
0000000000
0000000000
0000000000
0000000000
0000000000
0000000000
ENDCHAR

STARTCHAR chs_A2C0
ENCODING 41664
SWIDTH 960 0
DWIDTH 40 0
BBX 40 40 0 -6
BITMAP
0000000000
0000000000
0000000000
004003F000
00C0070000
01C00C0000
03C0180000
00C0700000
00C0600000
00C0E00000
00C0E00000
00C0E00000
00C0E00000
00C0E00000
00C0E00000
00C0E00000
00C0EFE000
00C0FC7000
00C0F01800
00C0E01800
00C0E00C00
00C0E00C00
00C0E00C00
00C0E00C00
00C0E00C00
00C0E00C00
00C0E00C00
00C0E00C00
00C0E00C00
00C0601C70
00C07018F8
00E03870F8
07F81FF0F8
07F807C030
0000000000
0000000000
0000000000
0000000000
0000000000
0000000000
ENDCHAR

STARTCHAR chs_A2C1
ENCODING 41665
SWIDTH 960 0
DWIDTH 40 0
BBX 40 40 0 -6
BITMAP
0000000000
0000000000
0000000000
00207FFF00
00607FFF00
00E0000600
01E0000400
0060000C00
0060001800
0060001800
0060001800
0060003800
0060003000
0060003000
0060003000
0060006000
0060006000
0060006000
006000C000
006000C000
0060008000
0060018000
0060018000
0060038000
0060030000
0060030000
0060070000
0060070000
0060060000
0060060070
00600600F8
00600E00F8
03FC0E00F8
03FC0C0030
0000000000
0000000000
0000000000
0000000000
0000000000
0000000000
ENDCHAR

STARTCHAR chs_A2C2
ENCODING 41666
SWIDTH 960 0
DWIDTH 40 0
BBX 40 40 0 -6
BITMAP
0000000000
0000000000
0000000000
002003E000
00600FF800
00E01C3C00
01E0300C00
0060700E00
0060600600
0060600600
0060600600
0060600600
0060700C00
0060301C00
0060181800
00600C3800
006007F000
006007F000
00600E7000
0060181800
0060300C00
0060600600
0060600700
0060E00300
0060E00300
0060E00300
0060E00300
0060E00300
0060E00300
0060600670
00607006F8
0060381CF8
03FC1FF8F8
03FC07E030
0000000000
0000000000
0000000000
0000000000
0000000000
0000000000
ENDCHAR

STARTCHAR chs_A2C3
ENCODING 41667
SWIDTH 960 0
DWIDTH 40 0
BBX 40 40 0 -6
BITMAP
0000000000
0000000000
0000000000
004007C000
00C01C7000
01C0303800
03C0601800
00C0601C00
00C0E00C00
00C0E00C00
00C0E00C00
00C0E00C00
00C0E00C00
00C0E00C00
00C0E00C00
00C0E00C00
00C0600C00
00C0601C00
00C0301C00
00C01C6C00
00C0078C00
00C0000C00
00C0000C00
00C0000C00
00C0000C00
00C0000C00
00C0000C00
00C0001C00
00C0001800
00C0003870
00C00070F8
00E000E0F8
07F83FC0F8
07F81F0030
0000000000
0000000000
0000000000
0000000000
0000000000
0000000000
ENDCHAR

STARTCHAR chs_A2C4
ENCODING 41668
SWIDTH 960 0
DWIDTH 40 0
BBX 40 40 0 -6
BITMAP
0000000000
0000000000
0000000000
01F801F000
03FC07B800
070E060C00
0C070E0E00
08070C0600
00030C0600
00030C0600
00030C0600
00030C0600
00060C0600
000E0C0600
000C0C0600
001C0C0600
00180C0600
00180C0600
00300C0600
00300C0600
00600C0600
00600C0600
00C00C0600
01C00C0600
01800C0600
03800C0600
03000C0600
03000C0600
06000C0600
06000C0670
0C00060CF8
0FFF071CF8
1FFF03F8F8
0FFF00E030
0000000000
0000000000
0000000000
0000000000
0000000000
0000000000
ENDCHAR

STARTCHAR chs_A2C5
ENCODING 41669
SWIDTH 960 0
DWIDTH 40 0
BBX 40 40 0 -6
BITMAP
0000000000
0000000000
0038001C00
0060000600
00C0000300
0180000180
03800800C0
03001800C0
0600380060
0600F80060
0C00180030
0C00180030
1800180018
1800180018
380018001C
300018000C
300018000C
700018000E
700018000E
700018000E
700018000E
700018000E
700018000E
300018000C
300018000C
380018001C
1800180018
1800180018
0C00180030
0C00180030
0600180060
0600180060
03007E00C0
03807E00C0
0180000180
00C0000300
0060000600
0038001C00
0000000000
0000000000
ENDCHAR

STARTCHAR chs_A2C6
ENCODING 41670
SWIDTH 960 0
DWIDTH 40 0
BBX 40 40 0 -6
BITMAP
0000000000
0000000000
0038001C00
0060000600
00C0000300
0180000180
03007E00C0
0301FF80C0
0603FFC060
040600C060
0C0400E030
0800006030
1800006018
1800006018
300000C01C
300000C00C
300001800C
700003800E
700003000E
700007000E
70000E000E
70000C000E
70001C000E
300038000C
300070000C
380060001C
1800C00018
1801C00018
0C01800030
0C03000030
0606000060
060FFFC060
030FFFE0C0
0307FFC0C0
0180000180
00C0000300
0060000600
0038001C00
0000000000
0000000000
ENDCHAR

STARTCHAR chs_A2C7
ENCODING 41671
SWIDTH 960 0
DWIDTH 40 0
BBX 40 40 0 -6
BITMAP
0000000000
0000000000
0038001C00
0060000600
00C0000300
0180000180
0303FFC0C0
0307FFE0C0
0603FFC060
0600018060
0C00030030
0C00030030
1800060018
18000C0018
38000C001C
300018000C
30003F000C
70007FC00E
700000E00E
700000600E
700000300E
700000300E
700000300E
300000300C
300000300C
380000301C
1800003018
1800003018
0C00003030
0C00006030
0600006060
060381C060
0301FF80C0
03007E00C0
0180000180
00C0000300
0060000600
0038001C00
0000000000
0000000000
ENDCHAR

STARTCHAR chs_A2C8
ENCODING 41672
SWIDTH 960 0
DWIDTH 40 0
BBX 40 40 0 -6
BITMAP
0000000000
0000000000
0038001C00
0060000600
00C0000300
0180000180
03000600C0
03000700C0
06000F0060
06000F0060
0C001F0030
0C00170030
1800370018
1800670018
380067001C
3000E7000C
3000C7000C
7000C7000E
700187000E
700107000E
700307000E
700207000E
700607000E
700C07000C
300C07000C
301FFFF01C
380FFFF018
1800070018
1800070030
0C00070030
0C00070060
0600070060
03003FE0C0
03001FC0C0
0180000180
00C0000300
0060000600
0038001C00
0000000000
0000000000
ENDCHAR

STARTCHAR chs_A2C9
ENCODING 41673
SWIDTH 960 0
DWIDTH 40 0
BBX 40 40 0 -6
BITMAP
0000000000
0000000000
0038001C00
0060000600
00C0000300
0180000180
0303FFE0C0
0303FFF0C0
0603FFE060
0603000060
0C03000030
0C03000030
1803000018
1803000018
380300001C
300300000C
30031E000C
70037F800E
7003E1C00E
700300600E
700200600E
700000300E
700000300E
300000300C
300000300C
380000301C
1800003018
1800003018
0C00003030
0C00006030
0600006060
060381C060
0301FF80C0
03007E00C0
0180000180
00C0000300
0060000600
0038001C00
0000000000
0000000000
ENDCHAR

STARTCHAR chs_A2CA
ENCODING 41674
SWIDTH 960 0
DWIDTH 40 0
BBX 40 40 0 -6
BITMAP
0000000000
0000000000
0038001C00
0060000600
00C0000300
0180000180
03000FC0C0
03003FC0C0
0600780060
0600C00060
0C01800030
0C03000030
1807000018
1806000018
380600001C
300600000C
300600000C
70063E000E
70067F800E
7006C0C00E
700780600E
700700600E
700600300E
700600300C
300600300C
300600301C
3806003018
1806003018
1803003030
0C03006030
0C01806060
0601C1C060
0700FF80C0
03003E00C0
0380000180
01C0000300
00E0000600
0070001C00
0000000000
0000000000
ENDCHAR

STARTCHAR chs_A2CB
ENCODING 41675
SWIDTH 960 0
DWIDTH 40 0
BBX 40 40 0 -6
BITMAP
0000000000
0000000000
0038001C00
0060000600
00C0000300
0180000180
0303FFE0C0
0307FFF0C0
0603FFE060
0600006060
0C0000C030
0C0000C030
180001C018
1800018018
380003801C
300003000C
300003000C
700007000E
700007000E
700006000E
700006000E
70000E000E
70000C000E
30000C000C
300018000C
380018001C
1800180018
1800300018
0C00300030
0C00700030
0600600060
0600600060
0300E000C0
03006000C0
0180000180
00C0000300
0060000600
0038001C00
0000000000
0000000000
ENDCHAR

STARTCHAR chs_A2CC
ENCODING 41676
SWIDTH 960 0
DWIDTH 40 0
BBX 40 40 0 -6
BITMAP
0000000000
0000000000
0038001C00
0060000600
00C0000300
0180000180
03003E00C0
0300FF80C0
0601C1C060
060300C060
0C03006030
0C06006030
1806006018
1806006018
380600601C
300300C00C
300380C00C
7001E3800E
7000FF000E
70007E000E
7001E7800E
700381C00E
700700E00E
300600600C
300E00700C
380C00301C
180C003018
180C003018
0C0C003030
0C06006030
0606006060
060381C060
0301FF80C0
03007E00C0
0180000180
00C0000300
0060000600
0038001C00
0000000000
0000000000
ENDCHAR

STARTCHAR chs_A2CD
ENCODING 41677
SWIDTH 960 0
DWIDTH 40 0
BBX 40 40 0 -6
BITMAP
0000000000
0000000000
0038001C00
0060000600
00C0000300
0180000180
03003E00C0
0300FF80C0
0601C1C060
060300C060
0C03006030
0C06006030
1806003018
1806003018
380600301C
300600300C
300600300C
700600300E
700300700E
700300F00E
700181B00E
7000FF300E
70007E300E
300000300C
300000300C
380000301C
1800003018
1800007018
0C00006030
0C0000C030
0600018060
06000F0060
0301FE00C0
0301F800C0
0180000180
00C0000300
0060000600
0038001C00
0000000000
0000000000
ENDCHAR

STARTCHAR chs_A2CE
ENCODING 41678
SWIDTH 960 0
DWIDTH 40 0
BBX 40 40 0 -6
BITMAP
0000000000
0000000000
0038001C00
0060000600
00C0000300
0180000180
038003C0C0
030C0FF0C0
061C1C3860
067C181860
0C1C300C30
0C1C300C30
181C300C18
181C300C18
381C300C1C
301C300C0C
301C300C0C
701C300C0E
701C300C0E
701C300C0E
701C300C0E
701C300C0E
701C300C0E
301C300C0C
301C300C0C
381C300C1C
181C300C18
181C300C18
0C1C300C30
0C1C300C30
061C181860
061C1C3860
037F0FF0C0
037F03C0C0
0180000180
00C0000300
0060000600
0038001C00
0000000000
0000000000
ENDCHAR

STARTCHAR chs_A2CF
ENCODING 41679
SWIDTH 960 0
DWIDTH 40 0
BBX 40 40 0 -6
BITMAP
0000000000
0000000000
0038001C00
0060000600
00C0000300
0180000180
03020000C0
03060060C0
060E00E060
061E03E060
0C06006030
0C06006030
1806006018
1806006018
380600601C
300600600C
300600600C
700600600E
700600600E
700600600E
700600600E
700600600E
700600600E
300600600C
300600600C
380600601C
1806006018
1806006018
0C06006030
0C06006030
0606006060
060700E060
031FC3F8C0
031F81F8C0
0180000180
00C0000300
0060000600
0038001C00
0000000000
0000000000
ENDCHAR

STARTCHAR chs_A2D0
ENCODING 41680
SWIDTH 960 0
DWIDTH 40 0
BBX 40 40 0 -6
BITMAP
0000000000
0000000000
0038001C00
0060000600
00C0000300
0180000180
030003C0C0
030C0FF0C0
061C1C3860
067C301860
0C1C000C30
0C1C000C30
181C000C18
181C000C18
381C000C1C
301C00180C
301C00180C
701C00380E
701C00300E
701C00300E
701C00600E
701C00E00E
701C01C00E
301C01800C
301C03800C
381C07001C
181C060018
181C0E0018
0C1C0C0030
0C1C180030
061C180060
061C3FFC60
037F3FFCC0
037F1FFCC0
0180000180
00C0000300
0060000600
0038001C00
0000000000
0000000000
ENDCHAR

STARTCHAR chs_A2D1
ENCODING 41681
SWIDTH 960 0
DWIDTH 40 0
BBX 40 40 0 -6
BITMAP
0000000000
0000000000
0038001C00
0060000600
00C0000300
0180000180
03001FFCC0
030C3FFCC0
061C1FFC60
067C003860
0C1C003030
0C1C007030
181C00E018
181C00C018
381C01801C
301C03800C
301C03F80C
701C001C0E
701C000C0E
701C00060E
701C00060E
701C00060E
701C00060E
301C00060C
301C00060C
381C00061C
181C000618
181C000618
0C1C000630
0C1C000C30
061C000C60
061C1C3860
037F0FF0C0
037F03C0C0
0180000180
00C0000300
0060000600
0038001C00
0000000000
0000000000
ENDCHAR

STARTCHAR chs_A2D2
ENCODING 41682
SWIDTH 960 0
DWIDTH 40 0
BBX 40 40 0 -6
BITMAP
0000000000
0000000000
0038001C00
0060000600
00C0000300
0180000180
03000020C0
030C0070C0
061C007060
067C00F060
0C1C00B030
0C1C01B030
181C033018
181C033018
381C07301C
301C06300C
301C06300C
701C0C300E
701C08300E
701C18300E
701C10300E
701C30300E
701C60300E
301C60300C
301CE0300C
381CFFFE1C
181C7FFE18
181C003018
0C1C003030
0C1C003030
061C003060
061C007060
037F03FCC0
037F01FCC0
0180000180
00C0000300
0060000600
0038001C00
0000000000
0000000000
ENDCHAR

STARTCHAR chs_A2D3
ENCODING 41683
SWIDTH 960 0
DWIDTH 40 0
BBX 40 40 0 -6
BITMAP
0000000000
0000000000
0038001C00
0060000600
00C0000300
0180000180
03001FF8C0
030C1FF8C0
061C1FF860
067C180060
0C1C180030
0C1C180030
181C180018
181C180018
381C18001C
301C18000C
301C1BF00C
701C1E380E
701C18180E
701C100C0E
701C000C0E
701C000C0E
701C000C0E
301C000C0C
301C000C0C
381C000C1C
181C000C18
181C000C18
0C1C000C30
0C1C000C30
061C001860
061C1C3860
037F0FF0C0
037F03C0C0
0180000180
00C0000300
0060000600
0038001C00
0000000000
0000000000
ENDCHAR

STARTCHAR chs_A2D4
ENCODING 41684
SWIDTH 960 0
DWIDTH 40 0
BBX 40 40 0 -6
BITMAP
0000000000
0000000000
0038001C00
0060000600
00C0000300
0180000180
030000F0C0
030C03F0C0
061C070060
067C0C0060
0C1C180030
0C1C180030
181C300018
181C300018
381C30001C
301C30000C
301C30000C
701C31E00E
701C33F00E
701C34180E
701C381C0E
701C300C0E
701C300C0E
301C300C0C
301C300C0C
381C300C1C
181C300C18
181C300C18
0C1C300C30
0C1C300C30
061C181860
061C1C3860
037F0FF0C0
037F03C0C0
0180000180
00C0000300
0060000600
0038001C00
0000000000
0000000000
ENDCHAR

STARTCHAR chs_A2D5
ENCODING 41685
SWIDTH 960 0
DWIDTH 40 0
BBX 40 40 0 -6
BITMAP
0000000000
0000000000
0038001C00
0060000600
00C0000300
0180000180
03000000C0
030C3FF8C0
061C3FF860
067C001860
0C1C003830
0C1C003830
181C003018
181C003018
381C00301C
301C00700C
301C00600C
701C00600E
701C00600E
701C00C00E
701C00C00E
701C00C00E
701C01C00E
701C01800C
301C01800C
301C01801C
381C018018
181C030018
181C030030
0C1C030030
0C1C030060
061C070060
077F0700C0
037F0300C0
0380000180
01C0000300
00E0000600
0070001C00
0000000000
0000000000
ENDCHAR

STARTCHAR chs_A2D6
ENCODING 41686
SWIDTH 960 0
DWIDTH 40 0
BBX 40 40 0 -6
BITMAP
0000000000
0000000000
0038001C00
0060000600
00C0000300
0180000180
030003E0C0
030C0FF8C0
061C1C1C60
067C180C60
0C1C300630
0C1C300630
181C300618
181C300618
381C180C1C
301C180C0C
301C0C180C
701C07700E
701C03E00E
701C03E00E
701C0E380E
701C1C1C0E
701C380E0E
301C30060C
301C70030C
381C60031C
181C600318
181C600318
0C1C600330
0C1C300630
061C300660
061C1C1C60
037F0FF8C0
037F03E0C0
0180000180
00C0000300
0060000600
0038001C00
0000000000
0000000000
ENDCHAR

STARTCHAR chs_A2D7
ENCODING 41687
SWIDTH 960 0
DWIDTH 40 0
BBX 40 40 0 -6
BITMAP
0000000000
0000000000
0038001C00
0060000600
00C0000300
0180000180
030003C0C0
030C0FF0C0
061C1C3860
067C181860
0C1C300C30
0C1C300C30
181C300C18
181C300C18
381C300C1C
301C300C0C
301C300C0C
701C300C0E
701C300C0E
701C181C0E
701C183C0E
701C0FEC0E
701C038C0E
701C000C0E
301C000C0C
301C000C0C
381C000C1C
181C000C18
181C001C18
0C1C001830
0C1C003830
061C00F060
077F0FE0E0
037F0F80C0
03800001C0
01C0000380
00E0000700
0070000E00
0000000000
0000000000
ENDCHAR

STARTCHAR chs_A2D8
ENCODING 41688
SWIDTH 960 0
DWIDTH 40 0
BBX 40 40 0 -6
BITMAP
0000000000
0000000000
0070000E00
00E0000700
01C0000380
03800001C0
070F0038E0
063FC0FE60
0C71C1C730
0CC0E18330
1800630198
1800630198
300063018C
300063018C
700063018E
7000E3018E
6000C30186
6000C30186
6001830186
6001830186
6003030186
6003030186
6006030186
600E030186
700C03018E
701C03018E
301803018C
301803018C
1830030198
1830030198
0C60018330
0C7FE1C730
06FFE0FE60
077FE038E0
03800001C0
01C0000380
00E0000700
0070000E00
0000000000
0000000000
ENDCHAR

STARTCHAR chs_A2D9
ENCODING 41689
SWIDTH 960 0
DWIDTH 40 0
BBX 40 40 0 -6
BITMAP
0000000000
00007E0000
0003FFC000
000F00F000
0030000C00
00C0000300
0180000180
03000000C0
0600080060
0400180020
0800380010
0800780010
1000180008
1000180008
300018000C
300018000C
2000180004
6000180006
6000180006
6000180006
6000180006
6000180006
6000180006
2000180004
300018000C
300018000C
1000180008
1000180008
0800180010
0800180010
04003C0020
06007E0060
03000000C0
0180000180
00C0000300
0030000C00
000F00F000
0003FFC000
00007E0000
0000000000
ENDCHAR

STARTCHAR chs_A2DA
ENCODING 41690
SWIDTH 960 0
DWIDTH 40 0
BBX 40 40 0 -6
BITMAP
0000000000
00007E0000
0003FFC000
000F00F000
0030000C00
00C0000300
0180000180
03000000C0
06007E0060
0401C38020
080300C010
080200C010
1000006008
1000006008
300000600C
300000C00C
200000C004
6000018006
6000038006
6000070006
6000070006
60000E0006
60000C0006
2000180004
300030000C
300060000C
1000E00008
1000C00008
0801800010
0803000010
0403FFF020
0603FFF060
03000000C0
0180000180
00C0000300
0030000C00
000F00F000
0003FFC000
00007E0000
0000000000
ENDCHAR

STARTCHAR chs_A2DB
ENCODING 41691
SWIDTH 960 0
DWIDTH 40 0
BBX 40 40 0 -6
BITMAP
0000000000
00007E0000
0003FFC000
000F00F000
0030000C00
00C0000300
0180000180
03000000C0
0607FFC060
0407FFC020
0800018010
0800030010
1000030008
1000060008
300006000C
30000C000C
20001F0004
60003FC006
600000E006
6000006006
6000003006
6000003006
6000003006
2000003004
300000300C
300000300C
1000003008
1000007008
0800006010
080300C010
0401C38020
06007E0060
03000000C0
0180000180
00C0000300
0030000C00
000F00F000
0003FFC000
00007E0000
0000000000
ENDCHAR

STARTCHAR chs_A2DC
ENCODING 41692
SWIDTH 960 0
DWIDTH 40 0
BBX 40 40 0 -6
BITMAP
0000000000
00007E0000
0003FFC000
000F00F000
0030000C00
00C0000300
0180000180
03000000C0
0600060060
04000F0020
08000F0010
08001F0010
10003F0008
1000370008
300077000C
3000E7000C
2000C70004
6001C70006
6001870006
6003070006
6006070006
6006070006
600C070006
201FFFF004
301FFFF00C
300007000C
1000070008
1000070008
0800070010
0800070010
04000F8020
06003FE060
03000000C0
0180000180
00C0000300
0030000C00
000F00F000
0003FFC000
00007E0000
0000000000
ENDCHAR

STARTCHAR chs_A2DD
ENCODING 41693
SWIDTH 960 0
DWIDTH 40 0
BBX 40 40 0 -6
BITMAP
0000000000
00007E0000
0003FFC000
000F00F000
0030000C00
00C0000300
0180000180
03000000C0
0603FFE060
0403FFE020
0803000010
0803000010
1003000008
1003000008
300300000C
300300000C
20031E0004
60037F8006
6003C1C006
6003006006
6002006006
6000003006
6000003006
2000003004
300000300C
300000300C
1000003008
1000007008
0800006010
080300C010
0401C38020
06007E0060
03000000C0
0180000180
00C0000300
0030000C00
000F00F000
0003FFC000
00007E0000
0000000000
ENDCHAR

STARTCHAR chs_A2DE
ENCODING 41694
SWIDTH 960 0
DWIDTH 40 0
BBX 40 40 0 -6
BITMAP
0000000000
00007E0000
0003FFC000
000F00F000
0030000C00
00C0000300
0180000180
03000000C0
06003FC060
0400F00020
0801C00010
0803800010
1003000008
1007000008
300600000C
300600000C
20061E0004
60067F8006
6006C1C006
6007006006
6006006006
6006003006
6006003006
2006003004
300600300C
300600300C
1006003008
1007007008
0803006010
080180C010
0400E38020
06007E0060
03000000C0
0180000180
00C0000300
0030000C00
000F00F000
0003FFC000
00007E0000
0000000000
ENDCHAR

STARTCHAR chs_A2DF
ENCODING 41695
SWIDTH 960 0
DWIDTH 40 0
BBX 40 40 0 -6
BITMAP
0000000000
00007E0000
0003FFC000
000F00F000
0030000C00
00C0000300
0180000180
03000000C0
060FFFE060
040FFFE020
080000C010
0800018010
1000038008
1000030008
300007000C
300007000C
2000060004
6000060006
60000C0006
60000C0006
60000C0006
6000180006
6000180006
2000180004
300030000C
300030000C
1000300008
1000600008
0800600010
0800600010
0400E00020
0600600060
03000000C0
0180000180
00C0000300
0030000C00
000F00F000
0003FFC000
00007E0000
0000000000
ENDCHAR

STARTCHAR chs_A2E0
ENCODING 41696
SWIDTH 960 0
DWIDTH 40 0
BBX 40 40 0 -6
BITMAP
0000000000
00007E0000
0003FFC000
000F00F000
0030000C00
00C0000300
0180000180
03000000C0
06007E0060
0401C38020
080300C010
080300C010
1006006008
1006006008
300600600C
300600600C
200300C00C
6001C38006
60007E0006
6000E70006
6001818006
600300C006
6006006006
200E007004
300C00300C
300C00300C
100C003008
100E007008
0806006010
080300C010
0401C38020
06007E0060
03000000C0
0180000180
00C0000300
0030000C00
000F00F000
0003FFC000
00007E0000
0000000000
ENDCHAR

STARTCHAR chs_A2E1
ENCODING 41697
SWIDTH 960 0
DWIDTH 40 0
BBX 40 40 0 -6
BITMAP
0000000000
00007E0000
0003FFC000
000F00F000
0030000C00
00C0000300
0180000180
03000000C0
06007E0060
0400E38020
080180C010
0803006010
1007007008
1006003008
300600300C
300600300C
2006003004
6006003006
6006003006
6003003006
6003007006
6001C1B006
6000FF3006
20003C3004
300000300C
300000300C
1000007008
1000006008
080000C010
0800018010
0400070020
0601FE0060
03000000C0
0180000180
00C0000300
0030000C00
000F00F000
0003FFC000
00007E0000
0000000000
ENDCHAR

STARTCHAR chs_A2E2
ENCODING 41698
SWIDTH 960 0
DWIDTH 40 0
BBX 40 40 0 -6
BITMAP
0000000000
00007E0000
0003FFC000
000F00F000
0030000C00
00C0000300
0180000180
03000000C0
060803C060
04180E7020
0838183810
08F8181810
1018301808
1018301808
301830180C
301830180C
2018301804
6018301806
6018301806
6018301806
6018301806
6018301806
6018301806
2018301804
301830180C
301830180C
1018301808
1018301808
0818181810
0818183810
043C0E7020
06FE03C060
03000000C0
0180000180
00C0000300
0030000C00
000F00F000
0003FFC000
00007E0000
0000000000
ENDCHAR

STARTCHAR chs_A2E5
ENCODING 41701
SWIDTH 960 0
DWIDTH 40 0
BBX 40 40 0 -6
BITMAP
0000000000
0000000000
0038001C00
0060000600
00C0000300
0180000180
03000000C0
07000000E0
0600000060
0C00000030
0C00000030
1800000018
380000001C
300000000C
300000000C
700000000E
700000000E
700000100E
700000180E
707FFFFC0E
707FFFFE0E
700000000E
700000000E
700000000E
700000000E
300000000C
300000000C
380000001C
1800000018
0C00000030
0C00000030
0600000060
07000000E0
03000000C0
0180000180
00C0000300
0060000600
0038001C00
0000000000
0000000000
ENDCHAR

STARTCHAR chs_A2E6
ENCODING 41702
SWIDTH 960 0
DWIDTH 40 0
BBX 40 40 0 -6
BITMAP
0000000000
0000000000
0038001C00
0060000600
00C0000300
0180000180
03000000C0
07000000E0
0600000060
0C00000030
0C00004030
180FFFE018
381FFFF01C
300FFFF00C
300000000C
700000000E
700000000E
700000000E
700000000E
700000000E
700000000E
700000000E
700000000E
700000000E
700000000E
300000180C
307FFFFC0C
387FFFFE1C
187FFFFE18
0C00000030
0C00000030
0600000060
07000000E0
03000000C0
0180000180
00C0000300
0060000600
0038001C00
0000000000
0000000000
ENDCHAR

STARTCHAR chs_A2E7
ENCODING 41703
SWIDTH 960 0
DWIDTH 40 0
BBX 40 40 0 -6
BITMAP
0000000000
0000000000
0038001C00
0060000600
00C0000300
0180000180
03000000C0
07000020E0
0600007060
0C1FFFF830
0C1FFFF830
1800000018
380000001C
300000000C
300000000C
700000000E
700000800E
700001C00E
700FFFE00E
700FFFF00E
700000000E
700000000E
700000000E
700000000E
700000000E
300000000C
300000000C
380000181C
187FFFFC18
0C7FFFFE30
0C00000030
0600000060
07000000E0
03000000C0
0180000180
00C0000300
0060000600
0038001C00
0000000000
0000000000
ENDCHAR

STARTCHAR chs_A2E8
ENCODING 41704
SWIDTH 960 0
DWIDTH 40 0
BBX 40 40 0 -6
BITMAP
0000000000
0000000000
0038001C00
0060000600
00C0000300
0180000180
03000000C0
07000000E0
0600000060
0C10001830
0C1FFFFC30
181FFFF818
3818E7181C
3018E7180C
3018E7180C
7018E7180E
7018E7180E
7018E7180E
7018E7180E
7018E7180E
7018E7180E
7018C7180E
7019C7F80E
701983F80E
701B00180E
701E00180E
301800180C
301800180C
1818001818
181FFFF818
0C1FFFF830
0C18001830
07180018E0
03000000C0
0180000180
00C0000300
0060000600
0038001C00
0000000000
0000000000
ENDCHAR

STARTCHAR chs_A2E9
ENCODING 41705
SWIDTH 960 0
DWIDTH 40 0
BBX 40 40 0 -6
BITMAP
0000000000
0000000000
0038001C00
0060000600
00C0000300
0180000180
03000000C0
07000070E0
061FFFF060
0C1FFFF830
0C00600030
1800600018
380060001C
300060000C
3000E0000C
7000E0400E
701FFFE00E
701FFFF00E
701FFFC00E
7000C0C00E
7001C0C00E
700180C00E
700181800E
700181800E
700181800E
300303000C
300303000C
3803031C1C
18FFFFFE18
0CFFFFFF30
0C00000030
0600000060
03000000E0
03000000C0
0180000180
00C0000300
0060000600
0038001C00
0000000000
0000000000
ENDCHAR

STARTCHAR chs_A2EA
ENCODING 41706
SWIDTH 960 0
DWIDTH 40 0
BBX 40 40 0 -6
BITMAP
0000000000
0000000000
0038001C00
0060000600
00C0000300
0180000180
03000000C0
07006000E0
0600300060
0C00180030
0C001C0030
18000C0018
38000C001C
300008080C
3000001C0C
70FFFFFE0E
70FFFFFF0E
700000000E
700102000E
7001E3000E
7001C1800E
700381C00E
700780E00E
700700F00E
700E00700E
300C00780C
301800380C
381800381C
1820003018
0C40002030
0C00000030
0600000060
07000000E0
03000000C0
0180000180
00C0000300
0060000600
0038001C00
0000000000
0000000000
ENDCHAR

STARTCHAR chs_A2EB
ENCODING 41707
SWIDTH 960 0
DWIDTH 40 0
BBX 40 40 0 -6
BITMAP
0000000000
0000000000
0038001C00
0060000600
00C0000300
0180000180
03000000C0
0700F000E0
0600F00060
0C00E00030
0C00E00030
1800E00018
3800E0001C
3000E0100C
3000E0380C
7000E1FC0E
7001FFE00E
700FFE000E
71FFF0000E
70F0E0000E
7040E0000E
7000E0300E
7000E0300E
7000E0300E
7000E0300E
3000E0380C
3000E0380C
3800E0381C
18007FF818
0C003FF030
0C00000030
0600000060
07000000E0
03000000C0
0180000180
00C0000300
0060000600
0038001C00
0000000000
0000000000
ENDCHAR

STARTCHAR chs_A2EC
ENCODING 41708
SWIDTH 960 0
DWIDTH 40 0
BBX 40 40 0 -6
BITMAP
0000000000
0000000000
0038001C00
0060000600
00C0000300
0180000180
03000800C0
07000E00E0
06000E0060
0C00040030
0C00060030
1801C60018
3801C6001C
300186000C
300187000C
700187000E
700303000E
700303000E
700701000E
700601800E
700601800E
700C00C00E
700C00C00E
700C00E00E
701C00600E
301800300C
301800300C
383000381C
1820001C18
0C40001F18
0C80000830
0600000030
03000000E0
03000000C0
0180000180
00C0000300
0060000600
0038001C00
0000000000
0000000000
ENDCHAR

STARTCHAR chs_A2ED
ENCODING 41709
SWIDTH 960 0
DWIDTH 40 0
BBX 40 40 0 -6
BITMAP
0000000000
0000000000
0038001C00
0060000600
00C0000300
0180000180
03000000C0
07004000E0
0600F00060
0C00F00030
0C00E00030
1800E00018
3800E0001C
3000E0000C
3000E3000C
7000E7800E
701FFF800E
701FFF000E
7000E7000E
7000E7000E
7000E7000E
7000C7000E
7000C7080E
700187080E
700187080E
3003070C0C
3003070C0C
3806070E1C
180E070E18
0C0C03FC30
0C1801F830
0630000060
07200000E0
03000000C0
0180000180
00C0000300
0060000600
0038001C00
0000000000
0000000000
ENDCHAR

STARTCHAR chs_A2EE
ENCODING 41710
SWIDTH 960 0
DWIDTH 40 0
BBX 40 40 0 -6
BITMAP
0000000000
0000000000
0038001C00
0060000600
00C0000300
0180000180
03001000C0
07001E00E0
06001C0060
0C00180030
0C00180030
1800180018
380018001C
300018000C
300018000C
700018000E
700018000E
7000181C0E
707FFFFE0E
707FFFFF0E
700018000E
700018000E
700018000E
700018000E
700018000E
300018000C
300018000C
380018001C
1800180018
0C00180030
0C00180030
0600180060
07001800E0
03001000C0
0180000180
00C0000300
0060000600
0038001C00
0000000000
0000000000
ENDCHAR

STARTCHAR chs_A2F1
ENCODING 41713
SWIDTH 960 0
DWIDTH 40 0
BBX 40 40 0 -6
BITMAP
0000000000
0000000000
0000000000
00007E0000
0000180000
0000180000
0000180000
0000180000
0000180000
0000180000
0000180000
0000180000
0000180000
0000180000
0000180000
0000180000
0000180000
0000180000
0000180000
0000180000
0000180000
0000180000
0000180000
0000180000
0000180000
0000180000
0000180000
0000180000
0000180000
0000180000
0000180000
0000180000
0000180000
0000180000
0000FF0000
0000000000
0000000000
0000000000
0000000000
0000000000
ENDCHAR

STARTCHAR chs_A2F2
ENCODING 41714
SWIDTH 960 0
DWIDTH 40 0
BBX 40 40 0 -6
BITMAP
0000000000
0000000000
0000000000
007FC3FE00
000E007000
000C003000
000C003000
000C003000
000C003000
000C003000
000C003000
000C003000
000C003000
000C003000
000C003000
000C003000
000C003000
000C003000
000C003000
000C003000
000C003000
000C003000
000C003000
000C003000
000C003000
000C003000
000C003000
000C003000
000C003000
000C003000
000C003000
000C003000
000C003000
000C003000
007FC3FE00
0000000000
0000000000
0000000000
0000000000
0000000000
ENDCHAR

STARTCHAR chs_A2F3
ENCODING 41715
SWIDTH 960 0
DWIDTH 40 0
BBX 40 40 0 -6
BITMAP
0000000000
0000000000
0000000000
03FC7E3FC0
0060180600
0060180600
0060180600
0060180600
0060180600
0060180600
0060180600
0060180600
0060180600
0060180600
0060180600
0060180600
0060180600
0060180600
0060180600
0060180600
0060180600
0060180600
0060180600
0060180600
0060180600
0060180600
0060180600
0060180600
0060180600
0060180600
0060180600
0060180600
0060180600
0060180600
03FCFF3FC0
0000000000
0000000000
0000000000
0000000000
0000000000
ENDCHAR

STARTCHAR chs_A2F4
ENCODING 41716
SWIDTH 960 0
DWIDTH 40 0
BBX 40 40 0 -6
BITMAP
0000000000
0000000000
0000000000
07F9FC01FC
00C0700060
00C0600040
00C0300040
00C03000C0
00C03000C0
00C01000C0
00C01801C0
00C0180180
00C0180180
00C00C0180
00C00C0100
00C00C0100
00C0040300
00C0060300
00C0060200
00C0060200
00C0070600
00C0070400
00C0030400
00C0030C00
00C0030C00
00C0030800
00C0018800
00C0019800
00C0019800
00C0009800
00C000F800
00C000F000
00C000F000
00C0006000
07FC006000
0000000000
0000000000
0000000000
0000000000
0000000000
ENDCHAR

STARTCHAR chs_A2F5
ENCODING 41717
SWIDTH 960 0
DWIDTH 40 0
BBX 40 40 0 -6
BITMAP
0000000000
0000000000
0000000000
01F8001F80
0060000200
0060000600
0030000400
0030000C00
0038000C00
0018000800
0018001800
001C001800
001C001800
000C003000
000C003000
000E003000
0006002000
0006006000
0003004000
0003004000
000300C000
0001808000
0001818000
0001C18000
0000C10000
0000C30000
0000E30000
0000E30000
0000660000
0000660000
0000760000
0000340000
00003C0000
0000180000
0000180000
0000000000
0000000000
0000000000
0000000000
0000000000
ENDCHAR

STARTCHAR chs_A2F6
ENCODING 41718
SWIDTH 960 0
DWIDTH 40 0
BBX 40 40 0 -6
BITMAP
0000000000
0000000000
0000000000
1FC01FBF80
0700060C00
0300060C00
0300060C00
0380060C00
0380040C00
0180040C00
01800C0C00
0180080C00
0180080C00
00C0180C00
00C0100C00
00C0100C00
0060100C00
0060300C00
0060200C00
0020200C00
0030600C00
0030600C00
0030600C00
0018600C00
0018C00C00
0018C00C00
0018C00C00
001CC00C00
001C800C00
000C800C00
000D800C00
000D000C00
000F000C00
0007000C00
0006007FC0
0000000000
0000000000
0000000000
0000000000
0000000000
ENDCHAR

STARTCHAR chs_A2F7
ENCODING 41719
SWIDTH 960 0
DWIDTH 40 0
BBX 40 40 0 -6
BITMAP
0000000000
0000000000
0000000000
3F807FF1F0
06001060E0
06001060C0
02001060C0
03003060C0
03002060C0
03002060C0
03002060C0
03806060C0
03806060C0
01806060C0
0180E060C0
0180C060C0
0180C060C0
0180C060C0
00C0C060C0
00C08060C0
00C08060C0
00618060C0
00618060C0
00610060C0
00610060C0
00210060C0
00330060C0
00320060C0
00320060C0
001E0060C0
001C0060C0
001C0060C0
001C0060C0
001C0060C0
001C01F9F0
0000000000
0000000000
0000000000
0000000000
0000000000
ENDCHAR

STARTCHAR chs_A2F8
ENCODING 41720
SWIDTH 960 0
DWIDTH 40 0
BBX 40 40 0 -6
BITMAP
0000000000
0000000000
0000000000
3E03DF3EFC
18018E1C30
1800861830
1801861830
0C01861830
0C01061830
0C01061830
0C01061830
0403061830
0602061830
0602061830
0602061830
0206061830
0304061830
0304061830
0304061830
030C061830
038C061830
038C061830
038C061830
018C061830
0198061830
0198061830
0198061830
0198061830
00D0061830
00D0061830
00D0061830
00F0061830
0070061830
0060061830
00601F3EFC
0000000000
0000000000
0000000000
0000000000
0000000000
ENDCHAR

STARTCHAR chs_A2F9
ENCODING 41721
SWIDTH 960 0
DWIDTH 40 0
BBX 40 40 0 -6
BITMAP
0000000000
0000000000
0000000000
01F9FC03E0
00607001C0
0060300180
0060380180
0060180300
00601C0200
00600C0600
0060060400
0060060C00
0060071800
0060031800
0060033800
006001B000
006001F000
006000E000
006000E000
006000E000
006001B000
0060013000
0060033800
0060031800
0060061800
0060060C00
00600C0E00
00600C0600
0060180700
0060100300
0060300180
0060200180
00606001C0
00606000C0
03FFF803F8
0000000000
0000000000
0000000000
0000000000
0000000000
ENDCHAR

STARTCHAR chs_A2FA
ENCODING 41722
SWIDTH 960 0
DWIDTH 40 0
BBX 40 40 0 -6
BITMAP
0000000000
0000000000
0000000000
01F8001F80
0030000C00
0018000800
0018001800
000C003000
000C003000
0006006000
0003004000
000300C000
0001C18000
0000C30000
0000E70000
0000660000
00007E0000
00003C0000
0000180000
00003C0000
0000260000
0000660000
0000C30000
0000C30000
0001818000
000100C000
000300C000
0006007000
000C003000
001C003800
0018001800
0038001C00
0030000E00
0060000600
03FC003FC0
0000000000
0000000000
0000000000
0000000000
0000000000
ENDCHAR

STARTCHAR chs_A2FB
ENCODING 41723
SWIDTH 960 0
DWIDTH 40 0
BBX 40 40 0 -6
BITMAP
0000000000
0000000000
0000000000
0FF03F1F80
03800C0600
01800C0600
01C0180600
00C0180600
0060300600
0060300600
0030600600
0030600600
0018C00600
0018C00600
001C800600
000D800600
000F000600
0007000600
0007000600
0007000600
000D800600
000D800600
0018C00600
0018C00600
0010E00600
0030600600
0060700600
0060300600
00C0180600
00C0180600
01800C0600
01800C0600
0300060600
0300060600
1FC01FFFC0
0000000000
0000000000
0000000000
0000000000
0000000000
ENDCHAR

STARTCHAR chs_A2FC
ENCODING 41724
SWIDTH 960 0
DWIDTH 40 0
BBX 40 40 0 -6
BITMAP
0000000000
0000000000
0000000000
1F80FBF7E0
060030C380
060060C180
030060C180
0300C0C180
0380C0C180
0180C0C180
01C180C180
00C180C180
00E100C180
006300C180
003200C180
003600C180
001C00C180
001C00C180
001C00C180
001C00C180
001C00C180
003E00C180
003600C180
006300C180
004300C180
00C300C180
008180C180
0181C0C180
0180C0C180
0300C0C180
0300E0C180
0600E0C180
060060C180
0C0060C180
3F80FBF7E0
0000000000
0000000000
0000000000
0000000000
0000000000
ENDCHAR

STARTCHAR chs_A3A1
ENCODING 41889
SWIDTH 960 0
DWIDTH 40 0
BBX 40 40 0 -6
BITMAP
0000000000
0000000000
0000000000
0180000000
03C0000000
03C0000000
03C0000000
03C0000000
03C0000000
03C0000000
03C0000000
03C0000000
03C0000000
03C0000000
03C0000000
0380000000
0380000000
0380000000
0380000000
0380000000
0380000000
0100000000
0000000000
0000000000
0000000000
0000000000
03C0000000
07E0000000
07E0000000
07E0000000
03C0000000
0180000000
0000000000
0000000000
0000000000
0000000000
0000000000
0000000000
0000000000
0000000000
ENDCHAR

STARTCHAR chs_A3A2
ENCODING 41890
SWIDTH 960 0
DWIDTH 40 0
BBX 40 40 0 -6
BITMAP
0000000000
0000000000
0000000000
000381C000
0007C3E000
0007C3E000
0007C3E000
0007C3E000
0007C3E000
0007C3E000
0007C3E000
000381C000
000381C000
000381C000
000381C000
000381C000
000381C000
000381C000
000300C000
0000000000
0000000000
0000000000
0000000000
0000000000
0000000000
0000000000
0000000000
0000000000
0000000000
0000000000
0000000000
0000000000
0000000000
0000000000
0000000000
0000000000
0000000000
0000000000
0000000000
0000000000
ENDCHAR

STARTCHAR chs_A3A3
ENCODING 41891
SWIDTH 960 0
DWIDTH 40 0
BBX 40 40 0 -6
BITMAP
0000000000
0000000000
0000C0C000
0000C0C000
0000C0C000
0000C0C000
0000C0C000
0000C0C000
0000C0C000
0000C0C000
0001C0C000
00FFFFFF00
00FFFFFF00
0001818000
0001818000
0001818000
0001818000
0001818000
0001818000
0001818000
00FFFFFF00
00FFFFFF00
0003030000
0003030000
0003030000
0003030000
0003030000
0003030000
0003030000
0003030000
0003030000
0003030000
0000000000
0000000000
0000000000
0000000000
0000000000
0000000000
0000000000
0000000000
ENDCHAR

STARTCHAR chs_A3A4
ENCODING 41892
SWIDTH 960 0
DWIDTH 40 0
BBX 40 40 0 -6
BITMAP
0000000000
007E007E00
00FE007F00
0038001800
001C003800
001E007000
000E006000
000700E000
000381C000
0001818000
0001C30000
0000E60000
0000E60000
00007C0000
0000380000
0000180000
0000180000
0000180000
0000180000
001FFFF800
0000180000
0000180000
0000180000
0000180000
0000180000
0000180000
0000180000
0000180000
0000180000
0000180000
0000180000
00007E0000
0000000000
0000000000
0000000000
0000000000
0000000000
0000000000
0000000000
0000000000
ENDCHAR

STARTCHAR chs_A3A5
ENCODING 41893
SWIDTH 960 0
DWIDTH 40 0
BBX 40 40 0 -6
BITMAP
0000000000
0000000000
0000000000
00F0000018
039C000030
030C000060
06060000C0
0606000180
0606000300
0606000600
0606000C00
0606001800
0606003000
0606006000
060600C000
0606018000
0606030000
030C060000
030C0C0000
00F0180000
0000300F00
00006030C0
0000C030C0
0001806060
0003006060
0006006060
000C006060
0018006060
0030006060
0060006060
00C0006060
0180006060
0300006060
0600006060
0C000030C0
18000039C0
0000000F00
0000000000
0000000000
0000000000
ENDCHAR

STARTCHAR chs_A3A6
ENCODING 41894
SWIDTH 960 0
DWIDTH 40 0
BBX 40 40 0 -6
BITMAP
0000000000
0000000000
0000000000
0000000000
000F000000
003DC00000
0030E00000
0070600000
0060600000
0060600000
0060600000
0030E00000
0030C00000
0038C00000
0019800000
001F000000
000E000000
000E000000
001F007F00
0033003C00
0061801800
00C1C01800
01C0C01800
0180E01800
0380603800
0380303000
0380383000
03801C6000
03800E4000
01800FC0C0
01C0078180
00E003C380
00780FFF00
003FFCFE00
000FF00000
0000000000
0000000000
0000000000
0000000000
0000000000
ENDCHAR

STARTCHAR chs_A3A7
ENCODING 41895
SWIDTH 960 0
DWIDTH 40 0
BBX 40 40 0 -6
BITMAP
0000000000
0030000000
0078000000
007C000000
0078000000
00F8000000
00F0000000
01E0000000
01E0000000
01C0000000
0380000000
0380000000
0300000000
0600000000
0400000000
0800000000
0000000000
0000000000
0000000000
0000000000
0000000000
0000000000
0000000000
0000000000
0000000000
0000000000
0000000000
0000000000
0000000000
0000000000
0000000000
0000000000
0000000000
0000000000
0000000000
0000000000
0000000000
0000000000
0000000000
0000000000
ENDCHAR

STARTCHAR chs_A3A8
ENCODING 41896
SWIDTH 960 0
DWIDTH 40 0
BBX 40 40 0 -6
BITMAP
0000000000
0000000000
0000000000
0000000060
00000001C0
0000000300
0000000600
0000001C00
0000001800
0000003000
0000007000
0000006000
000000E000
000000C000
000001C000
0000018000
0000018000
0000038000
0000038000
0000038000
0000038000
0000038000
0000038000
0000018000
0000018000
000001C000
000000C000
000000E000
0000006000
0000007000
0000003000
0000001800
0000001C00
0000000600
0000000300
00000001C0
0000000060
0000000000
0000000000
0000000000
ENDCHAR

STARTCHAR chs_A3A9
ENCODING 41897
SWIDTH 960 0
DWIDTH 40 0
BBX 40 40 0 -6
BITMAP
0000000000
0000000000
0000000000
0600000000
0380000000
00C0000000
0060000000
0038000000
0018000000
000C000000
000E000000
0006000000
0007000000
0003000000
0003800000
0001800000
0001800000
0001C00000
0001C00000
0001C00000
0001C00000
0001C00000
0001C00000
0001800000
0001800000
0003800000
0003000000
0007000000
0006000000
000E000000
000C000000
0018000000
0038000000
0060000000
00C0000000
0380000000
0600000000
0000000000
0000000000
0000000000
ENDCHAR

STARTCHAR chs_A3AA
ENCODING 41898
SWIDTH 960 0
DWIDTH 40 0
BBX 40 40 0 -6
BITMAP
0000000000
0000000000
0000000000
0000180000
0000180000
0000180000
0000180000
0000180000
0000180000
0000180000
0C00180030
07001800E0
03801801C0
00C0180300
0070180E00
0018181800
000E187000
000F18F000
0003DBC000
0000FF0000
00007E0000
0000180000
00007E0000
0000660000
0000C30000
0001818000
000300C000
000E007000
000C003000
0018001800
0030000C00
0060000600
01C0000380
0180000180
03000000C0
0600000060
0C00000030
0000000000
0000000000
0000000000
ENDCHAR

STARTCHAR chs_A3AB
ENCODING 41899
SWIDTH 960 0
DWIDTH 40 0
BBX 40 40 0 -6
BITMAP
0000000000
0000000000
0000000000
0000000000
0000000000
0000180000
0000180000
0000180000
0000180000
0000180000
0000180000
0000180000
0000180000
0000180000
0000180000
0000180000
0000180000
0000180000
0000180000
07FFFFFFE0
07FFFFFFE0
0000180000
0000180000
0000180000
0000180000
0000180000
0000180000
0000180000
0000180000
0000180000
0000180000
0000180000
0000180000
0000180000
0000180000
0000180000
0000000000
0000000000
0000000000
0000000000
ENDCHAR

STARTCHAR chs_A3AC
ENCODING 41900
SWIDTH 960 0
DWIDTH 40 0
BBX 40 40 0 -6
BITMAP
0000000000
0000000000
0000000000
0000000000
0000000000
0000000000
0000000000
0000000000
0000000000
0000000000
0000000000
0000000000
0000000000
0000000000
0000000000
0000000000
0000000000
0000000000
0000000000
0000000000
0000000000
0000000000
0000000000
0000000000
0000000000
03C0000000
07E0000000
07F0000000
07F0000000
07F0000000
03F0000000
01E0000000
00E0000000
00C0000000
01C0000000
0180000000
0300000000
0300000000
0400000000
0000000000
ENDCHAR

STARTCHAR chs_A3AD
ENCODING 41901
SWIDTH 960 0
DWIDTH 40 0
BBX 40 40 0 -6
BITMAP
0000000000
0000000000
0000000000
0000000000
0000000000
0000000000
0000000000
0000000000
0000000000
0000000000
0000000000
0000000000
0000000000
0000000000
0000000000
0000000000
0000000000
0000000000
0000000000
03FFFFFFC0
03FFFFFFC0
0000000000
0000000000
0000000000
0000000000
0000000000
0000000000
0000000000
0000000000
0000000000
0000000000
0000000000
0000000000
0000000000
0000000000
0000000000
0000000000
0000000000
0000000000
0000000000
ENDCHAR

STARTCHAR chs_A3AE
ENCODING 41902
SWIDTH 960 0
DWIDTH 40 0
BBX 40 40 0 -6
BITMAP
0000000000
0000000000
0000000000
0000000000
0000000000
0000000000
0000000000
0000000000
0000000000
0000000000
0000000000
0000000000
0000000000
0000000000
0000000000
0000000000
0000000000
0000000000
0000000000
0000000000
0000000000
0000000000
0000000000
0000000000
0000000000
03C0000000
07E0000000
07F0000000
07F0000000
07F0000000
03E0000000
01C0000000
0000000000
0000000000
0000000000
0000000000
0000000000
0000000000
0000000000
0000000000
ENDCHAR

STARTCHAR chs_A3AF
ENCODING 41903
SWIDTH 960 0
DWIDTH 40 0
BBX 40 40 0 -6
BITMAP
0000000000
0000000000
0000000000
0000000000
0000000000
0000000060
00000000C0
0000000180
0000000300
0000000600
0000000C00
0000001800
0000003000
0000006000
000000C000
0000018000
0000030000
0000060000
00000C0000
0000180000
0000300000
0000600000
0000C00000
0001800000
0003000000
0006000000
000C000000
0018000000
0030000000
0060000000
00C0000000
0180000000
0300000000
0600000000
0C00000000
0000000000
0000000000
0000000000
0000000000
0000000000
ENDCHAR

STARTCHAR chs_A3B0
ENCODING 41904
SWIDTH 960 0
DWIDTH 40 0
BBX 40 40 0 -6
BITMAP
0000000000
0000000000
0000000000
0000000000
0000000000
0000FF0000
0003C3C000
000700E000
0006006000
000E007000
000C003000
000C003000
000C003000
000C003000
000C003000
000C003000
000C003000
000C003000
000C003000
000C003000
000C003000
000C003000
000C003000
000C003000
000C003000
000C003000
000C003000
000C003000
000C003000
000C003000
000E007000
0006006000
000700E000
0003C3C000
0000FF0000
0000000000
0000000000
0000000000
0000000000
0000000000
ENDCHAR

STARTCHAR chs_A3B1
ENCODING 41905
SWIDTH 960 0
DWIDTH 40 0
BBX 40 40 0 -6
BITMAP
0000000000
0000000000
0000000000
0000000000
0000000000
0000080000
0000180000
0000780000
0000780000
0000180000
0000180000
0000180000
0000180000
0000180000
0000180000
0000180000
0000180000
0000180000
0000180000
0000180000
0000180000
0000180000
0000180000
0000180000
0000180000
0000180000
0000180000
0000180000
0000180000
0000180000
0000180000
0000180000
0000180000
00003C0000
0000FF0000
0000000000
0000000000
0000000000
0000000000
0000000000
ENDCHAR

STARTCHAR chs_A3B2
ENCODING 41906
SWIDTH 960 0
DWIDTH 40 0
BBX 40 40 0 -6
BITMAP
0000000000
0000000000
0000000000
0000000000
0000000000
0000FF0000
0003C3C000
000300E000
0002006000
0000007000
0000003000
0000003000
0000003000
0000006000
0000006000
000000C000
000000C000
0000018000
0000038000
0000070000
0000070000
00000E0000
00000C0000
0000180000
0000300000
0000600000
0000600000
0000C00000
0001800000
0001800000
0003000000
0006000000
000E000000
000FFFF000
000FFFF000
0000000000
0000000000
0000000000
0000000000
0000000000
ENDCHAR

STARTCHAR chs_A3B3
ENCODING 41907
SWIDTH 960 0
DWIDTH 40 0
BBX 40 40 0 -6
BITMAP
0000000000
0000000000
0000000000
0000000000
0000000000
0007FFC000
0007FFC000
0000038000
0000030000
0000070000
0000060000
00000E0000
00001C0000
0000380000
0000700000
0000FF8000
000001C000
0000006000
0000007000
0000003000
0000003000
0000003000
0000003000
0000003000
0000003000
0000003000
0000003000
0000003000
0000003000
0000003000
0000007000
0000006000
000600E000
000383C000
0001FF0000
0000000000
0000000000
0000000000
0000000000
0000000000
ENDCHAR

STARTCHAR chs_A3B4
ENCODING 41908
SWIDTH 960 0
DWIDTH 40 0
BBX 40 40 0 -6
BITMAP
0000000000
0000000000
0000000000
0000000000
0000000000
0000030000
0000070000
0000070000
00000F0000
00000B0000
0000130000
0000330000
0000630000
0000630000
0000C30000
0001830000
0001830000
0003030000
0006030000
0006030000
000C030000
0018030000
0018030000
0030030000
0020030000
0040038000
00FFFFF800
00FFFFF800
0000030000
0000030000
0000030000
0000030000
0000030000
0000038000
00000FE000
0000000000
0000000000
0000000000
0000000000
0000000000
ENDCHAR

STARTCHAR chs_A3B5
ENCODING 41909
SWIDTH 960 0
DWIDTH 40 0
BBX 40 40 0 -6
BITMAP
0000000000
0000000000
0000000000
0000000000
0000000000
0007FFF000
0007FFF000
0006000000
0006000000
0006000000
0006000000
0006000000
0006000000
0006000000
0006000000
0006000000
0006FF8000
0007C3C000
000700E000
0006006000
0000003000
0000003000
0000003000
0000003000
0000003000
0000003000
0000003000
0000003000
0000003000
0000003000
0000006000
000000E000
000601C000
0003838000
0001FE0000
0000000000
0000000000
0000000000
0000000000
0000000000
ENDCHAR

STARTCHAR chs_A3B6
ENCODING 41910
SWIDTH 960 0
DWIDTH 40 0
BBX 40 40 0 -6
BITMAP
0000000000
0000000000
0000000000
0000000000
0000000000
00003FC000
0001E00000
0003C00000
0007000000
000E000000
000C000000
001C000000
001C000000
001C000000
001C000000
001C000000
001C3E0000
001CFF8000
001DC1C000
001E006000
001C006000
001C003000
001C003000
001C003000
001C003000
001C003000
001C003000
001C003000
001C003000
001C003000
000C006000
000E00E000
000701C000
0003C38000
0000FE0000
0000000000
0000000000
0000000000
0000000000
0000000000
ENDCHAR

STARTCHAR chs_A3B7
ENCODING 41911
SWIDTH 960 0
DWIDTH 40 0
BBX 40 40 0 -6
BITMAP
0000000000
0000000000
0000000000
0000000000
0000000000
000FFFF800
000FFFF800
0000003000
0000003000
0000002000
0000006000
000000C000
000000C000
0000018000
0000018000
0000030000
0000030000
0000070000
0000060000
0000060000
0000060000
00000C0000
00000C0000
0000080000
0000180000
0000180000
0000180000
0000300000
0000300000
0000300000
0000600000
0000600000
0000600000
0000600000
0000E00000
0000000000
0000000000
0000000000
0000000000
0000000000
ENDCHAR

STARTCHAR chs_A3B8
ENCODING 41912
SWIDTH 960 0
DWIDTH 40 0
BBX 40 40 0 -6
BITMAP
0000000000
0000000000
0000000000
0000000000
0000000000
0000FF8000
0003C1C000
0007007000
0006003000
000E003800
000C003800
000C003800
000C003800
000C003800
0006003000
0006007000
000300E000
0001C1C000
0000E38000
00003E0000
0000E38000
000380C000
0007007000
000E003000
000C003800
001C001800
001C001800
001C001800
001C001800
001C001800
000C003800
000E003000
0007007000
0003C1C000
0000FF8000
0000000000
0000000000
0000000000
0000000000
0000000000
ENDCHAR

STARTCHAR chs_A3B9
ENCODING 41913
SWIDTH 960 0
DWIDTH 40 0
BBX 40 40 0 -6
BITMAP
0000000000
0000000000
0000000000
0000000000
0000000000
0000FE0000
0003C38000
000701C000
000E00E000
000C006000
001C003000
001C003000
001C003000
001C003000
001C003000
001C003000
001C003000
001C003000
001C003000
000C007000
000E00B000
0007033000
0003FE3000
0000F83000
0000003000
0000003000
0000003000
0000003000
0000003000
0000006000
0000006000
000000C000
0000038000
00000F0000
0007F80000
0000000000
0000000000
0000000000
0000000000
0000000000
ENDCHAR

STARTCHAR chs_A3BA
ENCODING 41914
SWIDTH 960 0
DWIDTH 40 0
BBX 40 40 0 -6
BITMAP
0000000000
0000000000
0000000000
0000000000
0000000000
0000000000
0000000000
0000000000
0000000000
0000000000
0000000000
0000000000
0000000000
01C0000000
03E0000000
07F0000000
07F0000000
07F0000000
07E0000000
03C0000000
0000000000
0000000000
0000000000
0000000000
0000000000
03C0000000
07E0000000
07F0000000
07F0000000
07F0000000
03E0000000
01C0000000
0000000000
0000000000
0000000000
0000000000
0000000000
0000000000
0000000000
0000000000
ENDCHAR

STARTCHAR chs_A3BB
ENCODING 41915
SWIDTH 960 0
DWIDTH 40 0
BBX 40 40 0 -6
BITMAP
0000000000
0000000000
0000000000
0000000000
0000000000
0000000000
0000000000
0000000000
0000000000
0000000000
0000000000
0000000000
0000000000
01C0000000
03E0000000
07F0000000
07F0000000
07F0000000
07E0000000
03C0000000
0000000000
0000000000
0000000000
0000000000
0000000000
03C0000000
07E0000000
07F0000000
07F0000000
07F0000000
03F0000000
01E0000000
00E0000000
00C0000000
01C0000000
0180000000
0300000000
0300000000
0400000000
0000000000
ENDCHAR

STARTCHAR chs_A3BC
ENCODING 41916
SWIDTH 960 0
DWIDTH 40 0
BBX 40 40 0 -6
BITMAP
0000000000
0000000000
0000000000
0000000010
0000000070
00000001C0
0000000780
0000001E00
0000007800
000001C000
0000070000
00001E0000
0000780000
0001E00000
0007000000
001C000000
0078000000
01E0000000
0780000000
1C00000000
0700000000
01E0000000
00F8000000
003C000000
0007000000
0001C00000
0000780000
00003E0000
00000F0000
000001C000
0000007000
0000001E00
0000000F80
00000003C0
0000000070
0000000010
0000000000
0000000000
0000000000
0000000000
ENDCHAR

STARTCHAR chs_A3BD
ENCODING 41917
SWIDTH 960 0
DWIDTH 40 0
BBX 40 40 0 -6
BITMAP
0000000000
0000000000
0000000000
0000000000
0000000000
0000000000
0000000000
0000000000
0000000000
0000000000
0000000000
0000000000
0000000000
01FFFFFF80
03FFFFFFC0
0000000000
0000000000
0000000000
0000000000
0000000000
0000000000
0000000000
0000000000
0000000000
0000000000
03FFFFFFC0
01FFFFFF80
0000000000
0000000000
0000000000
0000000000
0000000000
0000000000
0000000000
0000000000
0000000000
0000000000
0000000000
0000000000
0000000000
ENDCHAR

STARTCHAR chs_A3BE
ENCODING 41918
SWIDTH 960 0
DWIDTH 40 0
BBX 40 40 0 -6
BITMAP
0000000000
0000000000
0000000000
0800000000
0E00000000
0380000000
01E0000000
0078000000
001E000000
0003800000
0000E00000
0000780000
00001E0000
0000078000
000000E000
0000003800
0000001E00
0000000780
00000001E0
0000000038
00000000E0
0000000780
0000001F00
0000003C00
000000E000
0000038000
00001E0000
00007C0000
0000F00000
0003800000
000E000000
0078000000
01F0000000
03C0000000
0E00000000
0800000000
0000000000
0000000000
0000000000
0000000000
ENDCHAR

STARTCHAR chs_A3BF
ENCODING 41919
SWIDTH 960 0
DWIDTH 40 0
BBX 40 40 0 -6
BITMAP
0000000000
0000000000
0000000000
0000000000
0000000000
03F0000000
0F1C000000
1C0E000000
1E0E000000
1E0E000000
0C1C000000
001C000000
0038000000
0070000000
00E0000000
01C0000000
01C0000000
0380000000
0380000000
0380000000
0380000000
0380000000
0180000000
0000000000
0000000000
0000000000
03C0000000
07E0000000
07E0000000
07E0000000
03C0000000
0180000000
0000000000
0000000000
0000000000
0000000000
0000000000
0000000000
0000000000
0000000000
ENDCHAR

STARTCHAR chs_A3C0
ENCODING 41920
SWIDTH 960 0
DWIDTH 40 0
BBX 40 40 0 -6
BITMAP
0000000000
0000FF8000
0003FFE000
000F00F000
001C001800
0038000C00
0030000600
0070000700
0060000300
0000000380
0000000180
0000780180
0001FE0180
0003870180
0006030180
0006018180
000C018180
000C018180
000C018180
000C018180
000C018180
000C018180
000C018180
000C018180
000C018180
000C018180
000C018180
000C038380
0006038300
000606C600
00039C6C00
0000F03800
0000000000
0000000000
0000000000
0000000000
0000000000
0000000000
0000000000
0000000000
ENDCHAR

STARTCHAR chs_A3C1
ENCODING 41921
SWIDTH 960 0
DWIDTH 40 0
BBX 40 40 0 -6
BITMAP
0000000000
0000180000
0000180000
00001C0000
00003C0000
00002E0000
00002E0000
0000660000
0000670000
0000E70000
0000C70000
0000C30000
0000C38000
0000838000
0001818000
000101C000
000301C000
000300E000
0003FFE000
0006006000
0004007000
0004007000
000C003000
000C003800
001C003800
0018003800
0018001800
0018001C00
0010001C00
0030000E00
0078001F00
01FC007FC0
0000000000
0000000000
0000000000
0000000000
0000000000
0000000000
0000000000
0000000000
ENDCHAR

STARTCHAR chs_A3C2
ENCODING 41922
SWIDTH 960 0
DWIDTH 40 0
BBX 40 40 0 -6
BITMAP
0000000000
003FFE0000
003FFF8000
000E03C000
000E01E000
000E00E000
000E00F000
000E00F000
000E00F000
000E00F000
000E00E000
000E01E000
000E03C000
000E038000
000E070000
000FFE0000
000E03C000
000E01E000
000E00F000
000E007800
000E003800
000E003800
000E003800
000E003800
000E003800
000E003800
000E007800
000E007800
000E00F000
000E01E000
001E078000
007FFE0000
0000000000
0000000000
0000000000
0000000000
0000000000
0000000000
0000000000
0000000000
ENDCHAR

STARTCHAR chs_A3C3
ENCODING 41923
SWIDTH 960 0
DWIDTH 40 0
BBX 40 40 0 -6
BITMAP
0000000000
0000FC0000
0003FF0800
000F03C800
001E007800
003C003800
0078001800
0070001800
00E0000800
00E0000800
01C0000800
01C0000000
01C0000000
03C0000000
03C0000000
03C0000000
03C0000000
03C0000000
03C0000000
03C0000000
03C0000000
01C0000000
01C0000400
01E0000400
00E0000400
00F0000C00
0070000800
0078001800
003C003000
001F00E000
0007C38000
0001FE0000
0000000000
0000000000
0000000000
0000000000
0000000000
0000000000
0000000000
0000000000
ENDCHAR

STARTCHAR chs_A3C4
ENCODING 41924
SWIDTH 960 0
DWIDTH 40 0
BBX 40 40 0 -6
BITMAP
0000000000
01FFF80000
01FFFE0000
00780F8000
003800E000
0038007000
0038003800
0038003800
0038001C00
0038001C00
0038000E00
0038000E00
0038000F00
0038000F00
0038000F00
0038000F00
0038000F00
0038000F00
0038000F00
0038000F00
0038000F00
0038000F00
0038000F00
0038001E00
0038001C00
0038003C00
0038003800
0038007000
003800E000
003803C000
00780F0000
01FFFC0000
0000000000
0000000000
0000000000
0000000000
0000000000
0000000000
0000000000
0000000000
ENDCHAR

STARTCHAR chs_A3C5
ENCODING 41925
SWIDTH 960 0
DWIDTH 40 0
BBX 40 40 0 -6
BITMAP
0000000000
003FFFE000
003FFFF000
000E007000
000E003000
000E003000
000E003000
000E003000
000E000000
000E000000
000E000000
000E000000
000E010000
000E010000
000E030000
000FFF0000
000E030000
000E010000
000E010000
000E000000
000E000000
000E000000
000E000000
000E000000
000E000000
000E001800
000E001800
000E001800
000E001800
000E003800
001E007800
007FFFF000
0000000000
0000000000
0000000000
0000000000
0000000000
0000000000
0000000000
0000000000
ENDCHAR

STARTCHAR chs_A3C6
ENCODING 41926
SWIDTH 960 0
DWIDTH 40 0
BBX 40 40 0 -6
BITMAP
0000000000
001FFFF000
001FFFF800
0007003800
0007003800
0007001800
0007001800
0007001000
0007000000
0007000000
0007000000
0007010000
0007010000
0007030000
0007FF0000
0007030000
0007010000
0007010000
0007000000
0007000000
0007000000
0007000000
0007000000
0007000000
0007000000
0007000000
0007000000
0007000000
0007000000
0007000000
000F800000
003FE00000
0000000000
0000000000
0000000000
0000000000
0000000000
0000000000
0000000000
0000000000
ENDCHAR

STARTCHAR chs_A3C7
ENCODING 41927
SWIDTH 960 0
DWIDTH 40 0
BBX 40 40 0 -6
BITMAP
0000000000
0000FC0000
0003FF1000
000783D800
000E007800
001C003800
0038003800
0038001800
0070001800
0070001800
00E0000000
00E0000000
01E0000000
01E0000000
01E0000000
01E0000000
01E0000000
01E001FF80
01E000FF00
01E0003C00
01E0003800
00E0003800
00E0003800
0070003800
0070003800
0038003800
0038003800
001C003800
000E003000
0007006000
0001C1C000
00007F0000
0000000000
0000000000
0000000000
0000000000
0000000000
0000000000
0000000000
0000000000
ENDCHAR

STARTCHAR chs_A3C8
ENCODING 41928
SWIDTH 960 0
DWIDTH 40 0
BBX 40 40 0 -6
BITMAP
0000000000
00FE00FE00
01FE00FF00
0078003C00
0038003800
0038003800
0038003800
0038003800
0038003800
0038003800
0038003800
0038003800
0038003800
0038003800
0038003800
003FFFF800
0038003800
0038003800
0038003800
0038003800
0038003800
0038003800
0038003800
0038003800
0038003800
0038003800
0038003800
0038003800
0038003800
0038003800
007C007C00
01FF01FF80
0000000000
0000000000
0000000000
0000000000
0000000000
0000000000
0000000000
0000000000
ENDCHAR

STARTCHAR chs_A3C9
ENCODING 41929
SWIDTH 960 0
DWIDTH 40 0
BBX 40 40 0 -6
BITMAP
0000000000
0000FE0000
0000FE0000
0000380000
0000380000
0000380000
0000380000
0000380000
0000380000
0000380000
0000380000
0000380000
0000380000
0000380000
0000380000
0000380000
0000380000
0000380000
0000380000
0000380000
0000380000
0000380000
0000380000
0000380000
0000380000
0000380000
0000380000
0000380000
0000380000
0000380000
00007C0000
0001FF0000
0000000000
0000000000
0000000000
0000000000
0000000000
0000000000
0000000000
0000000000
ENDCHAR

STARTCHAR chs_A3CA
ENCODING 41930
SWIDTH 960 0
DWIDTH 40 0
BBX 40 40 0 -6
BITMAP
0000000000
00007F0000
00007F0000
00001C0000
00001C0000
00001C0000
00001C0000
00001C0000
00001C0000
00001C0000
00001C0000
00001C0000
00001C0000
00001C0000
00001C0000
00001C0000
00001C0000
00001C0000
00001C0000
00001C0000
00001C0000
00001C0000
00001C0000
00001C0000
00001C0000
00001C0000
00071C0000
000F9C0000
0007180000
0007180000
0003300000
0001E00000
0000000000
0000000000
0000000000
0000000000
0000000000
0000000000
0000000000
0000000000
ENDCHAR

STARTCHAR chs_A3CB
ENCODING 41931
SWIDTH 960 0
DWIDTH 40 0
BBX 40 40 0 -6
BITMAP
0000000000
007F01FE00
00FF03FE00
003C007800
001C006000
001C00C000
001C018000
001C030000
001C060000
001C0C0000
001C180000
001C300000
001C600000
001CE00000
001DF00000
001F700000
001E380000
001C3C0000
001C1C0000
001C0E0000
001C0E0000
001C070000
001C070000
001C070000
001C038000
001C038000
001C01C000
001C01E000
001C00F000
001C007000
003E00FC00
01FF83FF00
0000000000
0000000000
0000000000
0000000000
0000000000
0000000000
0000000000
0000000000
ENDCHAR

STARTCHAR chs_A3CC
ENCODING 41932
SWIDTH 960 0
DWIDTH 40 0
BBX 40 40 0 -6
BITMAP
0000000000
003F800000
003FC00000
000F000000
000E000000
000E000000
000E000000
000E000000
000E000000
000E000000
000E000000
000E000000
000E000000
000E000000
000E000000
000E000000
000E000000
000E000000
000E000000
000E000000
000E000000
000E000000
000E000000
000E000000
000E000800
000E000800
000E000800
000E000800
000E001800
000E001800
001E003800
007FFFF800
0000000000
0000000000
0000000000
0000000000
0000000000
0000000000
0000000000
0000000000
ENDCHAR

STARTCHAR chs_A3CD
ENCODING 41933
SWIDTH 960 0
DWIDTH 40 0
BBX 40 40 0 -6
BITMAP
0000000000
01E0000F80
01F0001F80
0078001E00
0078003E00
0058003E00
005C003E00
005C003E00
005C002E00
004C006E00
004C006E00
004E00CE00
004E00CE00
004600CE00
0046018E00
0047018E00
0043010E00
0043830E00
0043830E00
0041870E00
0041C70E00
0040C60E00
0040C60E00
0040E40E00
0040EC0E00
0040EC0E00
0040780E00
0040780E00
0040380E00
0040300E00
00E0001F00
03F8007FC0
0000000000
0000000000
0000000000
0000000000
0000000000
0000000000
0000000000
0000000000
ENDCHAR

STARTCHAR chs_A3CE
ENCODING 41934
SWIDTH 960 0
DWIDTH 40 0
BBX 40 40 0 -6
BITMAP
0000000000
00F8003E00
01FC003F00
007C000C00
003C000800
002E000800
002F000800
0027000800
0023800800
0023800800
0021C00800
0021C00800
0020E00800
0020E00800
0020E00800
0020700800
0020780800
0020380800
00201C0800
00201C0800
00200E0800
00200E0800
0020070800
0020070800
0020038800
002001C800
002001C800
002000F800
0020007800
0020007800
0070003800
01FC001800
0000000000
0000000000
0000000000
0000000000
0000000000
0000000000
0000000000
0000000000
ENDCHAR

STARTCHAR chs_A3CF
ENCODING 41935
SWIDTH 960 0
DWIDTH 40 0
BBX 40 40 0 -6
BITMAP
0000000000
00003E0000
0001FFC000
0007C1F000
000E007800
001C003C00
0038001E00
0038000E00
0070000700
0070000700
00E0000380
00E0000380
01E0000380
01C00001C0
01C00001C0
01C00001C0
01C00001C0
01C00001C0
01C00001C0
01C00001C0
01C00003C0
00E0000380
00E0000380
0070000700
0070000700
0038000E00
0038000E00
001C001C00
000E003800
0007807000
0001E3C000
00007E0000
0000000000
0000000000
0000000000
0000000000
0000000000
0000000000
0000000000
0000000000
ENDCHAR

STARTCHAR chs_A3D0
ENCODING 41936
SWIDTH 960 0
DWIDTH 40 0
BBX 40 40 0 -6
BITMAP
0000000000
001FFF0000
001FFFC000
000701F000
0007007800
0007003800
0007003C00
0007003C00
0007003C00
0007003C00
0007003C00
0007003C00
0007003C00
0007003800
0007003800
0007007800
000701F000
0007FFC000
0007FF0000
0007000000
0007000000
0007000000
0007000000
0007000000
0007000000
0007000000
0007000000
0007000000
0007000000
0007000000
000F800000
003FE00000
0000000000
0000000000
0000000000
0000000000
0000000000
0000000000
0000000000
0000000000
ENDCHAR

STARTCHAR chs_A3D1
ENCODING 41937
SWIDTH 960 0
DWIDTH 40 0
BBX 40 40 0 -6
BITMAP
0000000000
00003E0000
0001FFC000
0007C1F000
000E007800
001C003C00
0038001E00
0038000E00
0070000700
0070000700
00E0000380
00E0000380
01E0000380
01C00001C0
01C00001C0
01C00001C0
01C00001C0
01C00001C0
01C00001C0
01C00001C0
01C00003C0
01E0000380
00E0000380
00E0000700
0070700700
0071FC0E00
003B860E00
001F031C00
000F033800
000781F000
0001E3C000
00007EC010
000000E030
000000E060
00000060E0
00000071C0
0000003F80
0000003F80
0000001E00
0000000000
ENDCHAR

STARTCHAR chs_A3D2
ENCODING 41938
SWIDTH 960 0
DWIDTH 40 0
BBX 40 40 0 -6
BITMAP
0000000000
003FFC0000
003FFF0000
000E03C000
000E00E000
000E00F000
000E007000
000E007800
000E007800
000E007800
000E007000
000E00F000
000E01E000
000E03C000
000FFE0000
000E380000
000E1C0000
000E1E0000
000E0E0000
000E0F0000
000E070000
000E070000
000E038000
000E038000
000E01C000
000E01C000
000E00E000
000E00F000
000E007000
000E007800
001F007C00
007FC0FE00
0000000000
0000000000
0000000000
0000000000
0000000000
0000000000
0000000000
0000000000
ENDCHAR

STARTCHAR chs_A3D3
ENCODING 41939
SWIDTH 960 0
DWIDTH 40 0
BBX 40 40 0 -6
BITMAP
0000000000
0000FE0000
0003FF9800
000703F800
000E007800
001E003800
001C001800
001C001800
001C000000
001C000000
001E000000
001F000000
000F800000
0007C00000
0003F00000
0000F80000
00007F0000
00001FC000
000007E000
000001F000
000000F800
0000007800
0020003800
0020003800
0020003800
0030003800
0030007800
0038007800
003C00F000
003E01E000
002387C000
0020FF0000
0000000000
0000000000
0000000000
0000000000
0000000000
0000000000
0000000000
0000000000
ENDCHAR

STARTCHAR chs_A3D4
ENCODING 41940
SWIDTH 960 0
DWIDTH 40 0
BBX 40 40 0 -6
BITMAP
0000000000
007FFFFE00
00FFFFFE00
00E0380600
00C0380600
0080380200
0080380200
0080380200
0000380000
0000380000
0000380000
0000380000
0000380000
0000380000
0000380000
0000380000
0000380000
0000380000
0000380000
0000380000
0000380000
0000380000
0000380000
0000380000
0000380000
0000380000
0000380000
0000380000
0000380000
0000380000
00007C0000
0001FF0000
0000000000
0000000000
0000000000
0000000000
0000000000
0000000000
0000000000
0000000000
ENDCHAR

STARTCHAR chs_A3D5
ENCODING 41941
SWIDTH 960 0
DWIDTH 40 0
BBX 40 40 0 -6
BITMAP
0000000000
00FE003E00
01FE003F00
0078000C00
0038000800
0038000800
0038000800
0038000800
0038000800
0038000800
0038000800
0038000800
0038000800
0038000800
0038000800
0038000800
0038000800
0038000800
0038000800
0038000800
0038000800
0038000800
0038000800
0038000800
0038000800
0038000800
0038000800
0038001800
001C001000
001E002000
000780C000
0001FF0000
0000000000
0000000000
0000000000
0000000000
0000000000
0000000000
0000000000
0000000000
ENDCHAR

STARTCHAR chs_A3D6
ENCODING 41942
SWIDTH 960 0
DWIDTH 40 0
BBX 40 40 0 -6
BITMAP
0000000000
01FE003F00
01FE003F80
0078000C00
0038000C00
001C001800
001C001800
001C001800
001C003800
001C003000
000E003000
000E003000
000E006000
0007006000
0007004000
000300C000
000380C000
0003818000
0001C18000
0001C18000
0000C30000
0000E30000
0000E30000
0000E70000
0000E60000
0000760000
0000760000
00007C0000
00003C0000
0000180000
0000180000
0000180000
0000000000
0000000000
0000000000
0000000000
0000000000
0000000000
0000000000
0000000000
ENDCHAR

STARTCHAR chs_A3D7
ENCODING 41943
SWIDTH 960 0
DWIDTH 40 0
BBX 40 40 0 -6
BITMAP
0000000000
1F80FC00F8
3F80FE00FC
0F00380020
0700380020
0700380060
03801C0040
03801C0040
03801C00C0
03801E00C0
03801E00C0
0180360080
01C0260180
01C0670180
01C0670180
00C0670100
00E0670100
00E0C30300
0060C38200
0070C38200
0070838600
003081C400
003981C400
003901CC00
001900CC00
001D00E800
001F00F800
001E007800
001E007800
000E007000
000C003000
000C003000
0000000000
0000000000
0000000000
0000000000
0000000000
0000000000
0000000000
0000000000
ENDCHAR

STARTCHAR chs_A3D8
ENCODING 41944
SWIDTH 960 0
DWIDTH 40 0
BBX 40 40 0 -6
BITMAP
0000000000
00FF007E00
01FF007F00
003C001800
001C003800
001E003000
000F006000
000700E000
000380C000
0003818000
0001C30000
0000E30000
0000E60000
0000640000
00007C0000
0000380000
0000380000
00007E0000
00006E0000
0000EF0000
0000C70000
0001838000
000383C000
000301C000
000600E000
000C007000
000C007000
0018003800
0010003800
0030001C00
0060001E00
01F8007F80
0000000000
0000000000
0000000000
0000000000
0000000000
0000000000
0000000000
0000000000
ENDCHAR

STARTCHAR chs_A3D9
ENCODING 41945
SWIDTH 960 0
DWIDTH 40 0
BBX 40 40 0 -6
BITMAP
0000000000
00FE003F00
01FE003F80
0078001C00
003C001800
001C003800
001C003000
000E003000
000E006000
0007004000
000700C000
0003808000
0003C18000
0001C30000
0001E70000
0000E60000
00007C0000
00007C0000
0000380000
0000380000
0000380000
0000380000
0000380000
0000380000
0000380000
0000380000
0000380000
0000380000
0000380000
0000380000
00007C0000
0001FF0000
0000000000
0000000000
0000000000
0000000000
0000000000
0000000000
0000000000
0000000000
ENDCHAR

STARTCHAR chs_A3DA
ENCODING 41946
SWIDTH 960 0
DWIDTH 40 0
BBX 40 40 0 -6
BITMAP
0000000000
000FFFFC00
001FFFFC00
001C003800
001C003800
0018007000
001800E000
000801E000
000001C000
0000038000
0000070000
0000070000
0000070000
00000E0000
00001C0000
00001C0000
0000380000
0000780000
0000700000
0000F00000
0000E00000
0000E00000
0001C00000
0001C00000
0003800000
0003800400
0007000400
000F000400
000E000C00
001E000C00
001E001C00
001FFFFC00
0000000000
0000000000
0000000000
0000000000
0000000000
0000000000
0000000000
0000000000
ENDCHAR

STARTCHAR chs_A3DB
ENCODING 41947
SWIDTH 960 0
DWIDTH 40 0
BBX 40 40 0 -6
BITMAP
0000000000
000000FFF0
000001FFF8
000001FFF0
0000018000
0000018000
0000018000
0000018000
0000018000
0000018000
0000018000
0000018000
0000018000
0000018000
0000018000
0000018000
0000018000
0000018000
0000018000
0000018000
0000018000
0000018000
0000018000
0000018000
0000018000
0000018000
0000018000
0000018000
0000018000
0000018000
0000018000
0000018000
0000018000
0000018000
0000018000
0000018000
000001FFF0
000001FFF8
000000FFF0
0000000000
ENDCHAR

STARTCHAR chs_A3DC
ENCODING 41948
SWIDTH 960 0
DWIDTH 40 0
BBX 40 40 0 -6
BITMAP
0000000000
0000000000
0000000000
0000000000
0000000000
0600000000
0300000000
0180000000
00C0000000
0060000000
0030000000
0018000000
000C000000
0006000000
0003000000
0001800000
0000C00000
0000600000
0000300000
0000180000
00000C0000
0000060000
0000030000
0000018000
000000C000
0000006000
0000003000
0000001800
0000000C00
0000000600
0000000300
0000000180
00000000C0
0000000060
0000000030
0000000000
0000000000
0000000000
0000000000
0000000000
ENDCHAR

STARTCHAR chs_A3DD
ENCODING 41949
SWIDTH 960 0
DWIDTH 40 0
BBX 40 40 0 -6
BITMAP
0000000000
0FFF000000
1FFF800000
0FFF800000
0001800000
0001800000
0001800000
0001800000
0001800000
0001800000
0001800000
0001800000
0001800000
0001800000
0001800000
0001800000
0001800000
0001800000
0001800000
0001800000
0001800000
0001800000
0001800000
0001800000
0001800000
0001800000
0001800000
0001800000
0001800000
0001800000
0001800000
0001800000
0001800000
0001800000
0001800000
0001800000
0FFF800000
1FFF800000
0FFF000000
0000000000
ENDCHAR

STARTCHAR chs_A3DE
ENCODING 41950
SWIDTH 960 0
DWIDTH 40 0
BBX 40 40 0 -6
BITMAP
0000000000
0000100000
0000380000
0000380000
00007C0000
0000E60000
0000C60000
0001C30000
0001830000
0003018000
000600C000
000600C000
000C007000
000C002000
0000000000
0000000000
0000000000
0000000000
0000000000
0000000000
0000000000
0000000000
0000000000
0000000000
0000000000
0000000000
0000000000
0000000000
0000000000
0000000000
0000000000
0000000000
0000000000
0000000000
0000000000
0000000000
0000000000
0000000000
0000000000
0000000000
ENDCHAR

STARTCHAR chs_A3DF
ENCODING 41951
SWIDTH 960 0
DWIDTH 40 0
BBX 40 40 0 -6
BITMAP
0000000000
0000000000
0000000000
0000000000
0000000000
0000000000
0000000000
0000000000
0000000000
0000000000
0000000000
0000000000
0000000000
0000000000
0000000000
0000000000
0000000000
0000000000
0000000000
0000000000
0000000000
0000000000
0000000000
0000000000
0000000000
0000000000
0000000000
0000000000
0000000000
0000000000
0000000000
0000000000
0000000000
0000000000
0000000000
0000000000
0000000000
0000000000
FFFFFFFFFF
FFFFFFFFFF
ENDCHAR

STARTCHAR chs_A3E0
ENCODING 41952
SWIDTH 960 0
DWIDTH 40 0
BBX 40 40 0 -6
BITMAP
0000000000
0000000C00
0000001E00
0000003E00
0000001E00
0000001F00
0000000F00
0000000780
0000000780
0000000380
00000001C0
00000001C0
00000000C0
0000000060
0000000020
0000000010
0000000000
0000000000
0000000000
0000000000
0000000000
0000000000
0000000000
0000000000
0000000000
0000000000
0000000000
0000000000
0000000000
0000000000
0000000000
0000000000
0000000000
0000000000
0000000000
0000000000
0000000000
0000000000
0000000000
0000000000
ENDCHAR

STARTCHAR chs_A3E1
ENCODING 41953
SWIDTH 960 0
DWIDTH 40 0
BBX 40 40 0 -6
BITMAP
0000000000
0000000000
0000000000
0000000000
0000000000
0000000000
0000000000
0000000000
0000000000
0000000000
0000000000
0000F80000
0003FE0000
0007070000
0006030000
000E018000
0006018000
0000018000
00003F8000
0000F18000
0001C18000
0003818000
0007018000
0006018000
000E018000
000C038000
000C038000
000C079000
000C0D9800
000619B000
0007F1E000
0003C0C000
0000000000
0000000000
0000000000
0000000000
0000000000
0000000000
0000000000
0000000000
ENDCHAR

STARTCHAR chs_A3E2
ENCODING 41954
SWIDTH 960 0
DWIDTH 40 0
BBX 40 40 0 -6
BITMAP
0000000000
0002000000
0006000000
000E000000
001E000000
0006000000
0006000000
0006000000
0006000000
0006000000
0006000000
00061E0000
00067F8000
0006C1C000
0007006000
0006006000
0006003000
0006003000
0006003800
0006003800
0006003800
0006003800
0006003800
0006003800
0006003800
0006003000
0006007000
0006006000
000600C000
0007018000
0006C70000
00047E0000
0000000000
0000000000
0000000000
0000000000
0000000000
0000000000
0000000000
0000000000
ENDCHAR

STARTCHAR chs_A3E3
ENCODING 41955
SWIDTH 960 0
DWIDTH 40 0
BBX 40 40 0 -6
BITMAP
0000000000
0000000000
0000000000
0000000000
0000000000
0000000000
0000000000
0000000000
0000000000
0000000000
0000000000
00007E0000
0001FF8000
000381C000
0006006000
0006006000
000C007000
000C007000
001C000000
001C000000
001C000000
001C000000
001C000000
001C001000
001C003000
001C003000
000C003000
000E006000
000600C000
0003018000
0001C70000
00007E0000
0000000000
0000000000
0000000000
0000000000
0000000000
0000000000
0000000000
0000000000
ENDCHAR

STARTCHAR chs_A3E4
ENCODING 41956
SWIDTH 960 0
DWIDTH 40 0
BBX 40 40 0 -6
BITMAP
0000000000
0000004000
000000C000
000001C000
000007C000
000000C000
000000C000
000000C000
000000C000
000000C000
000000C000
000078C000
0001FEC000
000387C000
000601C000
000C00C000
000C00C000
001C00C000
001C00C000
001C00C000
001C00C000
001C00C000
001C00C000
001C00C000
001C00C000
001C00C000
001C00C000
000C01C000
000C03C000
000606F000
00038CC000
0000F08000
0000000000
0000000000
0000000000
0000000000
0000000000
0000000000
0000000000
0000000000
ENDCHAR

STARTCHAR chs_A3E5
ENCODING 41957
SWIDTH 960 0
DWIDTH 40 0
BBX 40 40 0 -6
BITMAP
0000000000
0000000000
0000000000
0000000000
0000000000
0000000000
0000000000
0000000000
0000000000
0000000000
0000000000
00007C0000
0001FF0000
0003838000
000600C000
000C006000
000C006000
001C003000
001C003000
001FFFF000
001C000000
001C000000
001C000000
001C000000
001C003000
001C003000
000C003000
000E006000
000600C000
0003018000
0001C70000
00007E0000
0000000000
0000000000
0000000000
0000000000
0000000000
0000000000
0000000000
0000000000
ENDCHAR

STARTCHAR chs_A3E6
ENCODING 41958
SWIDTH 960 0
DWIDTH 40 0
BBX 40 40 0 -6
BITMAP
0000000000
0000078000
00000FC000
00001FE000
000030E000
000030C000
0000300000
0000300000
0000300000
0000300000
0000300000
0001FF0000
0001FF0000
0000300000
0000300000
0000300000
0000300000
0000300000
0000300000
0000300000
0000300000
0000300000
0000300000
0000300000
0000300000
0000300000
0000300000
0000300000
0000300000
0000300000
0000780000
0000FE0000
0000000000
0000000000
0000000000
0000000000
0000000000
0000000000
0000000000
0000000000
ENDCHAR

STARTCHAR chs_A3E7
ENCODING 41959
SWIDTH 960 0
DWIDTH 40 0
BBX 40 40 0 -6
BITMAP
0000000000
0000000000
0000000000
0000000000
0000000000
0000000000
0000000000
0000000000
0000000000
0000000000
0000000000
00001E0000
00007FB000
0000E1F000
0001807000
0001803000
0003003000
0003003000
0003003000
0003003000
0003003000
0003003000
0003003000
0003003000
0003003000
0001807000
0000E1F000
00007FB000
00001E3000
0000003000
0000003000
0000003000
0000003000
0000003000
0000006000
0000006000
000701C000
0007FF8000
0003FF0000
0000000000
ENDCHAR

STARTCHAR chs_A3E8
ENCODING 41960
SWIDTH 960 0
DWIDTH 40 0
BBX 40 40 0 -6
BITMAP
0000000000
0002000000
0006000000
000E000000
001E000000
0006000000
0006000000
0006000000
0006000000
0006000000
0006000000
00061E0000
00067F8000
0006C1C000
000700C000
0006006000
0006006000
0006006000
0006006000
0006006000
0006006000
0006006000
0006006000
0006006000
0006006000
0006006000
0006006000
0006006000
0006006000
0006006000
000F00F000
001FC3F800
0000000000
0000000000
0000000000
0000000000
0000000000
0000000000
0000000000
0000000000
ENDCHAR

STARTCHAR chs_A3E9
ENCODING 41961
SWIDTH 960 0
DWIDTH 40 0
BBX 40 40 0 -6
BITMAP
0000000000
0000000000
0000000000
0000180000
00003C0000
00003C0000
0000180000
0000000000
0000000000
0000000000
0000000000
0000080000
0000180000
0000380000
0000F80000
0000180000
0000180000
0000180000
0000180000
0000180000
0000180000
0000180000
0000180000
0000180000
0000180000
0000180000
0000180000
0000180000
0000180000
0000180000
00003C0000
00007E0000
0000000000
0000000000
0000000000
0000000000
0000000000
0000000000
0000000000
0000000000
ENDCHAR

STARTCHAR chs_A3EA
ENCODING 41962
SWIDTH 960 0
DWIDTH 40 0
BBX 40 40 0 -6
BITMAP
0000000000
0000000000
0000000000
00000C0000
00001E0000
00001E0000
00000C0000
0000000000
0000000000
0000000000
0000000000
0000000000
00000C0000
00001C0000
00007C0000
00000C0000
00000C0000
00000C0000
00000C0000
00000C0000
00000C0000
00000C0000
00000C0000
00000C0000
00000C0000
00000C0000
00000C0000
00000C0000
00000C0000
00000C0000
00000C0000
00000C0000
00000C0000
00000C0000
00030C0000
00078C0000
00078C0000
00031C0000
0003F80000
0000000000
ENDCHAR

STARTCHAR chs_A3EB
ENCODING 41963
SWIDTH 960 0
DWIDTH 40 0
BBX 40 40 0 -6
BITMAP
0000000000
0002000000
0006000000
000E000000
001E000000
0006000000
0006000000
0006000000
0006000000
0006000000
0006000000
000603E000
000603F000
000601C000
0006038000
0006070000
00060E0000
00061C0000
0006380000
0006780000
0006F80000
0007DC0000
00078E0000
00070E0000
0006070000
0006070000
0006030000
0006038000
0006018000
000601C000
000F00C000
001FC1F000
0000000000
0000000000
0000000000
0000000000
0000000000
0000000000
0000000000
0000000000
ENDCHAR

STARTCHAR chs_A3EC
ENCODING 41964
SWIDTH 960 0
DWIDTH 40 0
BBX 40 40 0 -6
BITMAP
0000000000
0000080000
0000180000
0000380000
0000F80000
0000180000
0000180000
0000180000
0000180000
0000180000
0000180000
0000180000
0000180000
0000180000
0000180000
0000180000
0000180000
0000180000
0000180000
0000180000
0000180000
0000180000
0000180000
0000180000
0000180000
0000180000
0000180000
0000180000
0000182000
00001CC000
00000F8000
0000060000
0000000000
0000000000
0000000000
0000000000
0000000000
0000000000
0000000000
0000000000
ENDCHAR

STARTCHAR chs_A3ED
ENCODING 41965
SWIDTH 960 0
DWIDTH 40 0
BBX 40 40 0 -6
BITMAP
0000000000
0000000000
0000000000
0000000000
0000000000
0000000000
0000000000
0000000000
0000000000
0000000000
0000000000
0043C0F800
00CFE3FE00
01DC738700
03E03C0300
00C0180180
00C0180180
00C0180180
00C0180180
00C0180180
00C0180180
00C0180180
00C0180180
00C0180180
00C0180180
00C0180180
00C0180180
00C0180180
00C0180180
00C0180180
01E03C03C0
03F87E0FE0
0000000000
0000000000
0000000000
0000000000
0000000000
0000000000
0000000000
0000000000
ENDCHAR

STARTCHAR chs_A3EE
ENCODING 41966
SWIDTH 960 0
DWIDTH 40 0
BBX 40 40 0 -6
BITMAP
0000000000
0000000000
0000000000
0000000000
0000000000
0000000000
0000000000
0000000000
0000000000
0000000000
0000000000
00021E0000
00067F8000
000EE1C000
001F00C000
0006006000
0006006000
0006006000
0006006000
0006006000
0006006000
0006006000
0006006000
0006006000
0006006000
0006006000
0006006000
0006006000
0006006000
0006006000
000F00F000
001FC3F800
0000000000
0000000000
0000000000
0000000000
0000000000
0000000000
0000000000
0000000000
ENDCHAR

STARTCHAR chs_A3EF
ENCODING 41967
SWIDTH 960 0
DWIDTH 40 0
BBX 40 40 0 -6
BITMAP
0000000000
0000000000
0000000000
0000000000
0000000000
0000000000
0000000000
0000000000
0000000000
0000000000
0000000000
00007C0000
0001FF0000
0003838000
000600C000
000C006000
000C006000
001C003000
001C003000
001C003000
001C003000
001C003000
001C003000
001C003000
001C003000
001C007000
000C006000
000C00E000
000600C000
0003018000
0001C70000
00007E0000
0000000000
0000000000
0000000000
0000000000
0000000000
0000000000
0000000000
0000000000
ENDCHAR

STARTCHAR chs_A3F0
ENCODING 41968
SWIDTH 960 0
DWIDTH 40 0
BBX 40 40 0 -6
BITMAP
0000000000
0000000000
0000000000
0000000000
0000000000
0000000000
0000000000
0000000000
0000000000
0000000000
0000000000
00021E0000
00067F8000
000EE1C000
001F006000
0006003000
0006003000
0006003800
0006003800
0006003800
0006003800
0006003800
0006003800
0006003800
0006003800
0006003800
0006003000
0006003000
0007006000
0007C0C000
0006F38000
00063E0000
0006000000
0006000000
0006000000
0006000000
0006000000
000F000000
001FC00000
0000000000
ENDCHAR

STARTCHAR chs_A3F1
ENCODING 41969
SWIDTH 960 0
DWIDTH 40 0
BBX 40 40 0 -6
BITMAP
0000000000
0000000000
0000000000
0000000000
0000000000
0000000000
0000000000
0000000000
0000000000
0000000000
0000000000
0000F84000
0003FEC000
000707C000
000E01C000
001C00C000
001800C000
001800C000
001800C000
001800C000
001800C000
001800C000
001800C000
001800C000
001800C000
001800C000
001C00C000
000C00C000
000C01C000
000607C000
00038EC000
0000F8C000
000000C000
000000C000
000000C000
000000C000
000000C000
000001E000
000003F000
0000000000
ENDCHAR

STARTCHAR chs_A3F2
ENCODING 41970
SWIDTH 960 0
DWIDTH 40 0
BBX 40 40 0 -6
BITMAP
0000000000
0000000000
0000000000
0000000000
0000000000
0000000000
0000000000
0000000000
0000000000
0000000000
0000000000
0000018000
000063C000
0000E7C000
0003ED8000
0000F00000
0000E00000
0000E00000
0000E00000
0000E00000
0000E00000
0000E00000
0000E00000
0000E00000
0000E00000
0000E00000
0000E00000
0000E00000
0000E00000
0000E00000
0001F00000
0003F80000
0000000000
0000000000
0000000000
0000000000
0000000000
0000000000
0000000000
0000000000
ENDCHAR

STARTCHAR chs_A3F3
ENCODING 41971
SWIDTH 960 0
DWIDTH 40 0
BBX 40 40 0 -6
BITMAP
0000000000
0000000000
0000000000
0000000000
0000000000
0000000000
0000000000
0000000000
0000000000
0000000000
0000000000
00003C4000
0000FF4000
0001C3C000
000300C000
0003004000
0003004000
0003000000
0003800000
0001E00000
0000780000
00000F0000
0000038000
000000C000
000000C000
0000006000
0004006000
0006006000
000600C000
000700C000
0005C38000
00047E0000
0000000000
0000000000
0000000000
0000000000
0000000000
0000000000
0000000000
0000000000
ENDCHAR

STARTCHAR chs_A3F4
ENCODING 41972
SWIDTH 960 0
DWIDTH 40 0
BBX 40 40 0 -6
BITMAP
0000000000
0000100000
0000300000
0000700000
0000F00000
0000300000
0000300000
0000300000
0000300000
0000300000
0000300000
0001FE0000
0001FE0000
0000300000
0000300000
0000300000
0000300000
0000300000
0000300000
0000300000
0000300000
0000300000
0000300000
0000300000
0000300000
0000300000
0000304000
0000304000
000030C000
0000318000
00001B0000
00000E0000
0000000000
0000000000
0000000000
0000000000
0000000000
0000000000
0000000000
0000000000
ENDCHAR

STARTCHAR chs_A3F5
ENCODING 41973
SWIDTH 960 0
DWIDTH 40 0
BBX 40 40 0 -6
BITMAP
0000000000
0000000000
0000000000
0000000000
0000000000
0000000000
0000000000
0000000000
0000000000
0000000000
0000000000
0002000000
0006006000
000E00E000
001E03E000
0006006000
0006006000
0006006000
0006006000
0006006000
0006006000
0006006000
0006006000
0006006000
0006006000
0006006000
0006006000
0006006000
000300E000
000303F800
0001CF7000
00007C4000
0000000000
0000000000
0000000000
0000000000
0000000000
0000000000
0000000000
0000000000
ENDCHAR

STARTCHAR chs_A3F6
ENCODING 41974
SWIDTH 960 0
DWIDTH 40 0
BBX 40 40 0 -6
BITMAP
0000000000
0000000000
0000000000
0000000000
0000000000
0000000000
0000000000
0000000000
0000000000
0000000000
0000000000
007F00FE00
007F00FE00
000C003000
000C003000
0006002000
0006006000
0007006000
000300C000
0001808000
0001808000
0001818000
0000C30000
0000C30000
0000E30000
0000E70000
0000660000
0000760000
0000340000
00003C0000
0000180000
0000180000
0000000000
0000000000
0000000000
0000000000
0000000000
0000000000
0000000000
0000000000
ENDCHAR

STARTCHAR chs_A3F7
ENCODING 41975
SWIDTH 960 0
DWIDTH 40 0
BBX 40 40 0 -6
BITMAP
0000000000
0000000000
0000000000
0000000000
0000000000
0000000000
0000000000
0000000000
0000000000
0000000000
0000000000
0FC07E01F0
1FC07E01F8
0700180060
03801800C0
03801800C0
01803C00C0
01803E0180
0180660180
00C0670100
00C0670300
00E0C30300
0060C30600
0070830600
0030818400
0031818C00
001B00C800
001B00F800
001E007800
001E007800
000C003000
000C003000
0000000000
0000000000
0000000000
0000000000
0000000000
0000000000
0000000000
0000000000
ENDCHAR

STARTCHAR chs_A3F8
ENCODING 41976
SWIDTH 960 0
DWIDTH 40 0
BBX 40 40 0 -6
BITMAP
0000000000
0000000000
0000000000
0000000000
0000000000
0000000000
0000000000
0000000000
0000000000
0000000000
0000000000
003F00F800
003F01F800
000600C000
0003008000
0001810000
0001830000
0000C20000
0000660000
0000640000
0000380000
0000180000
00006E0000
0000660000
0000C70000
0001838000
0003018000
000301C000
000600E000
000C007000
003C007800
007F03FE00
0000000000
0000000000
0000000000
0000000000
0000000000
0000000000
0000000000
0000000000
ENDCHAR

STARTCHAR chs_A3F9
ENCODING 41977
SWIDTH 960 0
DWIDTH 40 0
BBX 40 40 0 -6
BITMAP
0000000000
0000000000
0000000000
0000000000
0000000000
0000000000
0000000000
0000000000
0000000000
0000000000
0000000000
007F00FC00
00FF00FC00
001C003000
000C003000
000E002000
0006006000
0007006000
000300C000
0001808000
0001808000
0001818000
0000C30000
0000C30000
0000E30000
0000E70000
0000660000
0000760000
0000340000
00001C0000
0000080000
0000180000
0000100000
0000300000
0000300000
001C600000
001C600000
001CC00000
000F800000
0000000000
ENDCHAR

STARTCHAR chs_A3FA
ENCODING 41978
SWIDTH 960 0
DWIDTH 40 0
BBX 40 40 0 -6
BITMAP
0000000000
0000000000
0000000000
0000000000
0000000000
0000000000
0000000000
0000000000
0000000000
0000000000
0000000000
0003FFE000
0007FFF000
000700C000
000600C000
0004018000
0004030000
0000030000
0000060000
0000060000
00000C0000
0000180000
0000380000
0000700000
0000600000
0000E00000
0000C03000
0001C03000
0003003000
0003003000
0006007000
000FFFF000
0000000000
0000000000
0000000000
0000000000
0000000000
0000000000
0000000000
0000000000
ENDCHAR

STARTCHAR chs_A3FB
ENCODING 41979
SWIDTH 960 0
DWIDTH 40 0
BBX 40 40 0 -6
BITMAP
0000000000
0000000180
0000000780
0000000E00
0000001C00
0000001800
0000003800
0000003800
0000003800
0000003800
0000003800
0000003800
0000003800
0000003800
0000003800
0000003800
0000003000
0000007000
000000E000
0000038000
000000E000
0000007000
0000003000
0000003800
0000003800
0000003800
0000003800
0000003800
0000003800
0000003800
0000003800
0000003800
0000003800
0000001800
0000001800
0000000C00
0000000780
0000000180
0000000000
0000000000
ENDCHAR

STARTCHAR chs_A3FC
ENCODING 41980
SWIDTH 960 0
DWIDTH 40 0
BBX 40 40 0 -6
BITMAP
0000000000
0000180000
0000180000
0000180000
0000180000
0000180000
0000180000
0000180000
0000180000
0000180000
0000180000
0000180000
0000180000
0000180000
0000180000
0000180000
0000180000
0000180000
0000180000
0000180000
0000180000
0000180000
0000180000
0000180000
0000180000
0000180000
0000180000
0000180000
0000180000
0000180000
0000180000
0000180000
0000180000
0000180000
0000180000
0000180000
0000180000
0000180000
0000180000
0000000000
ENDCHAR

STARTCHAR chs_A3FD
ENCODING 41981
SWIDTH 960 0
DWIDTH 40 0
BBX 40 40 0 -6
BITMAP
0000000000
0180000000
01E0000000
0070000000
0038000000
0018000000
001C000000
001C000000
001C000000
001C000000
001C000000
001C000000
001C000000
001C000000
001C000000
001C000000
000C000000
000E000000
0007000000
0001C00000
0007000000
000E000000
000C000000
001C000000
001C000000
001C000000
001C000000
001C000000
001C000000
001C000000
001C000000
001C000000
001C000000
0018000000
0018000000
0030000000
01E0000000
0180000000
0000000000
0000000000
ENDCHAR

STARTCHAR chs_A3FE
ENCODING 41982
SWIDTH 960 0
DWIDTH 40 0
BBX 40 40 0 -6
BITMAP
FFFFFFFFFF
FFFFFFFFFF
0000000000
0000000000
0000000000
0000000000
0000000000
0000000000
0000000000
0000000000
0000000000
0000000000
0000000000
0000000000
0000000000
0000000000
0000000000
0000000000
0000000000
0000000000
0000000000
0000000000
0000000000
0000000000
0000000000
0000000000
0000000000
0000000000
0000000000
0000000000
0000000000
0000000000
0000000000
0000000000
0000000000
0000000000
0000000000
0000000000
0000000000
0000000000
ENDCHAR

STARTCHAR chs_A4A1
ENCODING 42145
SWIDTH 960 0
DWIDTH 40 0
BBX 40 40 0 -6
BITMAP
0000000000
0000000000
0000000000
0000000000
0000E00000
0000F00000
0000780000
0000780000
0000780000
0000708000
000071C000
00007FE000
0001FFC000
000FFE0000
000FF00000
0006670000
0000630000
00007FC000
0000FFF000
0003E1B800
0006E1CC00
000CE1C600
0018C1C700
0038C1C380
0030C18380
0070C38380
0060C30380
00E0E70780
00E0FE0700
00E07C0E00
0070381C00
007FF03800
003FC0F000
001F03C000
0000070000
0000000000
0000000000
0000000000
0000000000
0000000000
ENDCHAR

STARTCHAR chs_A4A2
ENCODING 42146
SWIDTH 960 0
DWIDTH 40 0
BBX 40 40 0 -6
BITMAP
0000000000
0000000000
0000000000
0000600000
0000F00000
0000F80000
00007C0000
000078E000
000079F000
000077F000
00007FC000
0003FE0000
00FFF00000
007FE00000
003C660000
0010670000
0000FFE000
0001FFF800
0007E39E00
000EE38700
001CE38380
0038C38380
0078C381C0
00E0C781C0
00E0C701C0
01C0C701C0
01C0CE01C0
0380DE01C0
0380F80380
0380F00380
01C1F80700
01FFF80E00
00FF3C1C00
0038187800
000001E000
0000070000
0000000000
0000000000
0000000000
0000000000
ENDCHAR

STARTCHAR chs_A4A3
ENCODING 42147
SWIDTH 960 0
DWIDTH 40 0
BBX 40 40 0 -6
BITMAP
0000000000
0000000000
0000000000
0000000000
0000000000
0000000000
0000000000
0000000000
0000000000
000C000000
000F000000
0007800000
0007800000
000F007000
000E009800
001C010C00
0018000600
0018040700
0030080380
0020100380
00601003C0
00602003C0
00606003C0
00706003C0
0070E003C0
0038C003C0
003FC00180
001FC00000
000F800000
0007800000
0001800000
0000000000
0000000000
0000000000
0000000000
0000000000
0000000000
0000000000
0000000000
0000000000
ENDCHAR

STARTCHAR chs_A4A4
ENCODING 42148
SWIDTH 960 0
DWIDTH 40 0
BBX 40 40 0 -6
BITMAP
0000000000
0000000000
0000000000
0000000000
0000000000
0000000000
0060000000
00F0000000
0078000000
003C000000
003C000000
003C000000
003800F000
003801FC00
0070031E00
00E0000F00
00C0000780
01800003C0
01802003C0
03806001C0
03806001C0
0380C001C0
0380C001C0
03808001C0
03818001C0
0383000000
01C3000000
01EF000000
00FE000000
007E000000
003C000000
001C000000
000C000000
0000000000
0000000000
0000000000
0000000000
0000000000
0000000000
0000000000
ENDCHAR

STARTCHAR chs_A4A5
ENCODING 42149
SWIDTH 960 0
DWIDTH 40 0
BBX 40 40 0 -6
BITMAP
0000000000
0000000000
0000000000
0000000000
0000000000
0000000000
0003000000
0003FE0000
0001FF0000
0000FF8000
00000F8000
00003C0000
0000700000
0000C00000
0000000000
00040F8000
000C3FC000
000CF8E000
001FE07000
001F807000
001F007000
000E007000
0000007000
0000007000
000000E000
000000E000
000001C000
000003C000
0000038000
0000070000
00000E0000
00003C0000
0000F80000
0007E00000
001E000000
0000000000
0000000000
0000000000
0000000000
0000000000
ENDCHAR

STARTCHAR chs_A4A6
ENCODING 42150
SWIDTH 960 0
DWIDTH 40 0
BBX 40 40 0 -6
BITMAP
0000000000
0000000000
0000000000
0004000000
0006000000
0007838000
0003FFC000
0001FFE000
00007FC000
0000700000
0000E00000
0003800000
0002000000
0000038000
00180FE000
00103C7000
0011F03800
001FE03800
001FC03800
001F803800
000E003800
0000003800
0000003800
0000003800
0000003800
0000003800
0000007000
0000007000
000000E000
000001C000
0000038000
0000070000
00000E0000
00003C0000
0000F00000
0001E00000
000F000000
0000000000
0000000000
0000000000
ENDCHAR

STARTCHAR chs_A4A7
ENCODING 42151
SWIDTH 960 0
DWIDTH 40 0
BBX 40 40 0 -6
BITMAP
0000000000
0000000000
0000000000
0000000000
0001000000
0001800000
0001FF0000
0000FF8000
00007F8000
00003C0000
0000700000
0000C00000
0001818000
000107C000
00001FE000
000C778000
000FC60000
000FCE0000
000F180000
0006300000
0000600000
0000DC0000
0001FE0000
0003FE0000
00078E0000
000F0C0000
001E0C0000
001C0C0000
003C0C0000
003C0C0000
0038060700
003807FF80
001803FF80
000000FE00
0000000000
0000000000
0000000000
0000000000
0000000000
0000000000
ENDCHAR

STARTCHAR chs_A4A8
ENCODING 42152
SWIDTH 960 0
DWIDTH 40 0
BBX 40 40 0 -6
BITMAP
0000000000
0000000000
0000000000
0000000000
0004000000
0006038000
0007FFC000
0003FFE000
00019F0000
0000380000
0000600000
0000C0C000
0001C3E000
000107F000
00001FF000
000079C000
0023E38000
003FC30000
003F060000
003E0C0000
0018180000
00003FC000
00007FE000
0000F1E000
000181C000
000301C000
0007018000
000E018000
001C018000
003C018000
0078018000
00F0018000
00F001C0E0
00E000FFF0
00C0007FF0
0000003FE0
0000000000
0000000000
0000000000
0000000000
ENDCHAR

STARTCHAR chs_A4A9
ENCODING 42153
SWIDTH 960 0
DWIDTH 40 0
BBX 40 40 0 -6
BITMAP
0000000000
0000000000
0000000000
0000000000
0000000000
0000000000
0003000000
0003800000
0003C00000
0001E1FC00
0001E01F00
0001D80F80
0001FE1F80
0021FC1F80
003FF00000
003F800000
001F83FC00
00098FFE00
0001BE0F00
0001F00700
0001E00780
0003C00380
000F800380
004F800380
00DD900380
01F9880700
01F9870F00
01FD83FE00
01EF81FC00
00C7800000
0007800000
0003800000
0003800000
0001000000
0000000000
0000000000
0000000000
0000000000
0000000000
0000000000
ENDCHAR

STARTCHAR chs_A4AA
ENCODING 42154
SWIDTH 960 0
DWIDTH 40 0
BBX 40 40 0 -6
BITMAP
0000000000
0000000000
0000000000
0006000000
0007000000
0007800000
0003C00000
0003C0FC00
000380FF00
00039807C0
0003FC03C0
0043FE1FC0
00FFF81FC0
007FC007C0
007F0000C0
003B000000
000307FE00
00031FFF00
00037C0F80
0003F003C0
0003C001C0
00038001C0
000F0001C0
011F0001C0
03BB0001C0
03FB0001C0
03F31803C0
03FB8E0780
03DB87FF00
03DF81FE00
018F807800
000F800000
0007800000
0003000000
0002000000
0000000000
0000000000
0000000000
0000000000
0000000000
ENDCHAR

STARTCHAR chs_A4AB
ENCODING 42155
SWIDTH 960 0
DWIDTH 40 0
BBX 40 40 0 -6
BITMAP
0000000000
0000000000
0000000000
0000000000
0000300000
00007C0000
00003E0000
00003E0000
0000380000
0000300000
0000300000
0000701800
01007F1C00
0180FF8700
01FFE18380
00FFE1C3C0
007CC1C1C0
0039C1C1C0
00030181C0
00030183C0
0006038FC0
0006031880
000C871000
000C870000
001CC70000
0038CE0000
0078FE0000
00F0FC0000
01E0F80000
01E0F00000
01C0E00000
00C0400000
0080000000
0000000000
0000000000
0000000000
0000000000
0000000000
0000000000
0000000000
ENDCHAR

STARTCHAR chs_A4AC
ENCODING 42156
SWIDTH 960 0
DWIDTH 40 0
BBX 40 40 0 -6
BITMAP
0000000000
0000000000
0000000000
0000000E00
0000000780
000000C1E0
00010070F0
0003C03CF0
0003E01C70
0001E01E30
0001E00E30
0001C00E00
0001C00C00
0003820000
0003018000
0807F8E000
0FFFFC7800
07FE0E3C00
07FE061C00
03CC0E1E00
001C0E1E00
00180C1E00
00180C7E00
003018FE00
0030398000
0060380000
006C300000
01CC700000
01CCE00000
038EE00000
0787E00000
0F07C00000
0F07C00000
0E07000000
0400000000
0000000000
0000000000
0000000000
0000000000
0000000000
ENDCHAR

STARTCHAR chs_A4AD
ENCODING 42157
SWIDTH 960 0
DWIDTH 40 0
BBX 40 40 0 -6
BITMAP
0000000000
0000000000
0000000000
0007000000
000F800000
001FC00000
0007C00000
0001E00000
0000E18000
000073C000
00003FC000
001FFF8000
001FFE0600
000FC60F00
0000071F00
00C003FF00
00F003FE00
007FFFF000
003FFFC000
0003F06000
0000006000
0000003000
0001F03000
000FFFF800
001E07F800
003801F800
0030007000
0030003000
0030000000
0038000000
0018000000
000F030000
000FFF8000
0003FFC000
0000FF8000
0000000000
0000000000
0000000000
0000000000
0000000000
ENDCHAR

STARTCHAR chs_A4AE
ENCODING 42158
SWIDTH 960 0
DWIDTH 40 0
BBX 40 40 0 -6
BITMAP
0000000000
0000000000
0000000000
0000000E00
00F00007C0
01F80001E0
01FC00F0F0
003C007CF8
001E303E38
000E780F30
0007FC0F00
03FFF80700
01FFE0C200
00FFC0E000
000061F000
080037E000
0E003FC000
07C3FF0000
03FFFC0000
003E0E0000
0000060000
0000070000
001E070000
00FFFF0000
03C0FF0000
03803F0000
0300070000
0300020000
0300000000
0380000000
03C0000000
01E0300000
01FFF80000
007FFC0000
000FF80000
0000000000
0000000000
0000000000
0000000000
0000000000
ENDCHAR

STARTCHAR chs_A4AF
ENCODING 42159
SWIDTH 960 0
DWIDTH 40 0
BBX 40 40 0 -6
BITMAP
0000000000
0000000000
0000000000
0000000000
0000200000
0000780000
00003C0000
00001E0000
00001C0000
00003C0000
0000380000
0000700000
0000F00000
0000E00000
0001C00000
0003800000
0007000000
000E000000
000C000000
0018000000
0018000000
000C000000
000E000000
0003000000
0001800000
0001C00000
0000E00000
0000F00000
0000780000
00007C0000
00003C0000
00003E0000
00001E0000
00001E0000
00000E0000
00000C0000
0000000000
0000000000
0000000000
0000000000
ENDCHAR

STARTCHAR chs_A4B0
ENCODING 42160
SWIDTH 960 0
DWIDTH 40 0
BBX 40 40 0 -6
BITMAP
0000000000
0000000000
0000000000
0000400000
0000F01800
0000780E00
00003C0780
00003CC3C0
000078E1C0
00007071C0
0000F039C0
0000E03C80
0001C01C00
0001801C00
0003001800
0006000000
000C000000
0018000000
0030000000
0030000000
0018000000
000C000000
000E000000
0003000000
0003800000
0001C00000
0000E00000
0000F00000
0000F00000
0000780000
0000780000
00003C0000
00003C0000
00001C0000
0000180000
0000000000
0000000000
0000000000
0000000000
0000000000
ENDCHAR

STARTCHAR chs_A4B1
ENCODING 42161
SWIDTH 960 0
DWIDTH 40 0
BBX 40 40 0 -6
BITMAP
0000000000
0000000000
0000000000
000000F000
0000007800
0030007800
0078003800
003C003800
001C003800
001C003800
001C003980
001C003BC0
0018003FC0
0038103FC0
00381FFF80
00300FFC00
007007F800
0061003800
0061003800
0042003800
00C2003800
00C2003000
00C6003000
00C4007000
00CC007000
00CC007000
00EC007000
007C00E000
007C00E000
003C00C000
001C01C000
000C038000
000C030000
0000060000
00000C0000
0000180000
0000700000
0000400000
0000000000
0000000000
ENDCHAR

STARTCHAR chs_A4B2
ENCODING 42162
SWIDTH 960 0
DWIDTH 40 0
BBX 40 40 0 -6
BITMAP
0000000000
0000000000
0000000000
00000E0080
00000F00E0
0000078070
0780079E38
03C00787BC
03E007039C
01E00701DC
01C00701C0
01C0071880
01C0077800
038107F800
0381FFF800
0380FFE000
03187F0000
0318770000
0210070000
0610070000
0630070000
0620070000
0660070000
0660070000
0660070000
0660070000
07600F0000
07E00E0000
03E00E0000
03E00E0000
03E01C0000
01E01C0000
00E0380000
0060700000
0000F00000
0001E00000
0003C00000
0003000000
0000000000
0000000000
ENDCHAR

STARTCHAR chs_A4B3
ENCODING 42163
SWIDTH 960 0
DWIDTH 40 0
BBX 40 40 0 -6
BITMAP
0000000000
0000000000
0000000000
0000000000
0000000000
0000000000
0000000000
0010000000
0018000000
001C070000
001FFF8000
000FFFC000
0003FFC000
00007C0000
0000E00000
0001800000
0002000000
0000000000
0008000000
0010000000
0020000000
0060000000
0060000000
0060000000
0060000000
0070000000
0038003800
003F00FC00
001FFFFC00
0007FFFC00
0000FFE000
0000000000
0000000000
0000000000
0000000000
0000000000
0000000000
0000000000
0000000000
0000000000
ENDCHAR

STARTCHAR chs_A4B4
ENCODING 42164
SWIDTH 960 0
DWIDTH 40 0
BBX 40 40 0 -6
BITMAP
0000000000
0000000000
0000000000
0000000000
0000000000
0000000000
0000000000
0100000000
0180000000
00E0700000
00FFFC0000
007FFE1E00
001FFE1F80
0007E007C0
000E0001E0
001C00E0F0
0020007CF0
0060003E60
00C0001E00
0180000F00
0380000700
0300000600
0300000000
0300000000
0300000000
0380000000
01C0030000
01F80F8000
007FFFC000
003FFF8000
0007FF0000
0000000000
0000000000
0000000000
0000000000
0000000000
0000000000
0000000000
0000000000
0000000000
ENDCHAR

STARTCHAR chs_A4B5
ENCODING 42165
SWIDTH 960 0
DWIDTH 40 0
BBX 40 40 0 -6
BITMAP
0000000000
0000000000
0000000000
0000000000
0000E00000
0001F00000
0001E00000
0001E1C000
0000E0F000
0000F07800
000078F800
00003FF800
00187FF000
001FFF8000
000FFF8000
0007E1C000
000000E000
0000007000
0000003800
0000003800
0001F01C00
0007FE1C00
000C079C00
001801FC00
0018007C00
0018003C00
0018001800
0018001000
0018000000
001C000000
001F0F0000
000FFF0000
0007FF0000
0000FE0000
0000000000
0000000000
0000000000
0000000000
0000000000
0000000000
ENDCHAR

STARTCHAR chs_A4B6
ENCODING 42166
SWIDTH 960 0
DWIDTH 40 0
BBX 40 40 0 -6
BITMAP
0000000000
0000000000
0000000000
0000000800
003C000600
003C018380
0078C0E1C0
00787071E0
003C1C38F0
001C0F38F0
000E1F3C70
0407FE1C70
060FFC1C60
07FFE01C00
03FFE00000
01F8700000
0000380000
00001E0000
00000E0000
0000070000
003E070000
01FFC70000
0381E70000
06007F0000
0C001F0000
0C000F0000
0C00060000
0E00020000
0700000000
0780000000
03C1C00000
01FFE00000
007FC00000
001F800000
0000000000
0000000000
0000000000
0000000000
0000000000
0000000000
ENDCHAR

STARTCHAR chs_A4B7
ENCODING 42167
SWIDTH 960 0
DWIDTH 40 0
BBX 40 40 0 -6
BITMAP
0000000000
0000000000
0000000000
0000000000
0000000000
0006000000
000F000000
000FC00000
0003C00000
0003C00000
0003C00000
0003C00000
0003800000
0003000000
0003000000
0003000000
0006000000
0006000000
0006000000
0006000000
0004000000
000C000000
000C000000
000C000000
000C000180
000C000380
000C000700
000C000E00
000E001E00
000E007C00
000781F000
0007FFC000
0003FE0000
0000F80000
0000000000
0000000000
0000000000
0000000000
0000000000
0000000000
ENDCHAR

STARTCHAR chs_A4B8
ENCODING 42168
SWIDTH 960 0
DWIDTH 40 0
BBX 40 40 0 -6
BITMAP
0000000000
0000000000
0000000000
0000000000
0000000000
0000018000
0070007000
0078103800
003C1C3C00
003C0E1E00
001C078F00
001C03CF80
001C03E780
001C00E700
001C00E000
001800C000
0018000000
0018000000
0030000000
0030000000
0030000000
0030000000
0060000000
0060000000
0060000000
0060000000
0060001000
0060007000
006000C000
0060018000
00700F0000
007FFE0000
003FFC0000
001FF00000
0000000000
0000000000
0000000000
0000000000
0000000000
0000000000
ENDCHAR

STARTCHAR chs_A4B9
ENCODING 42169
SWIDTH 960 0
DWIDTH 40 0
BBX 40 40 0 -6
BITMAP
0000000000
0000000000
00000C0000
00001E0000
00003F0000
00000F0000
00000F0000
0000070000
0000060000
0000060000
0000061FC0
00000FFFC0
03007FFFC0
03FFFF0000
03FF0E0000
01FC060000
00E0060000
00007E0000
0001FE0000
00030E0000
0006070000
0006070000
000C070000
000C070000
000C0F0000
000E1F0000
0007FE0000
0003F60000
0001EC0000
0000180000
0000180000
0000300000
0000600000
0001C00000
0003000000
0006000000
0038000000
0030000000
0000000000
0000000000
ENDCHAR

STARTCHAR chs_A4BA
ENCODING 42170
SWIDTH 960 0
DWIDTH 40 0
BBX 40 40 0 -6
BITMAP
0000000000
0000000000
0000000000
0000000F00
00003183C0
000078E1E0
00007C78F0
00003C3CF0
00001C1C30
00001C1C00
0000180800
0000183E00
00001BFF00
04003FFF00
0603FE0000
03FFF80000
03FE180000
01F0180000
0080F80000
0003F80000
00061C0000
000C1C0000
001C1C0000
001C1C0000
001C1C0000
001C1C0000
000C3C0000
000FFC0000
0003F80000
0000180000
0000300000
0000600000
0000E00000
0000C00000
0001800000
0007000000
001E000000
0038000000
0020000000
0000000000
ENDCHAR

STARTCHAR chs_A4BB
ENCODING 42171
SWIDTH 960 0
DWIDTH 40 0
BBX 40 40 0 -6
BITMAP
0000000000
0000000000
0000000000
0000000000
000001C000
000003E000
000003F000
000201F000
000700E000
000F80E000
000FC0E000
0003C0E100
0003C0E780
000380FFC0
000383FFE0
00038FC000
0603FFC000
07FFF1C000
07FF81C000
07F321C000
03C3118000
00030F8000
00030F8000
0003070000
0003070000
0003030000
0003000000
0003000000
0003801C00
0001E03F00
0000FFFF00
00007FFE00
0000000000
0000000000
0000000000
0000000000
0000000000
0000000000
0000000000
0000000000
ENDCHAR

STARTCHAR chs_A4BC
ENCODING 42172
SWIDTH 960 0
DWIDTH 40 0
BBX 40 40 0 -6
BITMAP
0000000000
0000000000
0000000000
0000000000
0000000380
00000F01E0
00001FF8F0
00000F9E7C
0000078F3C
000C07079C
001E070388
001F070100
000F870C00
000F073F00
000E07FF80
000E1FFF80
000FFF0000
040FE70000
0FFF070000
0FFC070000
07CCC60000
030C7E0000
000C7E0000
000C1E0000
000C1C0000
000C0C0000
000C080000
000C000000
000E000000
0007803800
0003F1FC00
0000FFFC00
00003FF800
0000000000
0000000000
0000000000
0000000000
0000000000
0000000000
0000000000
ENDCHAR

STARTCHAR chs_A4BD
ENCODING 42173
SWIDTH 960 0
DWIDTH 40 0
BBX 40 40 0 -6
BITMAP
0000000000
0000000000
0000000000
0000000000
0000018000
00000FC000
00043BC000
000FF3E000
001FC3C000
001F878000
001E0E0000
000C380000
0000600000
0000800000
0002000E00
000400FF00
00180FFF80
00707F0000
00E1FC0000
01CF700000
03FCE00000
03F1C00000
01E1800000
0083000000
0006000000
0006000000
0006000000
0006000000
0007000000
0003800000
0001E07000
00007FF800
00007FF800
000007E000
0000000000
0000000000
0000000000
0000000000
0000000000
0000000000
ENDCHAR

STARTCHAR chs_A4BE
ENCODING 42174
SWIDTH 960 0
DWIDTH 40 0
BBX 40 40 0 -6
BITMAP
0000000000
0000000000
0000000000
0000000000
0000080E00
00003C0380
0063FE41C0
00FF8F71E0
00FE1E38F0
00FC3C1C70
00F0F01E70
0061C00F30
0007800700
000E000600
001000F800
006007F800
00807FF800
0183FC0000
030FE00000
07FB000000
0FE6000000
0F8C000000
0718000000
0418000000
0010000000
0030000000
0030000000
0030000000
0038000000
003C000000
001E078000
000FFFC000
0003FFC000
00007F0000
0000000000
0000000000
0000000000
0000000000
0000000000
0000000000
ENDCHAR

STARTCHAR chs_A4BF
ENCODING 42175
SWIDTH 960 0
DWIDTH 40 0
BBX 40 40 0 -6
BITMAP
0000000000
0000000000
0000000000
0000000000
0007000000
000F800000
0007C00000
0003C00000
0003800000
0003180000
00033E0000
0003FE0000
0207F07800
03FFC3FE00
03FE07FF00
01F60E1F80
0086003F80
000C00FF80
000C01C000
001C030000
001C060000
001C100000
0018300000
0018600000
0018600000
0038E00000
0070E00000
0070E00000
00E0E00000
01E0E00380
03E0783FC0
03C03FFFC0
03C01FFF80
0180000000
0000000000
0000000000
0000000000
0000000000
0000000000
0000000000
ENDCHAR

STARTCHAR chs_A4C0
ENCODING 42176
SWIDTH 960 0
DWIDTH 40 0
BBX 40 40 0 -6
BITMAP
0000000000
0000000000
0000000000
0000000000
001C000700
003E0003C0
001E0071F0
001E007CF0
001C001E70
001CC00F30
001DE00710
001FE00300
083FC3C100
0FFF1FF000
07F87FF800
03B800F800
013001F800
003007F800
00300F0000
0060300000
0060600000
0060000000
00C1000000
00C3000000
01C2000000
0186000000
0386000000
0386000000
0386000000
0787003800
0F83C1F800
0F01FFF800
0F007FF000
0600000000
0000000000
0000000000
0000000000
0000000000
0000000000
0000000000
ENDCHAR

STARTCHAR chs_A4C1
ENCODING 42177
SWIDTH 960 0
DWIDTH 40 0
BBX 40 40 0 -6
BITMAP
0000000000
0000000000
0001C00000
0003E00000
0007E00000
0001E00000
0000E00000
0000E07000
0000E1F000
0000C7F800
0180CFC000
01FFFE0000
01FFF80000
007FC00000
0001800000
0001800000
0001800000
0001800000
000300C000
000307F000
00031E3800
0006701C00
0006E00C00
000FC00E00
000F800E00
000F000E00
0007000E00
0002001C00
0000001C00
0000003C00
0000007800
000000F000
000001E000
0000038000
00000E0000
0000780000
0007E00000
0000000000
0000000000
0000000000
ENDCHAR

STARTCHAR chs_A4C2
ENCODING 42178
SWIDTH 960 0
DWIDTH 40 0
BBX 40 40 0 -6
BITMAP
0000000000
0000000000
0018000000
003E000000
007F000000
001F000000
001E000600
001E1C0F80
001C1E0380
001C7E01C0
001FF881E0
0FFFC070F0
0FFF0038F0
07FC003C70
001C001C00
0018000E00
0018000E00
0018000E00
0030380400
0030FF0000
0031C78000
007701C000
007E01E000
007C00E000
00F800E000
00F000E000
007000C000
002001C000
0000038000
0000078000
00000F0000
00001E0000
00003C0000
0000F80000
0007C00000
003F000000
0000000000
0000000000
0000000000
0000000000
ENDCHAR

STARTCHAR chs_A4C3
ENCODING 42179
SWIDTH 960 0
DWIDTH 40 0
BBX 40 40 0 -6
BITMAP
0000000000
0000000000
0000000000
0000000000
0000000000
0000000000
0000000000
0000000000
0000000000
0000000000
000003F000
00003FFC00
0060FC1E00
007FF00700
007F800700
007F000700
003C000700
0018000700
0000000700
0000000600
0000000E00
0000001C00
0000001800
0000003800
0000007000
000001E000
00000F8000
00007E0000
0000380000
0000000000
0000000000
0000000000
0000000000
0000000000
0000000000
0000000000
0000000000
0000000000
0000000000
0000000000
ENDCHAR

STARTCHAR chs_A4C4
ENCODING 42180
SWIDTH 960 0
DWIDTH 40 0
BBX 40 40 0 -6
BITMAP
0000000000
0000000000
0000000000
0000000000
0000000000
0000000000
0000000000
0000000000
0000000000
0000000000
0000000000
00000FFC00
00403FFE00
00E0FC0E00
01FFE00700
01FF800300
00FF000380
007C000380
0030000380
0000000380
0000000380
0000000780
0000000F00
0000000E00
0000001C00
0000003800
000000F000
000003F000
00001FC000
0000FC0000
0000000000
0000000000
0000000000
0000000000
0000000000
0000000000
0000000000
0000000000
0000000000
0000000000
ENDCHAR

STARTCHAR chs_A4C5
ENCODING 42181
SWIDTH 960 0
DWIDTH 40 0
BBX 40 40 0 -6
BITMAP
0000000000
0000000000
0000000000
0000000000
0000000E00
0000000380
000000C1E0
000000F0F0
0000007C70
0000001E70
0000000F30
00007F8700
0003FFE700
040FC0F200
0E3E007000
0FFC003800
0FF8003800
07C0003800
0300003800
0000003800
0000003800
0000003000
0000007000
000000E000
000001C000
0000018000
0000078000
00001E0000
00007C0000
000FF00000
0000000000
0000000000
0000000000
0000000000
0000000000
0000000000
0000000000
0000000000
0000000000
0000000000
ENDCHAR

STARTCHAR chs_A4C6
ENCODING 42182
SWIDTH 960 0
DWIDTH 40 0
BBX 40 40 0 -6
BITMAP
0000000000
0000000000
0000000000
0000000000
0000000000
0000000000
0000000000
0000000380
0000001F80
000001FFC0
00000FC000
0303FF0000
03FFE60000
03FF040000
01F80C0000
01C0180000
0000100000
0000600000
0000600000
0000C00000
0000C00000
0000C00000
0001800000
0001800000
0001800000
0001800000
0001C00000
0000C00000
0000E00E00
00007FFF00
00003FFF80
000003FF00
0000000000
0000000000
0000000000
0000000000
0000000000
0000000000
0000000000
0000000000
ENDCHAR

STARTCHAR chs_A4C7
ENCODING 42183
SWIDTH 960 0
DWIDTH 40 0
BBX 40 40 0 -6
BITMAP
0000000000
0000000000
0000000000
0000000000
0000000200
0000000180
00000020E0
00000038F8
0000001C38
0000000F38
0000000798
000003E388
00003FF180
0001FFF000
000FB00000
083C600000
0FF0C00000
0FE1C00000
0783000000
0007000000
0006000000
000C000000
000C000000
0018000000
0018000000
0018000000
0038000000
0030000000
0030000000
0038000000
0018000000
001C00C000
000FFFE000
0007FFF000
0000FFC000
0000000000
0000000000
0000000000
0000000000
0000000000
ENDCHAR

STARTCHAR chs_A4C8
ENCODING 42184
SWIDTH 960 0
DWIDTH 40 0
BBX 40 40 0 -6
BITMAP
0000000000
0000000000
0000000000
0000000000
0000000000
0001F00000
0001F80000
0000F80000
0000780000
0000700000
0000700000
0000700000
0000600000
0000600000
0000E00000
0000E00000
0000E38000
0000EFC000
0000FFC000
00007F8000
0000E00000
0001C00000
0003800000
0007000000
0006000000
000C000000
000C000000
000C000000
0006000000
0007000000
0003C07800
0000FFF800
00007FF000
00000FC000
0000000000
0000000000
0000000000
0000000000
0000000000
0000000000
ENDCHAR

STARTCHAR chs_A4C9
ENCODING 42185
SWIDTH 960 0
DWIDTH 40 0
BBX 40 40 0 -6
BITMAP
0000000000
0000000000
0000000000
0000000000
0000000000
0003800000
0007E03000
0001E03C00
0000E01E00
0000E70F00
0000E3C780
0000C1E380
0000C0F380
0001807900
0001807000
0001802000
00018E0000
0001BF0000
0001FF0000
0001FC0000
0001C00000
0003000000
000E000000
000C000000
001C000000
0018000000
0018000000
0018000000
0018000000
001C000000
000F01C000
0007FFE000
0001FFE000
00003F8000
0000000000
0000000000
0000000000
0000000000
0000000000
0000000000
ENDCHAR

STARTCHAR chs_A4CA
ENCODING 42186
SWIDTH 960 0
DWIDTH 40 0
BBX 40 40 0 -6
BITMAP
0000000000
0000000000
0000000000
0000000000
0007000000
000F800000
0007C00000
0003C00000
0003980000
00033C0000
0003FDFC00
01FFF3FE00
00FFC01F80
007F000F80
0003003F80
0006007F80
000600C000
0006018000
0006010000
000E018000
000C008000
001C00C000
001C006000
001C007000
0038003800
00787E3800
00F1FFF800
01F3C3F800
01E3007C00
01C3003E00
0001803F00
0001C03F80
0000F8F7C0
00007FE3C0
00000F83C0
0000000180
0000000000
0000000000
0000000000
0000000000
ENDCHAR

STARTCHAR chs_A4CB
ENCODING 42187
SWIDTH 960 0
DWIDTH 40 0
BBX 40 40 0 -6
BITMAP
0000000000
0000000000
0000000000
0000000000
0000000000
0000000000
0030000000
003C000000
001E000000
001E000F00
000F003F80
000F1FFF80
000F1FFE00
001E0FF800
001C006000
0018008000
0030010000
0031820000
0021000000
0042000000
0046000000
0044000000
00CC000000
00CC200000
00DC6001C0
00DC700FE0
00FC7FFFE0
00FC7FFFE0
007C1FF000
007C000000
003C000000
001C000000
0008000000
0000000000
0000000000
0000000000
0000000000
0000000000
0000000000
0000000000
ENDCHAR

STARTCHAR chs_A4CC
ENCODING 42188
SWIDTH 960 0
DWIDTH 40 0
BBX 40 40 0 -6
BITMAP
0000000000
0000000000
0000000000
0000000000
0000000000
0000000000
0003000000
0007C00000
0003C00000
0001E7F000
0000F83C00
0000E00C00
0020E00E00
0023E00600
0026600700
0024600700
0038600700
0038600700
0038600700
003CE00700
003EE00600
006FE00E00
00CFC3FC00
00C3CFFC00
00C1F87E00
00C1F07F00
01C3E0FF80
01C731E7C0
01EE1FC3E0
00FE0F01E0
00FC0000E0
0030000040
0000000000
0000000000
0000000000
0000000000
0000000000
0000000000
0000000000
0000000000
ENDCHAR

STARTCHAR chs_A4CD
ENCODING 42189
SWIDTH 960 0
DWIDTH 40 0
BBX 40 40 0 -6
BITMAP
0000000000
0000000000
0000000000
0000000000
0000000000
0006000000
000F000000
000F800000
0007800000
0007000000
0007007800
0006C3FC00
0007EF1E00
0007F80600
001FF00700
01BFE00300
01FFC00380
01E7800380
00CF000380
000E000380
001E000380
003E000380
0076000380
00E6000700
01C6000600
03C603F600
03A61FFE00
03B6381F80
039E701FC0
031F601FE0
001F7039F0
000F38F0F0
000F1FE070
000E0F8020
000E000000
0000000000
0000000000
0000000000
0000000000
0000000000
ENDCHAR

STARTCHAR chs_A4CE
ENCODING 42190
SWIDTH 960 0
DWIDTH 40 0
BBX 40 40 0 -6
BITMAP
0000000000
0000000000
0000000000
0000000000
0000000000
0000000000
0000000000
00000F8000
00007FF000
0000E83800
0003881C00
0006080E00
000C080700
0018080380
00380803C0
00301801C0
00701801C0
00601801C0
00E03801C0
00E0300180
00E0300380
00E0600380
00E0600700
00F0E00E00
0079C01C00
007F803800
003F00F000
003C01F000
000003C000
00000E0000
0000380000
0000000000
0000000000
0000000000
0000000000
0000000000
0000000000
0000000000
0000000000
0000000000
ENDCHAR

STARTCHAR chs_A4CF
ENCODING 42191
SWIDTH 960 0
DWIDTH 40 0
BBX 40 40 0 -6
BITMAP
0000000000
0000000000
0000000000
0000000000
0000070000
0040078000
00E007C000
007803E000
003801C000
003C01C600
003C01CF80
003901FF80
007983FC00
0061FFF000
00E1FF8000
00C0F18000
00C0018000
018C018000
0188018000
0198018000
0398018000
0398018000
0398018000
03907F8000
0390FFE000
03B381F800
01B301FE00
01F6039F00
01F6030F80
00F70F07C0
00FBFC03C0
0078F80180
0038000000
0010000000
0000000000
0000000000
0000000000
0000000000
0000000000
0000000000
ENDCHAR

STARTCHAR chs_A4D0
ENCODING 42192
SWIDTH 960 0
DWIDTH 40 0
BBX 40 40 0 -6
BITMAP
0000000000
0000000000
0000000000
00000000E0
0000000878
000000063C
000007071E
01C00F839E
00E00FC1CE
00F007C1CC
00780381C0
0078038680
0078039F00
00F203FF00
00E307F800
00C3FF8000
0181FF0000
01807B0000
0180030000
0390030000
0310030000
0310030000
0310030000
0220030000
0220030000
02207F8000
0323FFC000
036787F000
036707F800
03E6077C00
03E60E3E00
01E7FE1F00
01F3F80F00
0071F00600
0030000000
0000000000
0000000000
0000000000
0000000000
0000000000
ENDCHAR

STARTCHAR chs_A4D1
ENCODING 42193
SWIDTH 960 0
DWIDTH 40 0
BBX 40 40 0 -6
BITMAP
0000000000
0000000000
0000000000
00000007C0
0000000FE0
0000000C30
00001C1818
03003E1818
03801F1818
03C00F1818
01E0070C30
01E00717E0
01E0067BC0
01E807F800
03CE0FE000
038FFF0000
0307FE0000
0303E60000
0600060000
0400060000
0440060000
0440060000
0440060000
04C0060000
0480060000
0483FE0000
068FFF8000
079C0FC000
07980FF000
07901CF800
0798187C00
039FF83C00
03CFE01C00
01C3800800
00C0000000
0000000000
0000000000
0000000000
0000000000
0000000000
ENDCHAR

STARTCHAR chs_A4D2
ENCODING 42194
SWIDTH 960 0
DWIDTH 40 0
BBX 40 40 0 -6
BITMAP
0000000000
0000000000
0000000000
0000000000
0000000000
0000000000
0000008000
000003C000
000063C000
0180E3C000
0387F3C000
03FEF1C000
03FDE1C000
01F380E000
000600E000
000C00B000
001800B000
0018009800
0020009C00
0040008E00
00C00107C0
00C00107C0
01800303C0
03800301C0
0380070000
0380060000
03000E0000
03001C0000
0300380000
0380700000
03C1E00000
01FFC00000
00FFC00000
003F000000
0000000000
0000000000
0000000000
0000000000
0000000000
0000000000
ENDCHAR

STARTCHAR chs_A4D3
ENCODING 42195
SWIDTH 960 0
DWIDTH 40 0
BBX 40 40 0 -6
BITMAP
0000000000
0000000000
0000000000
0000000C00
0000000600
0000000380
000000C1E0
00000070F0
00000638F0
00000F3C70
00030F1C60
0C1F8F1E20
0FFFCF0E00
0FF7870400
0FCE070000
079C070000
0238078000
007007C000
00E006C000
0180066000
0180067000
0300043800
0700043F00
04000C1F00
0C00080F00
0800180600
1800180000
1800380000
1800700000
1800F00000
1C00E00000
0E07C00000
07FFC00000
07FF000000
00F8000000
0000000000
0000000000
0000000000
0000000000
0000000000
ENDCHAR

STARTCHAR chs_A4D4
ENCODING 42196
SWIDTH 960 0
DWIDTH 40 0
BBX 40 40 0 -6
BITMAP
0000000000
0000000000
0000000000
0000000F80
0000001FC0
00000038E0
0000003060
0000063060
00000E3060
00018F3060
0407CF38C0
0FFFEF1F80
0FFFC70F80
0FEF070000
079C070000
0038078000
007007C000
00C006C000
018006E000
0300067000
0300043800
0700043F00
06000C1F00
0C000C0F00
0C00180600
0800180000
1800380000
1800700000
1800700000
0C00E00000
0E01C00000
079F800000
07FF000000
01FC000000
0000000000
0000000000
0000000000
0000000000
0000000000
0000000000
ENDCHAR

STARTCHAR chs_A4D5
ENCODING 42197
SWIDTH 960 0
DWIDTH 40 0
BBX 40 40 0 -6
BITMAP
0000000000
0000000000
0000000000
0000000000
0000800000
0000C00000
0000F80000
00007E0000
00003E0000
00001F0000
00003F0000
0000700000
0000C00000
0001000000
0001000000
0001000000
0000800000
0000C00000
0000600000
000037F000
00001C3C00
00003C1F00
0000660F80
0000C703C0
00038703C0
06070381E0
07FE0381E0
07FC0381E0
03F80380E0
03E0078000
01860F0000
0003FE0000
0000FE0000
0000180000
0000000000
0000000000
0000000000
0000000000
0000000000
0000000000
ENDCHAR

STARTCHAR chs_A4D6
ENCODING 42198
SWIDTH 960 0
DWIDTH 40 0
BBX 40 40 0 -6
BITMAP
0000000000
0000000000
0000000000
0000000000
0000001C00
0006000700
00078383C0
0003E1F1E0
0003F0F1E0
0001F878E0
0000F83CE0
0001F81CC0
0003C01C00
0007000800
0006000000
000C000000
000C000000
0004000000
0003000000
0001800000
0000CFC000
0000E0F800
0000F03C00
0003381E00
0006180F00
000E1C0F00
1C380C0780
1FF80E0780
1FF00E0780
0FE01E0300
07801C0000
030FFC0000
0007F80000
0003F00000
0000000000
0000000000
0000000000
0000000000
0000000000
0000000000
ENDCHAR

STARTCHAR chs_A4D7
ENCODING 42199
SWIDTH 960 0
DWIDTH 40 0
BBX 40 40 0 -6
BITMAP
0000000000
0000000000
0000000000
0000000780
0000000FC0
0002001860
0003C03830
0001F03830
0001F83830
0000FC3830
00007C1C60
0000FC0FC0
0001C00780
0003000000
0003000000
0006000000
0006000000
0002000000
0003800000
0001C00000
0000EFE000
000078FC00
0000781E00
00019C0F00
00030C0F80
00060E0780
0C3C0603C0
0FF80703C0
0FF00703C0
07C0070180
07980E0000
030FFE0000
0007FC0000
0001F80000
0000000000
0000000000
0000000000
0000000000
0000000000
0000000000
ENDCHAR

STARTCHAR chs_A4D8
ENCODING 42200
SWIDTH 960 0
DWIDTH 40 0
BBX 40 40 0 -6
BITMAP
0000000000
0000000000
0000000000
0000000000
0000000000
0000000000
0000000000
0000000000
0000000000
0000000000
0000000000
0001E00000
0003F00000
0003180000
00020E0000
0006070000
000E038000
001C01C000
001C00F000
0038007800
0078003E00
0FF0001FF0
0FE0000FF8
0FE00007F8
03C00001F0
0000000000
0000000000
0000000000
0000000000
0000000000
0000000000
0000000000
0000000000
0000000000
0000000000
0000000000
0000000000
0000000000
0000000000
0000000000
ENDCHAR

STARTCHAR chs_A4D9
ENCODING 42201
SWIDTH 960 0
DWIDTH 40 0
BBX 40 40 0 -6
BITMAP
0000000000
0000000000
0000000000
0000000000
0000000000
0000000E00
00000003C0
00000181E0
000000E0F0
00000078F0
0000003C70
0000001E60
0000601E20
0000F80E00
00018C0400
0001060000
0003030000
000E030000
000C01C000
001C00E000
0038007000
0478003800
0FF0003E00
0FE0001F80
07C0000FF8
03800003F8
01000001F8
00000000F0
0000000000
0000000000
0000000000
0000000000
0000000000
0000000000
0000000000
0000000000
0000000000
0000000000
0000000000
0000000000
ENDCHAR

STARTCHAR chs_A4DA
ENCODING 42202
SWIDTH 960 0
DWIDTH 40 0
BBX 40 40 0 -6
BITMAP
0000000000
0000000000
0000000000
0000000000
00000007C0
0000000FE0
0000001870
0000003830
0000003830
0000003830
0000003830
0000001FE0
0000700FC0
0000F80780
00018C0000
0001060000
0003030000
000E030000
000C01C000
001C00C000
0038007800
0478003E00
0FF0001F80
0FE0000FF8
07C00007F8
03800001F8
0100000070
0000000000
0000000000
0000000000
0000000000
0000000000
0000000000
0000000000
0000000000
0000000000
0000000000
0000000000
0000000000
0000000000
ENDCHAR

STARTCHAR chs_A4DB
ENCODING 42203
SWIDTH 960 0
DWIDTH 40 0
BBX 40 40 0 -6
BITMAP
0000000000
0000000000
0000000000
0000000000
0018001800
003C607C00
003C7FFC00
001C3FF000
001C0FC000
001C03C000
003C07E000
003803E000
0070C1C380
0060C0DFC0
00E0FCFFC0
00C07FFF80
018C3FF800
018800C000
011800C000
031800C000
031800C000
039000C000
03B03EC000
01B07FE000
01F0E1F800
01F180FC00
01F300DE00
00FB03CF80
007B838780
0039FF03C0
0018FC01C0
0000000080
0000000000
0000000000
0000000000
0000000000
0000000000
0000000000
0000000000
0000000000
ENDCHAR

STARTCHAR chs_A4DC
ENCODING 42204
SWIDTH 960 0
DWIDTH 40 0
BBX 40 40 0 -6
BITMAP
0000000000
0000000000
0000000000
0000000180
00000001C0
00000030E0
0000001E70
0100038F78
018203C7B8
03C31FC398
01E1FF0390
01E0FC0380
01E01E0100
01C03E0000
03C00F0000
038C0E0000
030F06FC00
030FFFFE00
0207FFFE00
0241FF8000
0640060000
0440060000
0580060000
0580060000
0580060000
0580060000
0783FE0000
078FFF8000
078E0FE000
079C07F000
039C0CF800
038C1C7800
018FF83800
0083F01800
0000000000
0000000000
0000000000
0000000000
0000000000
0000000000
ENDCHAR

STARTCHAR chs_A4DD
ENCODING 42205
SWIDTH 960 0
DWIDTH 40 0
BBX 40 40 0 -6
BITMAP
0000000000
0000000000
0000000000
0000000000
00000007C0
0000000FE0
0000001C70
0100031818
038203B818
01C31FB818
01E3FF3C18
01E0FC1FF0
01E03E0FE0
01E01E07C0
03C00F0000
038C070000
030F06FC00
070FFFFE00
0607FFFE00
0641FFC000
0440060000
0480060000
0580060000
0580060000
0D80060000
0F80060000
0F83FF0000
0F8FFFC000
078E0FE000
079C07F000
079C0CF800
039C1C7800
038FF83800
0187F01800
0000000000
0000000000
0000000000
0000000000
0000000000
0000000000
ENDCHAR

STARTCHAR chs_A4DE
ENCODING 42206
SWIDTH 960 0
DWIDTH 40 0
BBX 40 40 0 -6
BITMAP
0000000000
0000080000
00001E0000
00003E0000
00000F0000
00000F0000
0000070000
0000062000
0000066000
000007E000
00010FC000
0001FF0000
0001FE1800
0000FC1E00
00000C3C00
00000CFC00
00000FF000
00303FC000
003FFF0000
001FFC0000
000FEE0000
0007060000
0000060000
0000060000
0000070000
0000070000
0007FF0000
001FFFC000
00380FF000
002007F800
00600FFC00
00601E3E00
00387C1F00
003FF80F00
000FC00600
0000000000
0000000000
0000000000
0000000000
0000000000
ENDCHAR

STARTCHAR chs_A4DF
ENCODING 42207
SWIDTH 960 0
DWIDTH 40 0
BBX 40 40 0 -6
BITMAP
0000000000
0000000000
0000000000
0000000000
0000000000
0000078000
00001F8000
00307F8000
0039FE0000
003FD80000
003F300000
001E600000
000C600000
0000C00000
0000C00000
0001800000
0001803800
0001803C00
0001803C00
0001001C00
0007FC1C00
003F0FDC00
00F303F800
01E200F800
01C6003E00
0386007E00
038C00EF00
039C01E780
03F803C3C0
01F80783C0
00E00E01C0
0001FC00C0
0001E00080
0000000000
0000000000
0000000000
0000000000
0000000000
0000000000
0000000000
ENDCHAR

STARTCHAR chs_A4E0
ENCODING 42208
SWIDTH 960 0
DWIDTH 40 0
BBX 40 40 0 -6
BITMAP
0000000000
0000000000
0000000000
0000000000
000E000000
001F000000
000F800000
000F800000
0007000000
0007380000
00073C0000
0007F80000
018FF00000
01FFC00000
03FE000000
01F6000000
004600FC00
000F011F00
003F010780
00670103C0
00C60087C0
018600DFC0
018C00CFC0
038C006180
0398006000
01F8003000
01F8003000
00F0003800
0030003800
0030003800
0038003C00
003FFFFC00
001FFFF800
0007FFF000
0000000000
0000000000
0000000000
0000000000
0000000000
0000000000
ENDCHAR

STARTCHAR chs_A4E1
ENCODING 42209
SWIDTH 960 0
DWIDTH 40 0
BBX 40 40 0 -6
BITMAP
0000000000
0000000000
0000000000
0000000000
0000000000
0000000000
00001C0000
00003E0000
00001E0000
00000F0000
003C070000
000E070000
000E7FC000
000FFFF000
000F03F800
000F031E00
001F830F00
003B830780
0063830380
0061C703C0
00C0E701C0
00C0F601C0
01C0FE01C0
01C07E01C0
01C03F0380
01C03F0380
01E0F00700
00FFE01F00
007FC01E00
001E007800
000003E000
0000070000
0000000000
0000000000
0000000000
0000000000
0000000000
0000000000
0000000000
0000000000
ENDCHAR

STARTCHAR chs_A4E2
ENCODING 42210
SWIDTH 960 0
DWIDTH 40 0
BBX 40 40 0 -6
BITMAP
0000000000
0000000000
0000030000
0000078000
000007C000
000003C000
000003C000
000041C000
0000C1C000
0000E1C000
0000F9C000
00007FF000
00001FF800
000007F800
00000F8000
0000370000
0000460000
0000C60800
0000CC0400
0000E80600
0000F80300
00007FE180
00003FF180
00003FF9C0
00003000C0
00003000C0
00003000C0
00003000C0
00003800C0
00001800C0
00001801C0
00001C01C0
00000E0780
000007FF00
000003FE00
000000FC00
0000000000
0000000000
0000000000
0000000000
ENDCHAR

STARTCHAR chs_A4E3
ENCODING 42211
SWIDTH 960 0
DWIDTH 40 0
BBX 40 40 0 -6
BITMAP
0000000000
0000000000
0000000000
0000000000
0000000000
0000000000
0000000000
0000000000
0000000000
0000000000
00000E0000
0003FF0000
000FFF3E00
000E1FFF00
000C078380
00060E01C0
00073C01C0
0003F801C0
0001E003C0
0003E30780
000FE1FF00
007F70FE00
007E381800
003C1C0000
00001C0000
00000E0000
00000E0000
00000E0000
00000E0000
00000C0000
0000000000
0000000000
0000000000
0000000000
0000000000
0000000000
0000000000
0000000000
0000000000
0000000000
ENDCHAR

STARTCHAR chs_A4E4
ENCODING 42212
SWIDTH 960 0
DWIDTH 40 0
BBX 40 40 0 -6
BITMAP
0000000000
0000000000
0000000000
0000000000
0000000000
0000000000
0000000000
0000000000
0000000000
0000000000
0000180000
00001C0E00
001FFE7F80
003FFFFF80
00301F83C0
00300E01E0
00301C01E0
00187801E0
001C7001E0
000FE001E0
0007C083C0
000FE07F80
013F703E00
01FE380000
01FC1E0000
00F00F0000
00700F0000
0000070000
0000078000
0000078000
0000078000
0000030000
0000000000
0000000000
0000000000
0000000000
0000000000
0000000000
0000000000
0000000000
ENDCHAR

STARTCHAR chs_A4E5
ENCODING 42213
SWIDTH 960 0
DWIDTH 40 0
BBX 40 40 0 -6
BITMAP
0000000000
0000000000
0000000000
0000000000
0000000000
0000000000
0000000000
00003E0000
00007E0000
0000C3F000
0000CF1C00
00E0D98E00
0078F18600
0038E18700
003CC18300
003D818300
0079818300
0073818300
00E2C18300
00E6C18300
00C6C30300
00C6630700
00CC630E00
00EC270E00
006C361C00
007C1E3800
003C1FF000
001C3FF000
000C73C000
0000E00000
0001C00000
0002000000
0000000000
0000000000
0000000000
0000000000
0000000000
0000000000
0000000000
0000000000
ENDCHAR

STARTCHAR chs_A4E6
ENCODING 42214
SWIDTH 960 0
DWIDTH 40 0
BBX 40 40 0 -6
BITMAP
0000000000
0000000000
0000000000
0000000000
0000000000
0000000000
00001E0000
0038730000
0038618000
001CC3F800
003C87DC00
003988CE00
007998C700
00E170C300
00E160C380
01C1E0C180
0181C1C180
0181818180
0381818180
0383838180
0386C38180
0184C78380
018CE70380
018C660700
00DC260E00
00FC3C1C00
007C1C7800
003C7FF000
001C6FE000
0000E00000
0001800000
0006000000
0000000000
0000000000
0000000000
0000000000
0000000000
0000000000
0000000000
0000000000
ENDCHAR

STARTCHAR chs_A4E7
ENCODING 42215
SWIDTH 960 0
DWIDTH 40 0
BBX 40 40 0 -6
BITMAP
0000000000
0000000000
0000000000
0000000000
0000000000
0000000000
0000380000
00001E0000
00001E0000
00000E0000
00000C0000
00000C1E00
00000CFF00
00000FFE00
00000F0000
00000C0000
00000C0000
00000C0000
00000C0000
00000C0000
00000C0000
00000C0000
00000C0000
0001FC0000
0007FF0000
000C0FE000
00180DFC00
00181C7E00
0018381E00
001C700C00
001FE00000
000FC00000
0000000000
0000000000
0000000000
0000000000
0000000000
0000000000
0000000000
0000000000
ENDCHAR

STARTCHAR chs_A4E8
ENCODING 42216
SWIDTH 960 0
DWIDTH 40 0
BBX 40 40 0 -6
BITMAP
0000000000
0000000000
0000000000
0000000000
0000000000
0000700000
0000380000
00003C0000
00001C0000
0000180000
0000180C00
000018FE00
00001FFC00
00001FC000
0000180000
0000180000
0000180000
0000180000
0000180000
0000180000
0000180000
0000180000
0000180000
0001FE0000
000FFF8000
001C1BE000
003818F800
0070383E00
0060700F00
0060F00780
0071E00300
003F800000
001E000000
0000000000
0000000000
0000000000
0000000000
0000000000
0000000000
0000000000
ENDCHAR

STARTCHAR chs_A4E9
ENCODING 42217
SWIDTH 960 0
DWIDTH 40 0
BBX 40 40 0 -6
BITMAP
0000000000
0000000000
0000000000
0000800000
0000C00000
0000E00000
0000F80000
00007C0000
001FFE0000
0021FE0000
00603E0000
00600E0000
0078000000
0078000000
0078000000
0078000000
0070000000
00F0000000
00E0000000
00C007F000
00C0183C00
00C0601E00
00C0C00F00
00C1800700
00C3000700
00E7000700
007E000E00
007E001E00
007C001C00
003C003800
000000F000
00001FC000
00001F0000
0000000000
0000000000
0000000000
0000000000
0000000000
0000000000
0000000000
ENDCHAR

STARTCHAR chs_A4EA
ENCODING 42218
SWIDTH 960 0
DWIDTH 40 0
BBX 40 40 0 -6
BITMAP
0000000000
0000000000
0000000000
0002000000
0003800000
0003C00000
0001C00000
0001C00000
0001C70000
00019B8000
0001A1C000
000340C000
0003C0E000
000780E000
000700E000
000700E000
000600E000
000E00E000
000E00E000
000E00E000
000E00C000
000F01C000
000F01C000
000781C000
0003038000
0000038000
0000030000
0000070000
0000070000
0000060000
00000E0000
00001C0000
0000380000
0000780000
0000E00000
0001C00000
0003000000
0006000000
0000000000
0000000000
ENDCHAR

STARTCHAR chs_A4EB
ENCODING 42219
SWIDTH 960 0
DWIDTH 40 0
BBX 40 40 0 -6
BITMAP
0000000000
0000000000
0000000000
0000000000
0000000000
0000000000
0000078000
000E1FC000
000FFFE000
000FF7C000
0007CF0000
00031E0000
00003C0000
0000700000
0000E00000
0000C00000
0003BFF800
0003F87C00
0007C00E00
000F800700
000F000780
001E000380
003C000380
003C000380
007C7E0780
0078EF0F00
0078C38F00
0038C39E00
000063FC00
00003FF000
00001FC000
0000000000
0000000000
0000000000
0000000000
0000000000
0000000000
0000000000
0000000000
0000000000
ENDCHAR

STARTCHAR chs_A4EC
ENCODING 42220
SWIDTH 960 0
DWIDTH 40 0
BBX 40 40 0 -6
BITMAP
0000000000
0000000000
0000000000
0006000000
000F000000
001F800000
000FC00000
0007C00000
0003C00000
0003800000
0003800000
0003C1E000
0003E3F000
0003EFF800
000FF07800
03BFE07000
03FBC07000
03FFC07000
01E7006000
004F006000
001F006000
019F006000
01BB00E010
00BB00C010
007300C030
00F300C060
01E300C0E0
03DB00E1C0
03DB00FFC0
039F00FF80
038F807E00
010F803C00
0007801000
0007000000
0006000000
0000000000
0000000000
0000000000
0000000000
0000000000
ENDCHAR

STARTCHAR chs_A4ED
ENCODING 42221
SWIDTH 960 0
DWIDTH 40 0
BBX 40 40 0 -6
BITMAP
0000000000
0000000000
0000000000
000001C000
000003E000
00000FF000
00047CF000
000FF1F000
001FE3C000
001FC78000
000F8F0000
00060E0000
00001C0000
0000380000
0000700000
0000E7F800
0000DE1E00
0001F00F00
0003C00380
0007000380
000E0001C0
000C0001C0
001C0001C0
00180001C0
00380001C0
0078000380
00F0000780
01F0000700
00E0000E00
00C0001C00
0000003800
000000F000
000001F000
000003C000
00001C0000
0000000000
0000000000
0000000000
0000000000
0000000000
ENDCHAR

STARTCHAR chs_A4EE
ENCODING 42222
SWIDTH 960 0
DWIDTH 40 0
BBX 40 40 0 -6
BITMAP
0000000000
0000000000
0000000000
0000000000
0000000000
0001E00000
0001F00000
0000F00000
0000F00000
0000F00000
0000E00000
0000F80000
0000FC0000
0000F8F800
0013F39E00
003FEE0700
003FF80380
001EF001C0
0019E001C0
001BE001C0
001FE001C0
000FE001C0
000EE001C0
001CE001C0
003CE001C0
007EE00380
00FBE00700
00F3E00F00
0063E01E00
0041E03800
0000E0E000
0000CF8000
00004E0000
0000000000
0000000000
0000000000
0000000000
0000000000
0000000000
0000000000
ENDCHAR

STARTCHAR chs_A4EF
ENCODING 42223
SWIDTH 960 0
DWIDTH 40 0
BBX 40 40 0 -6
BITMAP
0000000000
0000000000
0000000000
0000000000
0000000000
000E000000
000F800000
000FC00000
0003C00000
0003800000
0003800000
0003800000
0003000000
0003C00000
0007E3F800
019FEE3E00
03FFD80700
03FBE00380
01E7C00180
00CF0001C0
00DF0001C0
005B0001C0
007B0001C0
00730001C0
00F3000380
00D3000380
01DB000700
019B001F00
039F001E00
038F003C00
038F00F000
010F07C000
00071F0000
00021C0000
0000000000
0000000000
0000000000
0000000000
0000000000
0000000000
ENDCHAR

STARTCHAR chs_A4F0
ENCODING 42224
SWIDTH 960 0
DWIDTH 40 0
BBX 40 40 0 -6
BITMAP
0000000000
0000000000
0000000000
0000000000
0000030000
00000FC000
00003DE000
0008F3F000
001BE3E000
001F878000
003F070000
001E060000
000C0E0000
00000C0000
000019F800
00001FFC00
0000381E00
0000600780
0001E00180
0003E001C0
0006C001C0
0018C001C0
0039C001C0
00618001C0
00418001C0
0083000380
01831F8780
01861BCF00
00CE18FE00
007E1CFC00
003C0FF800
001803E000
0018000000
0000000000
0000000000
0000000000
0000000000
0000000000
0000000000
0000000000
ENDCHAR

STARTCHAR chs_A4F1
ENCODING 42225
SWIDTH 960 0
DWIDTH 40 0
BBX 40 40 0 -6
BITMAP
0000000000
0000000000
0000000000
0000000000
0000070000
00180F8000
001FFF8000
001FFE0000
000FD80000
0007300000
00007FE000
0001F81C00
0003C00E00
0007000600
000E000600
001CE00600
003DB80600
0039080E00
0039181E00
0031B03800
0000E1F000
0001DFC000
0003C00000
0007000000
000E000000
001E000C00
003FC0FB00
0078E3C180
00F06301C0
01E07E01C0
03C07C01C0
03C0787FC0
0380787FC0
01803007C0
0000000000
0000000000
0000000000
0000000000
0000000000
0000000000
ENDCHAR

STARTCHAR chs_A4F2
ENCODING 42226
SWIDTH 960 0
DWIDTH 40 0
BBX 40 40 0 -6
BITMAP
0000000000
0001000000
0001C00000
0003C00000
0007C00000
0003C00000
0001CF0000
0001DF0000
0001FE0000
00E1F80000
007FE00000
003F807C00
001F01FE00
0007038700
0006070F00
000FE60E00
001F7E1E00
003C7C3C00
00783C7000
00F81DC000
01F01F0000
03E01E0000
03C07C0000
0100DC0000
00011C0000
00020C0000
0004000000
0004000000
0006000000
0007006000
0003FFF000
0000FFF000
00000FF000
0000000000
0000000000
0000000000
0000000000
0000000000
0000000000
0000000000
ENDCHAR

STARTCHAR chs_A4F3
ENCODING 42227
SWIDTH 960 0
DWIDTH 40 0
BBX 40 40 0 -6
BITMAP
0000000000
0000000000
0000000000
0000020000
0000070000
0000078000
0000078000
0000078000
0000070000
0000070000
00000F0000
00000E0000
00001C0000
0000180000
0000300000
0000600000
000067C000
0000DCE000
0000B86000
0001F06000
0001E06000
0003C06000
0007806040
00070060C0
000E0060C0
000E00E1C0
001C00E380
001C00E780
001C00FE00
003C00FE00
003C007C00
003C003000
0018000000
0000000000
0000000000
0000000000
0000000000
0000000000
0000000000
0000000000
ENDCHAR

STARTCHAR chs_A5A1
ENCODING 42401
SWIDTH 960 0
DWIDTH 40 0
BBX 40 40 0 -6
BITMAP
0000000000
0000000000
0000000000
0000000000
0000000000
0000000000
0000000000
0000000000
0000000000
0000000000
0000000000
0000006000
000003F000
00003FF800
0063FFF800
003FE0F000
001C01E000
000003C000
0000478000
00007E0000
0000780000
0000700000
0000700000
0000700000
0000F00000
0000E00000
0000E00000
0000E00000
0001C00000
0003800000
0003000000
0006000000
000C000000
0018000000
0020000000
0000000000
0000000000
0000000000
0000000000
0000000000
ENDCHAR

STARTCHAR chs_A5A2
ENCODING 42402
SWIDTH 960 0
DWIDTH 40 0
BBX 40 40 0 -6
BITMAP
0000000000
0000000000
0000000000
0000000000
0000000000
0000000380
000007FFE0
0C0FFFFFF0
0FFFFFFFF0
07FFF003E0
03C0000780
0000201E00
0000707C00
000039F000
00003F8000
00003F0000
0000380000
0000380000
0000380000
0000380000
0000380000
0000380000
0000700000
0000700000
0000700000
0000600000
0000E00000
0000E00000
0000C00000
0001C00000
0001800000
0003800000
000F000000
000E000000
001C000000
0038000000
0070000000
0040000000
0000000000
0000000000
ENDCHAR

STARTCHAR chs_A5A3
ENCODING 42403
SWIDTH 960 0
DWIDTH 40 0
BBX 40 40 0 -6
BITMAP
0000000000
0000000000
0000000000
0000000000
0000000000
0000000000
0000000000
0000000000
0000000000
0000000000
0000000000
0000070000
0000078000
0000078000
00000F8000
00000F0000
00001E0000
00003C0000
0000780000
0000FC0000
0001FC0000
0003DC0000
00079C0000
000E1C0000
00181C0000
00001C0000
00001C0000
00001C0000
00001C0000
00001C0000
00001C0000
00003C0000
00003C0000
00003C0000
00001C0000
0000180000
0000000000
0000000000
0000000000
0000000000
ENDCHAR

STARTCHAR chs_A5A4
ENCODING 42404
SWIDTH 960 0
DWIDTH 40 0
BBX 40 40 0 -6
BITMAP
0000000000
0000000000
0000000000
0000018000
000001C000
000001E000
000001F000
000003F000
000003C000
0000078000
0000070000
00000E0000
00001E0000
0000380000
0000780000
0000FC0000
0001CE0000
0003CE0000
00070E0000
000E0E0000
001C0E0000
00380E0000
00780E0000
00E00E0000
01800E0000
00000E0000
00000E0000
00000E0000
00000E0000
00000E0000
00000E0000
00000E0000
00001E0000
00001E0000
00001E0000
00001E0000
00001E0000
00000E0000
0000000000
0000000000
ENDCHAR

STARTCHAR chs_A5A5
ENCODING 42405
SWIDTH 960 0
DWIDTH 40 0
BBX 40 40 0 -6
BITMAP
0000000000
0000000000
0000000000
0000000000
0000000000
0000000000
0000000000
0000000000
0000000000
0000000000
0000000000
0000780000
00007C0000
00003C0000
0000380000
0000380000
0000380C00
00303FFE00
003FFFFF00
003FF81E00
001C001C00
001C003800
001C003800
001C003800
001C007000
001C00E000
001800E000
001801C000
0000038000
0000070000
00000E0000
00001C0000
0000380000
0000700000
0000000000
0000000000
0000000000
0000000000
0000000000
0000000000
ENDCHAR

STARTCHAR chs_A5A6
ENCODING 42406
SWIDTH 960 0
DWIDTH 40 0
BBX 40 40 0 -6
BITMAP
0000000000
0000000000
0000000000
0000000000
0000E00000
0000780000
00007C0000
00003C0000
0000380000
0000380000
0000380400
00003FFF00
01FFFFFF80
00FFFFFF80
00FE000780
00E0000F00
00E0000F00
00E0001E00
00E0001E00
00E0001C00
00E0003800
00E0003800
00E0007000
00E0007000
000000E000
000000E000
000001C000
0000038000
0000070000
00000E0000
00001C0000
0000380000
0000700000
0000C00000
0001800000
0003000000
0004000000
0000000000
0000000000
0000000000
ENDCHAR

STARTCHAR chs_A5A7
ENCODING 42407
SWIDTH 960 0
DWIDTH 40 0
BBX 40 40 0 -6
BITMAP
0000000000
0000000000
0000000000
0000000000
0000000000
0000000000
0000000000
0000000000
0000000000
0000000000
0000000000
0000000000
000001C000
000003E000
0000FFF000
001FFC0000
000FB80000
000C380000
0000380000
0000380000
0000380000
0000380000
0000380000
0000380000
0000380000
0000380000
0000387800
00003FFE00
01FFFFFE00
00FFF80000
0038000000
0000000000
0000000000
0000000000
0000000000
0000000000
0000000000
0000000000
0000000000
0000000000
ENDCHAR

STARTCHAR chs_A5A8
ENCODING 42408
SWIDTH 960 0
DWIDTH 40 0
BBX 40 40 0 -6
BITMAP
0000000000
0000000000
0000000000
0000000000
0000000000
0000000000
0000000000
0000000000
0000000000
0000007800
00003FF800
007FFFF800
007FFC0000
00303C0000
00003C0000
00003C0000
0000380000
0000380000
0000380000
0000380000
0000380000
0000380000
0000380000
0000380000
0000380380
00003FFFE0
07FFFFFFF0
07FFFFFFF0
03FFE00070
0000000000
0000000000
0000000000
0000000000
0000000000
0000000000
0000000000
0000000000
0000000000
0000000000
0000000000
ENDCHAR

STARTCHAR chs_A5A9
ENCODING 42409
SWIDTH 960 0
DWIDTH 40 0
BBX 40 40 0 -6
BITMAP
0000000000
0000000000
0000000000
0000000000
0000000000
0000000000
0000000000
0000000000
0000000000
0000000000
00000E0000
00000F0000
00000F0000
0000070000
0000070000
0000073800
0000FFF800
000FFFF800
000FFF0000
00001F0000
00003F0000
0000370000
0000670000
0000E70000
0001C70000
0003870000
0007070000
000E070000
001C070000
0030E70000
00607F0000
00807E0000
00003E0000
00001C0000
0000100000
0000000000
0000000000
0000000000
0000000000
0000000000
ENDCHAR

STARTCHAR chs_A5AA
ENCODING 42410
SWIDTH 960 0
DWIDTH 40 0
BBX 40 40 0 -6
BITMAP
0000000000
0000000000
0000000000
00001C0000
00000F0000
00000F0000
0000070000
0000070000
0000070000
0000070000
00000703C0
000007FFC0
0003FFFFC0
07FFFFF800
07FE0F0000
03801F0000
00001F0000
00003F0000
00007F0000
0000F70000
0000E70000
0001C70000
0003C70000
0007070000
000E070000
001C070000
0038070000
0078070000
00E0070000
01C0070000
0381CF0000
0000FF0000
00007F0000
00003E0000
00001E0000
00000C0000
0000000000
0000000000
0000000000
0000000000
ENDCHAR

STARTCHAR chs_A5AB
ENCODING 42411
SWIDTH 960 0
DWIDTH 40 0
BBX 40 40 0 -6
BITMAP
0000000000
0000000000
0000000000
0000000000
00003C0000
00001F0000
00000F0000
00000F0000
00000F0000
00000E0000
00001C0000
00001C0400
00003CFF00
00003FFF80
0187FFFF80
00FFFF0F00
007FF00F00
0038700E00
0000E00E00
0000E00C00
0000E01C00
0001C01C00
0001C01C00
0003803800
0003803800
0007003800
000E003800
000E007000
001C307000
003838E000
00701CE000
00E01FC000
01C00F8000
03800F0000
0600060000
0800000000
0000000000
0000000000
0000000000
0000000000
ENDCHAR

STARTCHAR chs_A5AC
ENCODING 42412
SWIDTH 960 0
DWIDTH 40 0
BBX 40 40 0 -6
BITMAP
0000000000
0000000000
0000000000
0000000000
00006000C0
0000780030
00003C0E1C
00003E078E
00003C01CE
00003800E6
00003800E0
0000780860
000073FE00
0303FFFF00
03FFFFFF00
01FFFF1E00
00F8E01E00
0000E01C00
0000E01C00
0000E03C00
0001C03800
0003C03800
0003803800
0007003800
0007007800
000E007000
001C00F000
001C00F000
003801E000
0070E1C000
00E0738000
01C03F8000
03803F0000
07001E0000
08000C0000
0000000000
0000000000
0000000000
0000000000
0000000000
ENDCHAR

STARTCHAR chs_A5AD
ENCODING 42413
SWIDTH 960 0
DWIDTH 40 0
BBX 40 40 0 -6
BITMAP
0000000000
0000000000
0000000000
0000000000
0003800000
0007C00000
0003C00000
0001C00000
0001C00000
0001E00000
0000E07800
0000FFF800
001FFFF800
03FFFF0000
03FFE00000
01C0E00000
0000700000
0000700000
0000700000
0000700000
0000380300
00003BFF80
0003FFFFC0
07FFFFFF80
07FFFC0000
03FC1C0000
01C00E0000
00000E0000
00000E0000
0000070000
0000070000
0000070000
0000070000
0000078000
0000038000
000003C000
000003C000
0000018000
0000000000
0000000000
ENDCHAR

STARTCHAR chs_A5AE
ENCODING 42414
SWIDTH 960 0
DWIDTH 40 0
BBX 40 40 0 -6
BITMAP
0000000000
0000000000
0000000000
0000000380
000E0001E0
0007000078
0007803C3C
0003801F1E
000380079E
0001C003CC
0001C003C0
0001CFE180
001FFFF180
07FFFFF000
07FFE00000
0380E00000
0000E00000
0000E00000
0000E00000
0000700000
0000703F00
00007FFF80
003FFFFF00
1FFFFFC000
0FFF780000
0780380000
00003C0000
00001C0000
00001E0000
00000E0000
00000E0000
00000E0000
0000070000
0000070000
0000078000
0000078000
0000038000
0000030000
0000000000
0000000000
ENDCHAR

STARTCHAR chs_A5AF
ENCODING 42415
SWIDTH 960 0
DWIDTH 40 0
BBX 40 40 0 -6
BITMAP
0000000000
0000000000
0000000000
0000000000
0000E00000
0000F00000
0000F80000
0000F80000
0001F00000
0001E01800
0003C07E00
0007FFFF00
000FFFFF00
001FF03E00
0038003C00
0070007800
00E0007000
01C000F000
030000E000
040001C000
0000038000
0000038000
0000070000
00000E0000
00001C0000
0000380000
0000700000
0000E00000
0001C00000
0003800000
0007000000
001C000000
0078000000
00E0000000
03C0000000
0700000000
0000000000
0000000000
0000000000
0000000000
ENDCHAR

STARTCHAR chs_A5B0
ENCODING 42416
SWIDTH 960 0
DWIDTH 40 0
BBX 40 40 0 -6
BITMAP
0000000000
0000000000
0000000000
0000000380
00038001E0
0001E03C78
0001E00F3C
0003E0079E
0003C003DC
00078071C0
000707F9C0
000FFFF800
001FFFF800
003FF07800
007800F000
00E000E000
01C001C000
038003C000
0600038000
0800070000
00000F0000
00001E0000
00003C0000
0000780000
0000F00000
0001E00000
0003C00000
0007800000
000F000000
001E000000
003C000000
0078000000
00F0000000
01C0000000
0300000000
0000000000
0000000000
0000000000
0000000000
0000000000
ENDCHAR

STARTCHAR chs_A5B1
ENCODING 42417
SWIDTH 960 0
DWIDTH 40 0
BBX 40 40 0 -6
BITMAP
0000000000
0000000000
0000000000
000E000000
000F000000
0007C00000
0007E00000
0007C00000
000FC00000
000F800000
001E000000
001E01FFE0
003FFFFFE0
003FFFFFE0
007801E000
00E001E000
01C001E000
03C003C000
070003C000
0E00078000
1C00070000
3000070000
20000E0000
00001C0000
00001C0000
0000380000
0000700000
0000E00000
0001C00000
0003800000
0007000000
000E000000
001C000000
0078000000
01C0000000
0380000000
0000000000
0000000000
0000000000
0000000000
ENDCHAR

STARTCHAR chs_A5B2
ENCODING 42418
SWIDTH 960 0
DWIDTH 40 0
BBX 40 40 0 -6
BITMAP
0000000000
0000000000
0000000000
00080000C0
001E000070
000F00003C
000F801F1E
000F8007CE
000F0001EE
001E0000F0
001C0000F0
003800FE60
007FFFFF80
007FFFFFC0
00FFFF0000
01C0078000
0380078000
0700078000
0E00070000
1800070000
30000E0000
20001E0000
00001C0000
0000380000
0000380000
0000700000
0000E00000
0000C00000
0001800000
0003000000
0006000000
000C000000
0018000000
0030000000
0060000000
0080000000
0000000000
0000000000
0000000000
0000000000
ENDCHAR

STARTCHAR chs_A5B3
ENCODING 42419
SWIDTH 960 0
DWIDTH 40 0
BBX 40 40 0 -6
BITMAP
0000000000
0000000000
0000000000
0000000000
0000000000
0000000000
0000000000
0000000000
0000000000
0000000000
0000000000
0000003E00
00001FFF00
00FFFFFF80
007FFFFF80
003C001F00
0000001E00
0000001E00
0000001C00
0000003C00
0000003800
0000003800
0000003800
0000003800
0000003800
0000007000
0000FFF000
01FFFFF800
007FFFFC00
003E000000
0000000000
0000000000
0000000000
0000000000
0000000000
0000000000
0000000000
0000000000
0000000000
0000000000
ENDCHAR

STARTCHAR chs_A5B4
ENCODING 42420
SWIDTH 960 0
DWIDTH 40 0
BBX 40 40 0 -6
BITMAP
0000000000
0000000000
0000000000
0000000000
0000000000
0000000000
00000003C0
00000000F0
0000003078
0000001C3C
0000000F3C
0000000798
00000073C0
00007FF380
03FFFFF800
03FFFFF800
01C0007800
000000F000
000000F000
000000F000
000001F000
000001E000
000003E000
000003C000
0000038000
0000078000
003FFFF000
07FFFFF800
07FFFFF800
03FE000000
0000000000
0000000000
0000000000
0000000000
0000000000
0000000000
0000000000
0000000000
0000000000
0000000000
ENDCHAR

STARTCHAR chs_A5B5
ENCODING 42421
SWIDTH 960 0
DWIDTH 40 0
BBX 40 40 0 -6
BITMAP
0000000000
0000000000
0000000000
0000018000
000001C000
000000F000
001C007000
001E007800
000F007000
000F007000
0007007000
00070070C0
00070FFFF0
1007FFFFFC
1FFFFFFFFC
0FFFF0E038
07FF00E000
038701E000
000701C000
000701C000
0007038000
0007038000
0007038000
0007038000
0007078000
000F070000
000F070000
000F070000
00070E0000
00060E0000
00001C0000
00001C0000
0000780000
0000700000
0000E00000
0000C00000
0000800000
0000000000
0000000000
0000000000
ENDCHAR

STARTCHAR chs_A5B6
ENCODING 42422
SWIDTH 960 0
DWIDTH 40 0
BBX 40 40 0 -6
BITMAP
0000000000
0000000000
0000000000
0000030000
0000038060
000003C038
000001EE1C
003801E79E
003C01C38E
001E01C3CC
001E01C1C0
000E01C180
000E01C000
000E01C080
000E01FFC0
183FFFFFE0
1FFFFFFFF0
0FFFE3C000
07CE038000
000E038000
000E038000
000E070000
000E070000
000E070000
000E070000
000E070000
001E0E0000
001E0E0000
001E0E0000
001E1C0000
000E1C0000
000C380000
0000780000
0000700000
0000E00000
0000800000
0000000000
0000000000
0000000000
0000000000
ENDCHAR

STARTCHAR chs_A5B7
ENCODING 42423
SWIDTH 960 0
DWIDTH 40 0
BBX 40 40 0 -6
BITMAP
0000000000
0000000000
0000000000
0000000000
0000000000
0000000000
000F000000
0007C00000
0003C00000
0001E00000
0000F00000
0000F00000
0000700000
0000200000
0000000000
01C0000020
00F00000C0
0078000180
003C000700
001E000E00
001E001C00
000E003800
000C007000
000000E000
000001C000
0000078000
00000F0000
00003E0000
01807C0000
00E0F80000
0079F00000
003FE00000
003FC00000
001F800000
001F000000
000C000000
0000000000
0000000000
0000000000
0000000000
ENDCHAR

STARTCHAR chs_A5B8
ENCODING 42424
SWIDTH 960 0
DWIDTH 40 0
BBX 40 40 0 -6
BITMAP
0000000000
0000000000
0000000000
0000000600
0000000380
00000001E0
001C0080F0
001F01E0F8
0007C0F078
0001E07830
0000F03C00
0000701C00
0000701C00
0000200800
0000000010
03C0000020
00F80000C0
007E000180
003F000700
001F000E00
001E001C00
000C003800
0000007000
000000E000
000003C000
0000078000
00000F0000
00001E0000
00007C0000
00C0F80000
0071F00000
003FE00000
003FC00000
001F800000
001F000000
000E000000
0000000000
0000000000
0000000000
0000000000
ENDCHAR

STARTCHAR chs_A5B9
ENCODING 42425
SWIDTH 960 0
DWIDTH 40 0
BBX 40 40 0 -6
BITMAP
0000000000
0000000000
0000000000
0000000000
0000000000
0000000000
0000000000
0000007000
00000FF000
0083FFF800
007FFFF800
007FC0F000
003800F000
000001E000
000001C000
000003C000
0000038000
0000070000
0000070000
0000070000
00000E0000
00001F8000
00003DE000
000078F000
0000F07800
0001E03C00
0003C01F00
0007800F80
000F0007C0
001E0003E0
003C0001E0
00F00001E0
03C00001E0
03000000C0
0000000000
0000000000
0000000000
0000000000
0000000000
0000000000
ENDCHAR

STARTCHAR chs_A5BA
ENCODING 42426
SWIDTH 960 0
DWIDTH 40 0
BBX 40 40 0 -6
BITMAP
0000000000
0000000000
0000000000
0000000000
0000000180
00000000E0
0000001870
0000039E3C
00007FC71C
020FFFE39E
03FFFFE3CC
01FF87C180
01F0078180
00000F8000
00000F0000
00000F0000
00001E0000
00003E0000
00003C0000
0000780000
0000700000
0000F80000
0000EE0000
0001C70000
000383C000
000701E000
000E00F800
001C007C00
0038003E00
0070001F00
01C0000F80
0F80000F80
3F00000780
1800000600
0000000000
0000000000
0000000000
0000000000
0000000000
0000000000
ENDCHAR

STARTCHAR chs_A5BB
ENCODING 42427
SWIDTH 960 0
DWIDTH 40 0
BBX 40 40 0 -6
BITMAP
0000000000
0000000000
0000000000
0000000000
0000000000
000F000000
0007C00000
0003E00000
0003E00000
0001C00000
0001C00000
0001C00000
0001C00F00
0001C01F80
0001C1FFC0
0001CFF7C0
0003FF0780
007FFC1F00
07FFC01E00
07F1C03C00
0381C07800
0001C0E000
0001C1C000
0001C00000
0001C00000
0001C00000
0001C00000
0001C00000
0001C00000
0001C00000
0001E01F00
0000FFFF80
00007FFF80
00001FFE00
0000000000
0000000000
0000000000
0000000000
0000000000
0000000000
ENDCHAR

STARTCHAR chs_A5BC
ENCODING 42428
SWIDTH 960 0
DWIDTH 40 0
BBX 40 40 0 -6
BITMAP
0000000000
0000000000
0000000000
0000000100
00000001C0
001E0030E0
000F001E78
000F800FBC
000780079E
00070003DC
00070001C0
0007000080
0007001C00
0007007E00
000707FF00
00071FFF00
0007FE3E00
007FF03C00
1FFF807800
0FF7007000
070700C000
0007018000
0007030000
0007000000
0007000000
0007000000
0007000000
0007000000
0007000000
0007000000
0003807C00
0003FFFE00
0001FFFE00
00007FFE00
0000000000
0000000000
0000000000
0000000000
0000000000
0000000000
ENDCHAR

STARTCHAR chs_A5BD
ENCODING 42429
SWIDTH 960 0
DWIDTH 40 0
BBX 40 40 0 -6
BITMAP
0000000000
0000000000
0000000000
0000000000
0000000000
0000000000
0000003000
0000003C00
0000001E00
0080001F00
0060001F00
0038001F00
001C001F00
001E001E00
001F003C00
000F803C00
000F803800
0007C03800
0003C07800
0003807000
000000F000
000000E000
000003C000
000003C000
0000078000
00000F0000
00001E0000
00003C0000
0000780000
0000F00000
0001E00000
0003C00000
000F000000
003E000000
00E0000000
0000000000
0000000000
0000000000
0000000000
0000000000
ENDCHAR

STARTCHAR chs_A5BE
ENCODING 42430
SWIDTH 960 0
DWIDTH 40 0
BBX 40 40 0 -6
BITMAP
0000000000
0000000000
0000000100
0000000180
00000030E0
0000001C78
0000030F3C
000003C79E
000001F3DC
000001F1C0
060001F9C0
03C001F800
01F001F000
00F801F000
007C01F000
007C01E000
003C03E000
001C03C000
000803C000
0000078000
0000070000
00000F0000
00000E0000
00001C0000
0000380000
0000700000
0000E00000
0001C00000
0003800000
0007000000
001E000000
0038000000
00F8000000
01E0000000
0F00000000
0000000000
0000000000
0000000000
0000000000
0000000000
ENDCHAR

STARTCHAR chs_A5BF
ENCODING 42431
SWIDTH 960 0
DWIDTH 40 0
BBX 40 40 0 -6
BITMAP
0000000000
0000000000
0000000000
0001C00000
0001E00000
0000F00000
0000F00000
0000F00000
0001E00000
0001E03800
0003C1FC00
0003FFFE00
0007FFFE00
000FFC3C00
000E003C00
001E003800
001E007800
003B807000
0071C0F000
00E0E0E000
018071E000
030039C000
02001F8000
00000F8000
0000078000
00000FC000
00001DE000
000078F000
000070F800
0000E07800
0001C03800
0007803800
000F001000
003E000000
01F0000000
0780000000
0000000000
0000000000
0000000000
0000000000
ENDCHAR

STARTCHAR chs_A5C0
ENCODING 42432
SWIDTH 960 0
DWIDTH 40 0
BBX 40 40 0 -6
BITMAP
0000000000
0000000000
0000000100
0003801180
0001E018E0
0001E00E78
0001E007BC
0001E003DE
0001E001DC
0003C039C0
0003C1FC00
0007FFFC00
000FFFFC00
000FF87800
001E007800
003C00F000
007F00F000
00F381E000
01E1C1C000
0380E3C000
0700738000
04003F8000
00001F0000
00000F0000
00000F0000
00001F8000
00003BC000
000073F000
0000E1F000
0001C0F000
000380E000
000F000000
003E000000
00F8000000
03C0000000
1F00000000
0000000000
0000000000
0000000000
0000000000
ENDCHAR

ENDFONT
